<ttFont>
    <TTGlyph name=".notdef" xMin="84" yMin="0" xMax="588" yMax="660">
      <contour>
        <pt x="84" y="660" on="1"/>
        <pt x="588" y="660" on="1"/>
        <pt x="588" y="0" on="1"/>
        <pt x="84" y="0" on="1"/>
      </contour>
      <contour>
        <pt x="277" y="340" on="1"/>
        <pt x="166" y="549" on="1"/>
        <pt x="166" y="133" on="1"/>
      </contour>
      <contour>
        <pt x="505" y="133" on="1"/>
        <pt x="505" y="549" on="1"/>
        <pt x="395" y="340" on="1"/>
      </contour>
      <contour>
        <pt x="440" y="75" on="1"/>
        <pt x="384" y="179" on="1"/>
        <pt x="338" y="279" on="1"/>
        <pt x="334" y="279" on="1"/>
        <pt x="287" y="179" on="1"/>
        <pt x="230" y="75" on="1"/>
      </contour>
      <contour>
        <pt x="338" y="401" on="1"/>
        <pt x="384" y="495" on="1"/>
        <pt x="432" y="584" on="1"/>
        <pt x="239" y="584" on="1"/>
        <pt x="288" y="495" on="1"/>
        <pt x="334" y="401" on="1"/>
      </contour>
    </TTGlyph>
    <TTGlyph name="A" xMin="-2" yMin="0" xMax="560" yMax="654">
      <contour>
        <pt x="361" y="268" on="1"/>
        <pt x="338" y="348" on="1"/>
        <pt x="322" y="400" on="0"/>
        <pt x="293" y="510" on="0"/>
        <pt x="279" y="564" on="1"/>
        <pt x="275" y="564" on="1"/>
        <pt x="261" y="509" on="0"/>
        <pt x="233" y="400" on="0"/>
        <pt x="217" y="348" on="1"/>
        <pt x="194" y="268" on="1"/>
      </contour>
      <contour>
        <pt x="387" y="177" on="1"/>
        <pt x="167" y="177" on="1"/>
        <pt x="116" y="0" on="1"/>
        <pt x="-2" y="0" on="1"/>
        <pt x="211" y="654" on="1"/>
        <pt x="347" y="654" on="1"/>
        <pt x="560" y="0" on="1"/>
        <pt x="438" y="0" on="1"/>
      </contour>
    </TTGlyph>
    <TTGlyph name="A.sc" xMin="-2" yMin="0" xMax="489" yMax="523">
      <contour>
        <pt x="306" y="211" on="1"/>
        <pt x="289" y="268" on="1"/>
        <pt x="277" y="309" on="0"/>
        <pt x="255" y="394" on="0"/>
        <pt x="243" y="435" on="1"/>
        <pt x="239" y="435" on="1"/>
        <pt x="228" y="393" on="0"/>
        <pt x="206" y="309" on="0"/>
        <pt x="195" y="268" on="1"/>
        <pt x="178" y="211" on="1"/>
      </contour>
      <contour>
        <pt x="331" y="127" on="1"/>
        <pt x="153" y="127" on="1"/>
        <pt x="115" y="0" on="1"/>
        <pt x="-2" y="0" on="1"/>
        <pt x="176" y="523" on="1"/>
        <pt x="311" y="523" on="1"/>
        <pt x="489" y="0" on="1"/>
        <pt x="368" y="0" on="1"/>
      </contour>
    </TTGlyph>
    <TTGlyph name="A.sups" xMin="-3" yMin="264" xMax="379" yMax="696">
      <contour>
        <pt x="240" y="442" on="1"/>
        <pt x="226" y="492" on="1"/>
        <pt x="217" y="526" on="0"/>
        <pt x="197" y="597" on="0"/>
        <pt x="187" y="632" on="1"/>
        <pt x="185" y="632" on="1"/>
        <pt x="177" y="597" on="0"/>
        <pt x="157" y="526" on="0"/>
        <pt x="147" y="492" on="1"/>
        <pt x="133" y="442" on="1"/>
      </contour>
      <contour>
        <pt x="258" y="378" on="1"/>
        <pt x="115" y="378" on="1"/>
        <pt x="82" y="264" on="1"/>
        <pt x="-3" y="264" on="1"/>
        <pt x="139" y="696" on="1"/>
        <pt x="238" y="696" on="1"/>
        <pt x="379" y="264" on="1"/>
        <pt x="290" y="264" on="1"/>
      </contour>
    </TTGlyph>
    <TTGlyph name="AE" xMin="-3" yMin="0" xMax="783" yMax="654">
      <contour>
        <pt x="394" y="261" on="1"/>
        <pt x="394" y="565" on="1"/>
        <pt x="390" y="565" on="1"/>
        <pt x="366" y="514" on="0"/>
        <pt x="320" y="414" on="0"/>
        <pt x="297" y="366" on="1"/>
        <pt x="246" y="261" on="1"/>
      </contour>
      <contour>
        <pt x="783" y="98" on="1"/>
        <pt x="783" y="0" on="1"/>
        <pt x="394" y="0" on="1"/>
        <pt x="394" y="170" on="1"/>
        <pt x="202" y="170" on="1"/>
        <pt x="119" y="0" on="1"/>
        <pt x="-3" y="0" on="1"/>
        <pt x="324" y="654" on="1"/>
        <pt x="773" y="654" on="1"/>
        <pt x="773" y="556" on="1"/>
        <pt x="510" y="556" on="1"/>
        <pt x="510" y="389" on="1"/>
        <pt x="731" y="389" on="1"/>
        <pt x="731" y="291" on="1"/>
        <pt x="510" y="291" on="1"/>
        <pt x="510" y="98" on="1"/>
      </contour>
    </TTGlyph>
    <TTGlyph name="AE.sc" xMin="-3" yMin="0" xMax="676" yMax="523">
      <contour>
        <pt x="336" y="208" on="1"/>
        <pt x="336" y="438" on="1"/>
        <pt x="333" y="438" on="1"/>
        <pt x="314" y="399" on="0"/>
        <pt x="278" y="321" on="0"/>
        <pt x="260" y="286" on="1"/>
        <pt x="221" y="208" on="1"/>
      </contour>
      <contour>
        <pt x="676" y="90" on="1"/>
        <pt x="676" y="0" on="1"/>
        <pt x="336" y="0" on="1"/>
        <pt x="336" y="124" on="1"/>
        <pt x="178" y="124" on="1"/>
        <pt x="116" y="0" on="1"/>
        <pt x="-3" y="0" on="1"/>
        <pt x="267" y="523" on="1"/>
        <pt x="666" y="523" on="1"/>
        <pt x="666" y="433" on="1"/>
        <pt x="452" y="433" on="1"/>
        <pt x="452" y="312" on="1"/>
        <pt x="632" y="312" on="1"/>
        <pt x="632" y="227" on="1"/>
        <pt x="452" y="227" on="1"/>
        <pt x="452" y="90" on="1"/>
      </contour>
    </TTGlyph>
    <TTGlyph name="Aacute" xMin="-2" yMin="0" xMax="560" yMax="820">
      <component glyphName="A" x="0" y="0" flags="0x204"/>
      <component glyphName="uni0301.cap" x="277" y="0" flags="0x4"/>
    </TTGlyph>
    <TTGlyph name="Aacute.sc" xMin="-2" yMin="0" xMax="489" yMax="708">
      <component glyphName="A.sc" x="0" y="0" flags="0x204"/>
      <component glyphName="uni0301.cap" x="241" y="-112" flags="0x4"/>
    </TTGlyph>
    <TTGlyph name="Abreve" xMin="-2" yMin="0" xMax="560" yMax="820">
      <component glyphName="A" x="0" y="0" flags="0x204"/>
      <component glyphName="uni0306.cap" x="277" y="0" flags="0x4"/>
    </TTGlyph>
    <TTGlyph name="Abreve.sc" xMin="-2" yMin="0" xMax="489" yMax="708">
      <component glyphName="A.sc" x="0" y="0" flags="0x204"/>
      <component glyphName="uni0306.cap" x="241" y="-112" flags="0x4"/>
    </TTGlyph>
    <TTGlyph name="Acircumflex" xMin="-2" yMin="0" xMax="560" yMax="820">
      <component glyphName="A" x="0" y="0" flags="0x204"/>
      <component glyphName="uni0302.cap" x="277" y="0" flags="0x4"/>
    </TTGlyph>
    <TTGlyph name="Acircumflex.sc" xMin="-2" yMin="0" xMax="489" yMax="708">
      <component glyphName="A.sc" x="0" y="0" flags="0x204"/>
      <component glyphName="uni0302.cap" x="241" y="-112" flags="0x4"/>
    </TTGlyph>
    <TTGlyph name="Adieresis" xMin="-2" yMin="0" xMax="560" yMax="827">
      <component glyphName="A" x="0" y="0" flags="0x204"/>
      <component glyphName="uni0308.cap" x="277" y="0" flags="0x4"/>
    </TTGlyph>
    <TTGlyph name="Adieresis.sc" xMin="-2" yMin="0" xMax="489" yMax="715">
      <component glyphName="A.sc" x="0" y="0" flags="0x204"/>
      <component glyphName="uni0308.cap" x="241" y="-112" flags="0x4"/>
    </TTGlyph>
    <TTGlyph name="Agrave" xMin="-2" yMin="0" xMax="560" yMax="820">
      <component glyphName="A" x="0" y="0" flags="0x204"/>
      <component glyphName="uni0300.cap" x="277" y="0" flags="0x4"/>
    </TTGlyph>
    <TTGlyph name="Agrave.sc" xMin="-2" yMin="0" xMax="489" yMax="708">
      <component glyphName="A.sc" x="0" y="0" flags="0x204"/>
      <component glyphName="uni0300.cap" x="241" y="-112" flags="0x4"/>
    </TTGlyph>
    <TTGlyph name="Amacron" xMin="-2" yMin="0" xMax="560" yMax="800">
      <component glyphName="A" x="0" y="0" flags="0x204"/>
      <component glyphName="uni0304.cap" x="277" y="0" flags="0x4"/>
    </TTGlyph>
    <TTGlyph name="Amacron.sc" xMin="-2" yMin="0" xMax="489" yMax="688">
      <component glyphName="A.sc" x="0" y="0" flags="0x204"/>
      <component glyphName="uni0304.cap" x="241" y="-112" flags="0x4"/>
    </TTGlyph>
    <TTGlyph name="Aogonek" xMin="-2" yMin="-218" xMax="586" yMax="654">
      <contour>
        <pt x="361" y="268" on="1"/>
        <pt x="338" y="348" on="1"/>
        <pt x="322" y="400" on="0"/>
        <pt x="293" y="510" on="0"/>
        <pt x="279" y="564" on="1"/>
        <pt x="275" y="564" on="1"/>
        <pt x="261" y="509" on="0"/>
        <pt x="233" y="400" on="0"/>
        <pt x="217" y="348" on="1"/>
        <pt x="194" y="268" on="1"/>
      </contour>
      <contour>
        <pt x="586" y="-186" on="1"/>
        <pt x="569" y="-200" on="0"/>
        <pt x="517" y="-218" on="0"/>
        <pt x="494" y="-218" on="1"/>
        <pt x="450" y="-218" on="0"/>
        <pt x="389" y="-172" on="0"/>
        <pt x="389" y="-127" on="1"/>
        <pt x="389" y="-105" on="0"/>
        <pt x="404" y="-66" on="0"/>
        <pt x="427" y="-33" on="0"/>
        <pt x="455" y="-8" on="0"/>
        <pt x="467" y="0" on="1"/>
        <pt x="438" y="0" on="1"/>
        <pt x="387" y="177" on="1"/>
        <pt x="167" y="177" on="1"/>
        <pt x="116" y="0" on="1"/>
        <pt x="-2" y="0" on="1"/>
        <pt x="211" y="654" on="1"/>
        <pt x="347" y="654" on="1"/>
        <pt x="560" y="0" on="1"/>
        <pt x="541" y="-5" on="0"/>
        <pt x="510" y="-25" on="0"/>
        <pt x="487" y="-52" on="0"/>
        <pt x="475" y="-83" on="0"/>
        <pt x="475" y="-98" on="1"/>
        <pt x="475" y="-119" on="0"/>
        <pt x="501" y="-140" on="0"/>
        <pt x="518" y="-140" on="1"/>
        <pt x="541" y="-140" on="0"/>
        <pt x="558" y="-126" on="1"/>
      </contour>
    </TTGlyph>
    <TTGlyph name="Aogonek.sc" xMin="-2" yMin="-218" xMax="515" yMax="523">
      <contour>
        <pt x="306" y="211" on="1"/>
        <pt x="289" y="268" on="1"/>
        <pt x="277" y="309" on="0"/>
        <pt x="255" y="394" on="0"/>
        <pt x="243" y="435" on="1"/>
        <pt x="239" y="435" on="1"/>
        <pt x="228" y="393" on="0"/>
        <pt x="206" y="309" on="0"/>
        <pt x="195" y="268" on="1"/>
        <pt x="178" y="211" on="1"/>
      </contour>
      <contour>
        <pt x="515" y="-186" on="1"/>
        <pt x="498" y="-200" on="0"/>
        <pt x="446" y="-218" on="0"/>
        <pt x="423" y="-218" on="1"/>
        <pt x="378" y="-218" on="0"/>
        <pt x="318" y="-172" on="0"/>
        <pt x="318" y="-127" on="1"/>
        <pt x="318" y="-105" on="0"/>
        <pt x="333" y="-66" on="0"/>
        <pt x="356" y="-33" on="0"/>
        <pt x="383" y="-8" on="0"/>
        <pt x="396" y="0" on="1"/>
        <pt x="368" y="0" on="1"/>
        <pt x="331" y="127" on="1"/>
        <pt x="153" y="127" on="1"/>
        <pt x="115" y="0" on="1"/>
        <pt x="-2" y="0" on="1"/>
        <pt x="176" y="523" on="1"/>
        <pt x="311" y="523" on="1"/>
        <pt x="489" y="0" on="1"/>
        <pt x="470" y="-5" on="0"/>
        <pt x="439" y="-25" on="0"/>
        <pt x="416" y="-52" on="0"/>
        <pt x="404" y="-83" on="0"/>
        <pt x="404" y="-98" on="1"/>
        <pt x="404" y="-119" on="0"/>
        <pt x="429" y="-140" on="0"/>
        <pt x="446" y="-140" on="1"/>
        <pt x="470" y="-140" on="0"/>
        <pt x="487" y="-126" on="1"/>
      </contour>
    </TTGlyph>
    <TTGlyph name="Aring" xMin="-2" yMin="0" xMax="560" yMax="884">
      <component glyphName="A" x="0" y="0" flags="0x204"/>
      <component glyphName="uni030A.cap" x="277" y="0" flags="0x4"/>
    </TTGlyph>
    <TTGlyph name="Aring.sc" xMin="-2" yMin="0" xMax="489" yMax="772">
      <component glyphName="A.sc" x="0" y="0" flags="0x204"/>
      <component glyphName="uni030A.cap" x="241" y="-112" flags="0x4"/>
    </TTGlyph>
    <TTGlyph name="Atilde" xMin="-2" yMin="0" xMax="560" yMax="829">
      <component glyphName="A" x="0" y="0" flags="0x204"/>
      <component glyphName="uni0303.cap" x="277" y="0" flags="0x4"/>
    </TTGlyph>
    <TTGlyph name="Atilde.sc" xMin="-2" yMin="0" xMax="489" yMax="717">
      <component glyphName="A.sc" x="0" y="0" flags="0x204"/>
      <component glyphName="uni0303.cap" x="241" y="-112" flags="0x4"/>
    </TTGlyph>
    <TTGlyph name="B" xMin="83" yMin="0" xMax="560" yMax="654">
      <contour>
        <pt x="83" y="654" on="1"/>
        <pt x="292" y="654" on="1"/>
        <pt x="343" y="654" on="0"/>
        <pt x="428" y="637" on="0"/>
        <pt x="491" y="600" on="0"/>
        <pt x="526" y="538" on="0"/>
        <pt x="526" y="493" on="1"/>
        <pt x="526" y="446" on="0"/>
        <pt x="471" y="366" on="0"/>
        <pt x="414" y="351" on="1"/>
        <pt x="414" y="347" on="1"/>
        <pt x="485" y="335" on="0"/>
        <pt x="560" y="258" on="0"/>
        <pt x="560" y="192" on="1"/>
        <pt x="560" y="143" on="0"/>
        <pt x="522" y="71" on="0"/>
        <pt x="455" y="23" on="0"/>
        <pt x="363" y="0" on="0"/>
        <pt x="309" y="0" on="1"/>
        <pt x="83" y="0" on="1"/>
      </contour>
      <contour>
        <pt x="282" y="383" on="1"/>
        <pt x="351" y="383" on="0"/>
        <pt x="412" y="433" on="0"/>
        <pt x="412" y="479" on="1"/>
        <pt x="412" y="524" on="0"/>
        <pt x="348" y="564" on="0"/>
        <pt x="284" y="564" on="1"/>
        <pt x="199" y="564" on="1"/>
        <pt x="199" y="383" on="1"/>
      </contour>
      <contour>
        <pt x="297" y="90" on="1"/>
        <pt x="369" y="90" on="0"/>
        <pt x="447" y="144" on="0"/>
        <pt x="447" y="200" on="1"/>
        <pt x="447" y="251" on="0"/>
        <pt x="371" y="300" on="0"/>
        <pt x="297" y="300" on="1"/>
        <pt x="199" y="300" on="1"/>
        <pt x="199" y="90" on="1"/>
      </contour>
    </TTGlyph>
    <TTGlyph name="B.sc" xMin="83" yMin="0" xMax="500" yMax="523">
      <contour>
        <pt x="83" y="523" on="1"/>
        <pt x="268" y="523" on="1"/>
        <pt x="311" y="523" on="0"/>
        <pt x="386" y="510" on="0"/>
        <pt x="441" y="480" on="0"/>
        <pt x="472" y="430" on="0"/>
        <pt x="472" y="393" on="1"/>
        <pt x="472" y="358" on="0"/>
        <pt x="428" y="293" on="0"/>
        <pt x="381" y="281" on="1"/>
        <pt x="381" y="277" on="1"/>
        <pt x="438" y="266" on="0"/>
        <pt x="500" y="206" on="0"/>
        <pt x="500" y="153" on="1"/>
        <pt x="500" y="113" on="0"/>
        <pt x="467" y="55" on="0"/>
        <pt x="408" y="18" on="0"/>
        <pt x="329" y="0" on="0"/>
        <pt x="283" y="0" on="1"/>
        <pt x="83" y="0" on="1"/>
      </contour>
      <contour>
        <pt x="265" y="308" on="1"/>
        <pt x="319" y="308" on="0"/>
        <pt x="366" y="345" on="0"/>
        <pt x="366" y="377" on="1"/>
        <pt x="366" y="410" on="0"/>
        <pt x="317" y="438" on="0"/>
        <pt x="266" y="438" on="1"/>
        <pt x="199" y="438" on="1"/>
        <pt x="199" y="308" on="1"/>
      </contour>
      <contour>
        <pt x="273" y="85" on="1"/>
        <pt x="328" y="85" on="0"/>
        <pt x="388" y="122" on="0"/>
        <pt x="388" y="162" on="1"/>
        <pt x="388" y="234" on="0"/>
        <pt x="273" y="234" on="1"/>
        <pt x="199" y="234" on="1"/>
        <pt x="199" y="85" on="1"/>
      </contour>
    </TTGlyph>
    <TTGlyph name="B.sups" xMin="53" yMin="264" xMax="377" yMax="696">
      <contour>
        <pt x="53" y="696" on="1"/>
        <pt x="197" y="696" on="1"/>
        <pt x="231" y="696" on="0"/>
        <pt x="288" y="685" on="0"/>
        <pt x="330" y="661" on="0"/>
        <pt x="354" y="620" on="0"/>
        <pt x="354" y="590" on="1"/>
        <pt x="354" y="560" on="0"/>
        <pt x="318" y="507" on="0"/>
        <pt x="280" y="496" on="1"/>
        <pt x="280" y="494" on="1"/>
        <pt x="377" y="477" on="0"/>
        <pt x="377" y="392" on="1"/>
        <pt x="377" y="359" on="0"/>
        <pt x="351" y="311" on="0"/>
        <pt x="306" y="280" on="0"/>
        <pt x="245" y="264" on="0"/>
        <pt x="209" y="264" on="1"/>
        <pt x="53" y="264" on="1"/>
      </contour>
      <contour>
        <pt x="190" y="519" on="1"/>
        <pt x="234" y="519" on="0"/>
        <pt x="273" y="550" on="0"/>
        <pt x="273" y="579" on="1"/>
        <pt x="273" y="632" on="0"/>
        <pt x="192" y="632" on="1"/>
        <pt x="137" y="632" on="1"/>
        <pt x="137" y="519" on="1"/>
      </contour>
      <contour>
        <pt x="200" y="328" on="1"/>
        <pt x="295" y="328" on="0"/>
        <pt x="295" y="397" on="1"/>
        <pt x="295" y="460" on="0"/>
        <pt x="200" y="460" on="1"/>
        <pt x="137" y="460" on="1"/>
        <pt x="137" y="328" on="1"/>
      </contour>
    </TTGlyph>
    <TTGlyph name="C" xMin="49" yMin="-12" xMax="550" yMax="666">
      <contour>
        <pt x="49" y="325" on="1"/>
        <pt x="49" y="405" on="0"/>
        <pt x="96" y="532" on="0"/>
        <pt x="178" y="620" on="0"/>
        <pt x="288" y="666" on="0"/>
        <pt x="351" y="666" on="1"/>
        <pt x="411" y="666" on="0"/>
        <pt x="506" y="616" on="0"/>
        <pt x="537" y="583" on="1"/>
        <pt x="472" y="511" on="1"/>
        <pt x="447" y="536" on="0"/>
        <pt x="390" y="565" on="0"/>
        <pt x="352" y="565" on="1"/>
        <pt x="311" y="565" on="0"/>
        <pt x="244" y="532" on="0"/>
        <pt x="195" y="471" on="0"/>
        <pt x="168" y="383" on="0"/>
        <pt x="168" y="328" on="1"/>
        <pt x="168" y="216" on="0"/>
        <pt x="265" y="89" on="0"/>
        <pt x="348" y="89" on="1"/>
        <pt x="392" y="89" on="0"/>
        <pt x="457" y="123" on="0"/>
        <pt x="485" y="154" on="1"/>
        <pt x="550" y="83" on="1"/>
        <pt x="510" y="37" on="0"/>
        <pt x="408" y="-12" on="0"/>
        <pt x="346" y="-12" on="1"/>
        <pt x="283" y="-12" on="0"/>
        <pt x="175" y="32" on="0"/>
        <pt x="95" y="118" on="0"/>
        <pt x="49" y="244" on="0"/>
      </contour>
    </TTGlyph>
    <TTGlyph name="C.sc" xMin="49" yMin="-12" xMax="485" yMax="535">
      <contour>
        <pt x="49" y="259" on="1"/>
        <pt x="49" y="324" on="0"/>
        <pt x="91" y="427" on="0"/>
        <pt x="163" y="498" on="0"/>
        <pt x="259" y="535" on="0"/>
        <pt x="313" y="535" on="1"/>
        <pt x="364" y="535" on="0"/>
        <pt x="448" y="495" on="0"/>
        <pt x="476" y="467" on="1"/>
        <pt x="413" y="397" on="1"/>
        <pt x="391" y="417" on="0"/>
        <pt x="345" y="439" on="0"/>
        <pt x="314" y="439" on="1"/>
        <pt x="250" y="439" on="0"/>
        <pt x="167" y="346" on="0"/>
        <pt x="167" y="263" on="1"/>
        <pt x="167" y="176" on="0"/>
        <pt x="244" y="84" on="0"/>
        <pt x="310" y="84" on="1"/>
        <pt x="346" y="84" on="0"/>
        <pt x="400" y="110" on="0"/>
        <pt x="422" y="132" on="1"/>
        <pt x="485" y="64" on="1"/>
        <pt x="415" y="-12" on="0"/>
        <pt x="305" y="-12" on="1"/>
        <pt x="252" y="-12" on="0"/>
        <pt x="158" y="23" on="0"/>
        <pt x="89" y="91" on="0"/>
        <pt x="49" y="192" on="0"/>
      </contour>
    </TTGlyph>
    <TTGlyph name="C.sups" xMin="31" yMin="256" xMax="369" yMax="704">
      <contour>
        <pt x="31" y="477" on="1"/>
        <pt x="31" y="530" on="0"/>
        <pt x="63" y="614" on="0"/>
        <pt x="119" y="673" on="0"/>
        <pt x="193" y="704" on="0"/>
        <pt x="235" y="704" on="1"/>
        <pt x="276" y="704" on="0"/>
        <pt x="341" y="671" on="0"/>
        <pt x="361" y="648" on="1"/>
        <pt x="315" y="597" on="1"/>
        <pt x="298" y="613" on="0"/>
        <pt x="260" y="632" on="0"/>
        <pt x="236" y="632" on="1"/>
        <pt x="184" y="632" on="0"/>
        <pt x="117" y="550" on="0"/>
        <pt x="117" y="480" on="1"/>
        <pt x="117" y="408" on="0"/>
        <pt x="179" y="328" on="0"/>
        <pt x="233" y="328" on="1"/>
        <pt x="262" y="328" on="0"/>
        <pt x="305" y="350" on="0"/>
        <pt x="323" y="370" on="1"/>
        <pt x="369" y="320" on="1"/>
        <pt x="314" y="256" on="0"/>
        <pt x="229" y="256" on="1"/>
        <pt x="187" y="256" on="0"/>
        <pt x="115" y="285" on="0"/>
        <pt x="62" y="341" on="0"/>
        <pt x="31" y="424" on="0"/>
      </contour>
    </TTGlyph>
    <TTGlyph name="Cacute" xMin="49" yMin="-12" xMax="550" yMax="820">
      <component glyphName="C" x="0" y="0" flags="0x204"/>
      <component glyphName="uni0301.cap" x="337" y="0" flags="0x4"/>
    </TTGlyph>
    <TTGlyph name="Cacute.sc" xMin="49" yMin="-12" xMax="485" yMax="708">
      <component glyphName="C.sc" x="0" y="0" flags="0x204"/>
      <component glyphName="uni0301.cap" x="301" y="-112" flags="0x4"/>
    </TTGlyph>
    <TTGlyph name="Ccaron" xMin="49" yMin="-12" xMax="550" yMax="820">
      <component glyphName="C" x="0" y="0" flags="0x204"/>
      <component glyphName="uni030C.cap" x="337" y="0" flags="0x4"/>
    </TTGlyph>
    <TTGlyph name="Ccaron.sc" xMin="49" yMin="-12" xMax="485" yMax="708">
      <component glyphName="C.sc" x="0" y="0" flags="0x204"/>
      <component glyphName="uni030C.cap" x="301" y="-112" flags="0x4"/>
    </TTGlyph>
    <TTGlyph name="Ccedilla" xMin="49" yMin="-217" xMax="550" yMax="666">
      <component glyphName="C" x="0" y="0" flags="0x204"/>
      <component glyphName="uni0327.cap" x="346" y="0" flags="0x4"/>
    </TTGlyph>
    <TTGlyph name="Ccedilla.sc" xMin="49" yMin="-217" xMax="485" yMax="535">
      <component glyphName="C.sc" x="0" y="0" flags="0x204"/>
      <component glyphName="uni0327.cap" x="301" y="0" flags="0x4"/>
    </TTGlyph>
    <TTGlyph name="Ccircumflex" xMin="49" yMin="-12" xMax="550" yMax="820">
      <component glyphName="C" x="0" y="0" flags="0x204"/>
      <component glyphName="uni0302.cap" x="337" y="0" flags="0x4"/>
    </TTGlyph>
    <TTGlyph name="Ccircumflex.sc" xMin="49" yMin="-12" xMax="485" yMax="708">
      <component glyphName="C.sc" x="0" y="0" flags="0x204"/>
      <component glyphName="uni0302.cap" x="301" y="-112" flags="0x4"/>
    </TTGlyph>
    <TTGlyph name="Cdotaccent" xMin="49" yMin="-12" xMax="550" yMax="838">
      <component glyphName="C" x="0" y="0" flags="0x204"/>
      <component glyphName="uni0307.cap" x="337" y="0" flags="0x4"/>
    </TTGlyph>
    <TTGlyph name="Cdotaccent.sc" xMin="49" yMin="-12" xMax="485" yMax="726">
      <component glyphName="C.sc" x="0" y="0" flags="0x204"/>
      <component glyphName="uni0307.cap" x="301" y="-112" flags="0x4"/>
    </TTGlyph>
    <TTGlyph name="D" xMin="83" yMin="0" xMax="576" yMax="654">
      <contour>
        <pt x="83" y="654" on="1"/>
        <pt x="258" y="654" on="1"/>
        <pt x="408" y="654" on="0"/>
        <pt x="576" y="492" on="0"/>
        <pt x="576" y="330" on="1"/>
        <pt x="576" y="249" on="0"/>
        <pt x="533" y="125" on="0"/>
        <pt x="452" y="42" on="0"/>
        <pt x="337" y="0" on="0"/>
        <pt x="264" y="0" on="1"/>
        <pt x="83" y="0" on="1"/>
      </contour>
      <contour>
        <pt x="250" y="94" on="1"/>
        <pt x="350" y="94" on="0"/>
        <pt x="457" y="209" on="0"/>
        <pt x="457" y="330" on="1"/>
        <pt x="457" y="450" on="0"/>
        <pt x="349" y="560" on="0"/>
        <pt x="250" y="560" on="1"/>
        <pt x="199" y="560" on="1"/>
        <pt x="199" y="94" on="1"/>
      </contour>
    </TTGlyph>
    <TTGlyph name="D.sc" xMin="83" yMin="0" xMax="519" yMax="523">
      <contour>
        <pt x="83" y="523" on="1"/>
        <pt x="238" y="523" on="1"/>
        <pt x="302" y="523" on="0"/>
        <pt x="405" y="493" on="0"/>
        <pt x="479" y="429" on="0"/>
        <pt x="519" y="331" on="0"/>
        <pt x="519" y="264" on="1"/>
        <pt x="519" y="196" on="0"/>
        <pt x="479" y="97" on="0"/>
        <pt x="407" y="32" on="0"/>
        <pt x="306" y="0" on="0"/>
        <pt x="245" y="0" on="1"/>
        <pt x="83" y="0" on="1"/>
      </contour>
      <contour>
        <pt x="243" y="90" on="1"/>
        <pt x="321" y="90" on="0"/>
        <pt x="400" y="175" on="0"/>
        <pt x="400" y="264" on="1"/>
        <pt x="400" y="433" on="0"/>
        <pt x="243" y="433" on="1"/>
        <pt x="199" y="433" on="1"/>
        <pt x="199" y="90" on="1"/>
      </contour>
    </TTGlyph>
    <TTGlyph name="D.sups" xMin="53" yMin="264" xMax="388" yMax="696">
      <contour>
        <pt x="53" y="696" on="1"/>
        <pt x="172" y="696" on="1"/>
        <pt x="274" y="696" on="0"/>
        <pt x="388" y="591" on="0"/>
        <pt x="388" y="483" on="1"/>
        <pt x="388" y="374" on="0"/>
        <pt x="275" y="264" on="0"/>
        <pt x="176" y="264" on="1"/>
        <pt x="53" y="264" on="1"/>
      </contour>
      <contour>
        <pt x="170" y="331" on="1"/>
        <pt x="233" y="331" on="0"/>
        <pt x="301" y="403" on="0"/>
        <pt x="301" y="482" on="1"/>
        <pt x="301" y="562" on="0"/>
        <pt x="232" y="629" on="0"/>
        <pt x="169" y="629" on="1"/>
        <pt x="137" y="629" on="1"/>
        <pt x="137" y="331" on="1"/>
      </contour>
    </TTGlyph>
    <TTGlyph name="Dcaron" xMin="83" yMin="0" xMax="576" yMax="820">
      <component glyphName="D" x="0" y="0" flags="0x204"/>
      <component glyphName="uni030C.cap" x="313" y="0" flags="0x4"/>
    </TTGlyph>
    <TTGlyph name="Dcaron.sc" xMin="83" yMin="0" xMax="519" yMax="708">
      <component glyphName="D.sc" x="0" y="0" flags="0x4"/>
      <component glyphName="uni030C.cap" x="290" y="-112" flags="0x4"/>
    </TTGlyph>
    <TTGlyph name="Dcroat" xMin="30" yMin="0" xMax="600" yMax="654">
      <component glyphName="Eth" x="0" y="0" flags="0x204"/>
    </TTGlyph>
    <TTGlyph name="Dcroat.sc" xMin="30" yMin="0" xMax="541" yMax="523">
      <component glyphName="Eth.sc" x="0" y="0" flags="0x204"/>
    </TTGlyph>
    <TTGlyph name="E" xMin="83" yMin="0" xMax="487" yMax="654">
      <contour>
        <pt x="83" y="654" on="1"/>
        <pt x="477" y="654" on="1"/>
        <pt x="477" y="556" on="1"/>
        <pt x="199" y="556" on="1"/>
        <pt x="199" y="389" on="1"/>
        <pt x="434" y="389" on="1"/>
        <pt x="434" y="291" on="1"/>
        <pt x="199" y="291" on="1"/>
        <pt x="199" y="98" on="1"/>
        <pt x="487" y="98" on="1"/>
        <pt x="487" y="0" on="1"/>
        <pt x="83" y="0" on="1"/>
      </contour>
    </TTGlyph>
    <TTGlyph name="E.sc" xMin="83" yMin="0" xMax="436" yMax="523">
      <contour>
        <pt x="83" y="523" on="1"/>
        <pt x="426" y="523" on="1"/>
        <pt x="426" y="433" on="1"/>
        <pt x="199" y="433" on="1"/>
        <pt x="199" y="312" on="1"/>
        <pt x="393" y="312" on="1"/>
        <pt x="393" y="227" on="1"/>
        <pt x="199" y="227" on="1"/>
        <pt x="199" y="90" on="1"/>
        <pt x="436" y="90" on="1"/>
        <pt x="436" y="0" on="1"/>
        <pt x="83" y="0" on="1"/>
      </contour>
    </TTGlyph>
    <TTGlyph name="E.sups" xMin="53" yMin="264" xMax="327" yMax="696">
      <contour>
        <pt x="53" y="696" on="1"/>
        <pt x="321" y="696" on="1"/>
        <pt x="321" y="627" on="1"/>
        <pt x="137" y="627" on="1"/>
        <pt x="137" y="523" on="1"/>
        <pt x="293" y="523" on="1"/>
        <pt x="293" y="454" on="1"/>
        <pt x="137" y="454" on="1"/>
        <pt x="137" y="333" on="1"/>
        <pt x="327" y="333" on="1"/>
        <pt x="327" y="264" on="1"/>
        <pt x="53" y="264" on="1"/>
      </contour>
    </TTGlyph>
    <TTGlyph name="Eacute" xMin="83" yMin="0" xMax="487" yMax="820">
      <component glyphName="E" x="0" y="0" flags="0x204"/>
      <component glyphName="uni0301.cap" x="287" y="0" flags="0x4"/>
    </TTGlyph>
    <TTGlyph name="Eacute.sc" xMin="83" yMin="0" xMax="436" yMax="708">
      <component glyphName="E.sc" x="0" y="0" flags="0x204"/>
      <component glyphName="uni0301.cap" x="266" y="-112" flags="0x4"/>
    </TTGlyph>
    <TTGlyph name="Ebreve" xMin="83" yMin="0" xMax="487" yMax="820">
      <component glyphName="E" x="0" y="0" flags="0x204"/>
      <component glyphName="uni0306.cap" x="287" y="0" flags="0x4"/>
    </TTGlyph>
    <TTGlyph name="Ebreve.sc" xMin="83" yMin="0" xMax="436" yMax="708">
      <component glyphName="E.sc" x="0" y="0" flags="0x204"/>
      <component glyphName="uni0306.cap" x="266" y="-112" flags="0x4"/>
    </TTGlyph>
    <TTGlyph name="Ecaron" xMin="83" yMin="0" xMax="487" yMax="820">
      <component glyphName="E" x="0" y="0" flags="0x204"/>
      <component glyphName="uni030C.cap" x="287" y="0" flags="0x4"/>
    </TTGlyph>
    <TTGlyph name="Ecaron.sc" xMin="83" yMin="0" xMax="436" yMax="708">
      <component glyphName="E.sc" x="0" y="0" flags="0x204"/>
      <component glyphName="uni030C.cap" x="266" y="-112" flags="0x4"/>
    </TTGlyph>
    <TTGlyph name="Ecircumflex" xMin="83" yMin="0" xMax="487" yMax="820">
      <component glyphName="E" x="0" y="0" flags="0x204"/>
      <component glyphName="uni0302.cap" x="287" y="0" flags="0x4"/>
    </TTGlyph>
    <TTGlyph name="Ecircumflex.sc" xMin="83" yMin="0" xMax="436" yMax="708">
      <component glyphName="E.sc" x="0" y="0" flags="0x204"/>
      <component glyphName="uni0302.cap" x="266" y="-112" flags="0x4"/>
    </TTGlyph>
    <TTGlyph name="Edieresis" xMin="83" yMin="0" xMax="487" yMax="827">
      <component glyphName="E" x="0" y="0" flags="0x204"/>
      <component glyphName="uni0308.cap" x="287" y="0" flags="0x4"/>
    </TTGlyph>
    <TTGlyph name="Edieresis.sc" xMin="83" yMin="0" xMax="436" yMax="715">
      <component glyphName="E.sc" x="0" y="0" flags="0x204"/>
      <component glyphName="uni0308.cap" x="266" y="-112" flags="0x4"/>
    </TTGlyph>
    <TTGlyph name="Edotaccent" xMin="83" yMin="0" xMax="487" yMax="838">
      <component glyphName="E" x="0" y="0" flags="0x204"/>
      <component glyphName="uni0307.cap" x="287" y="0" flags="0x4"/>
    </TTGlyph>
    <TTGlyph name="Edotaccent.sc" xMin="83" yMin="0" xMax="436" yMax="726">
      <component glyphName="E.sc" x="0" y="0" flags="0x204"/>
      <component glyphName="uni0307.cap" x="266" y="-112" flags="0x4"/>
    </TTGlyph>
    <TTGlyph name="Egrave" xMin="83" yMin="0" xMax="487" yMax="820">
      <component glyphName="E" x="0" y="0" flags="0x204"/>
      <component glyphName="uni0300.cap" x="287" y="0" flags="0x4"/>
    </TTGlyph>
    <TTGlyph name="Egrave.sc" xMin="83" yMin="0" xMax="436" yMax="708">
      <component glyphName="E.sc" x="0" y="0" flags="0x204"/>
      <component glyphName="uni0300.cap" x="266" y="-112" flags="0x4"/>
    </TTGlyph>
    <TTGlyph name="Emacron" xMin="83" yMin="0" xMax="487" yMax="800">
      <component glyphName="E" x="0" y="0" flags="0x204"/>
      <component glyphName="uni0304.cap" x="287" y="0" flags="0x4"/>
    </TTGlyph>
    <TTGlyph name="Emacron.sc" xMin="83" yMin="0" xMax="436" yMax="688">
      <component glyphName="E.sc" x="0" y="0" flags="0x204"/>
      <component glyphName="uni0304.cap" x="266" y="-112" flags="0x4"/>
    </TTGlyph>
    <TTGlyph name="Eogonek" xMin="83" yMin="-218" xMax="505" yMax="654">
      <contour>
        <pt x="83" y="654" on="1"/>
        <pt x="477" y="654" on="1"/>
        <pt x="477" y="556" on="1"/>
        <pt x="199" y="556" on="1"/>
        <pt x="199" y="389" on="1"/>
        <pt x="434" y="389" on="1"/>
        <pt x="434" y="291" on="1"/>
        <pt x="199" y="291" on="1"/>
        <pt x="199" y="98" on="1"/>
        <pt x="487" y="98" on="1"/>
        <pt x="487" y="0" on="1"/>
        <pt x="482" y="0" on="1"/>
        <pt x="465" y="-2" on="0"/>
        <pt x="433" y="-19" on="0"/>
        <pt x="409" y="-46" on="0"/>
        <pt x="394" y="-80" on="0"/>
        <pt x="394" y="-98" on="1"/>
        <pt x="394" y="-120" on="0"/>
        <pt x="421" y="-140" on="0"/>
        <pt x="438" y="-140" on="1"/>
        <pt x="449" y="-140" on="0"/>
        <pt x="468" y="-132" on="0"/>
        <pt x="476" y="-126" on="1"/>
        <pt x="505" y="-186" on="1"/>
        <pt x="488" y="-200" on="0"/>
        <pt x="435" y="-218" on="0"/>
        <pt x="412" y="-218" on="1"/>
        <pt x="368" y="-218" on="0"/>
        <pt x="307" y="-172" on="0"/>
        <pt x="307" y="-127" on="1"/>
        <pt x="307" y="-105" on="0"/>
        <pt x="321" y="-66" on="0"/>
        <pt x="343" y="-34" on="0"/>
        <pt x="370" y="-8" on="0"/>
        <pt x="384" y="0" on="1"/>
        <pt x="83" y="0" on="1"/>
      </contour>
    </TTGlyph>
    <TTGlyph name="Eogonek.sc" xMin="83" yMin="-218" xMax="454" yMax="523">
      <contour>
        <pt x="83" y="523" on="1"/>
        <pt x="426" y="523" on="1"/>
        <pt x="426" y="433" on="1"/>
        <pt x="199" y="433" on="1"/>
        <pt x="199" y="312" on="1"/>
        <pt x="393" y="312" on="1"/>
        <pt x="393" y="227" on="1"/>
        <pt x="199" y="227" on="1"/>
        <pt x="199" y="90" on="1"/>
        <pt x="436" y="90" on="1"/>
        <pt x="436" y="0" on="1"/>
        <pt x="432" y="0" on="1"/>
        <pt x="415" y="-2" on="0"/>
        <pt x="383" y="-19" on="0"/>
        <pt x="358" y="-46" on="0"/>
        <pt x="343" y="-80" on="0"/>
        <pt x="343" y="-98" on="1"/>
        <pt x="343" y="-120" on="0"/>
        <pt x="371" y="-140" on="0"/>
        <pt x="388" y="-140" on="1"/>
        <pt x="399" y="-140" on="0"/>
        <pt x="418" y="-132" on="0"/>
        <pt x="426" y="-126" on="1"/>
        <pt x="454" y="-186" on="1"/>
        <pt x="437" y="-200" on="0"/>
        <pt x="385" y="-218" on="0"/>
        <pt x="362" y="-218" on="1"/>
        <pt x="318" y="-218" on="0"/>
        <pt x="257" y="-172" on="0"/>
        <pt x="257" y="-127" on="1"/>
        <pt x="257" y="-105" on="0"/>
        <pt x="271" y="-66" on="0"/>
        <pt x="293" y="-34" on="0"/>
        <pt x="320" y="-8" on="0"/>
        <pt x="334" y="0" on="1"/>
        <pt x="83" y="0" on="1"/>
      </contour>
    </TTGlyph>
    <TTGlyph name="Eth" xMin="30" yMin="0" xMax="600" yMax="654">
      <contour>
        <pt x="274" y="94" on="1"/>
        <pt x="373" y="94" on="0"/>
        <pt x="481" y="209" on="0"/>
        <pt x="481" y="330" on="1"/>
        <pt x="481" y="450" on="0"/>
        <pt x="372" y="560" on="0"/>
        <pt x="274" y="560" on="1"/>
        <pt x="223" y="560" on="1"/>
        <pt x="223" y="370" on="1"/>
        <pt x="360" y="370" on="1"/>
        <pt x="360" y="311" on="1"/>
        <pt x="223" y="311" on="1"/>
        <pt x="223" y="94" on="1"/>
      </contour>
      <contour>
        <pt x="281" y="654" on="1"/>
        <pt x="432" y="654" on="0"/>
        <pt x="600" y="492" on="0"/>
        <pt x="600" y="330" on="1"/>
        <pt x="600" y="249" on="0"/>
        <pt x="557" y="125" on="0"/>
        <pt x="476" y="42" on="0"/>
        <pt x="360" y="0" on="0"/>
        <pt x="287" y="0" on="1"/>
        <pt x="107" y="0" on="1"/>
        <pt x="107" y="311" on="1"/>
        <pt x="30" y="311" on="1"/>
        <pt x="30" y="366" on="1"/>
        <pt x="107" y="370" on="1"/>
        <pt x="107" y="654" on="1"/>
      </contour>
    </TTGlyph>
    <TTGlyph name="Eth.sc" xMin="30" yMin="0" xMax="541" yMax="523">
      <contour>
        <pt x="265" y="90" on="1"/>
        <pt x="343" y="90" on="0"/>
        <pt x="422" y="175" on="0"/>
        <pt x="422" y="264" on="1"/>
        <pt x="422" y="433" on="0"/>
        <pt x="265" y="433" on="1"/>
        <pt x="221" y="433" on="1"/>
        <pt x="221" y="300" on="1"/>
        <pt x="331" y="300" on="1"/>
        <pt x="331" y="241" on="1"/>
        <pt x="221" y="241" on="1"/>
        <pt x="221" y="90" on="1"/>
      </contour>
      <contour>
        <pt x="260" y="523" on="1"/>
        <pt x="324" y="523" on="0"/>
        <pt x="427" y="493" on="0"/>
        <pt x="501" y="429" on="0"/>
        <pt x="541" y="331" on="0"/>
        <pt x="541" y="264" on="1"/>
        <pt x="541" y="196" on="0"/>
        <pt x="501" y="97" on="0"/>
        <pt x="429" y="32" on="0"/>
        <pt x="328" y="0" on="0"/>
        <pt x="267" y="0" on="1"/>
        <pt x="105" y="0" on="1"/>
        <pt x="105" y="241" on="1"/>
        <pt x="30" y="241" on="1"/>
        <pt x="30" y="296" on="1"/>
        <pt x="105" y="300" on="1"/>
        <pt x="105" y="523" on="1"/>
      </contour>
    </TTGlyph>
    <TTGlyph name="Euro" xMin="22" yMin="-12" xMax="505" yMax="648">
      <contour>
        <pt x="505" y="81" on="1"/>
        <pt x="470" y="36" on="0"/>
        <pt x="383" y="-12" on="0"/>
        <pt x="328" y="-12" on="1"/>
        <pt x="236" y="-12" on="0"/>
        <pt x="105" y="110" on="0"/>
        <pt x="85" y="225" on="1"/>
        <pt x="22" y="225" on="1"/>
        <pt x="22" y="281" on="1"/>
        <pt x="79" y="285" on="1"/>
        <pt x="78" y="293" on="0"/>
        <pt x="78" y="308" on="0"/>
        <pt x="78" y="316" on="1"/>
        <pt x="78" y="324" on="0"/>
        <pt x="78" y="338" on="0"/>
        <pt x="79" y="345" on="1"/>
        <pt x="22" y="345" on="1"/>
        <pt x="22" y="401" on="1"/>
        <pt x="85" y="405" on="1"/>
        <pt x="95" y="463" on="0"/>
        <pt x="140" y="553" on="0"/>
        <pt x="206" y="615" on="0"/>
        <pt x="290" y="648" on="0"/>
        <pt x="340" y="648" on="1"/>
        <pt x="385" y="648" on="0"/>
        <pt x="467" y="606" on="0"/>
        <pt x="496" y="570" on="1"/>
        <pt x="431" y="507" on="1"/>
        <pt x="411" y="530" on="0"/>
        <pt x="366" y="558" on="0"/>
        <pt x="337" y="558" on="1"/>
        <pt x="283" y="558" on="0"/>
        <pt x="213" y="478" on="0"/>
        <pt x="201" y="406" on="1"/>
        <pt x="435" y="406" on="1"/>
        <pt x="435" y="345" on="1"/>
        <pt x="195" y="345" on="1"/>
        <pt x="194" y="339" on="0"/>
        <pt x="194" y="327" on="0"/>
        <pt x="194" y="320" on="1"/>
        <pt x="194" y="311" on="0"/>
        <pt x="194" y="294" on="0"/>
        <pt x="195" y="286" on="1"/>
        <pt x="395" y="286" on="1"/>
        <pt x="395" y="225" on="1"/>
        <pt x="202" y="225" on="1"/>
        <pt x="216" y="155" on="0"/>
        <pt x="284" y="78" on="0"/>
        <pt x="335" y="78" on="1"/>
        <pt x="367" y="78" on="0"/>
        <pt x="417" y="110" on="0"/>
        <pt x="440" y="141" on="1"/>
      </contour>
    </TTGlyph>
    <TTGlyph name="F" xMin="83" yMin="0" xMax="478" yMax="654">
      <contour>
        <pt x="83" y="654" on="1"/>
        <pt x="478" y="654" on="1"/>
        <pt x="478" y="556" on="1"/>
        <pt x="199" y="556" on="1"/>
        <pt x="199" y="371" on="1"/>
        <pt x="437" y="371" on="1"/>
        <pt x="437" y="273" on="1"/>
        <pt x="199" y="273" on="1"/>
        <pt x="199" y="0" on="1"/>
        <pt x="83" y="0" on="1"/>
      </contour>
    </TTGlyph>
    <TTGlyph name="F.sc" xMin="83" yMin="0" xMax="428" yMax="523">
      <contour>
        <pt x="83" y="523" on="1"/>
        <pt x="428" y="523" on="1"/>
        <pt x="428" y="428" on="1"/>
        <pt x="199" y="428" on="1"/>
        <pt x="199" y="295" on="1"/>
        <pt x="395" y="295" on="1"/>
        <pt x="395" y="207" on="1"/>
        <pt x="199" y="207" on="1"/>
        <pt x="199" y="0" on="1"/>
        <pt x="83" y="0" on="1"/>
      </contour>
    </TTGlyph>
    <TTGlyph name="F.sups" xMin="53" yMin="264" xMax="322" yMax="696">
      <contour>
        <pt x="53" y="696" on="1"/>
        <pt x="322" y="696" on="1"/>
        <pt x="322" y="627" on="1"/>
        <pt x="137" y="627" on="1"/>
        <pt x="137" y="510" on="1"/>
        <pt x="295" y="510" on="1"/>
        <pt x="295" y="441" on="1"/>
        <pt x="137" y="441" on="1"/>
        <pt x="137" y="264" on="1"/>
        <pt x="53" y="264" on="1"/>
      </contour>
    </TTGlyph>
    <TTGlyph name="G" xMin="49" yMin="-12" xMax="566" yMax="666">
      <contour>
        <pt x="49" y="325" on="1"/>
        <pt x="49" y="405" on="0"/>
        <pt x="97" y="532" on="0"/>
        <pt x="181" y="620" on="0"/>
        <pt x="295" y="666" on="0"/>
        <pt x="361" y="666" on="1"/>
        <pt x="395" y="666" on="0"/>
        <pt x="453" y="652" on="0"/>
        <pt x="501" y="629" on="0"/>
        <pt x="541" y="599" on="0"/>
        <pt x="556" y="583" on="1"/>
        <pt x="492" y="511" on="1"/>
        <pt x="467" y="535" on="0"/>
        <pt x="408" y="565" on="0"/>
        <pt x="362" y="565" on="1"/>
        <pt x="318" y="565" on="0"/>
        <pt x="247" y="532" on="0"/>
        <pt x="196" y="471" on="0"/>
        <pt x="168" y="383" on="0"/>
        <pt x="168" y="328" on="1"/>
        <pt x="168" y="216" on="0"/>
        <pt x="269" y="89" on="0"/>
        <pt x="368" y="89" on="1"/>
        <pt x="396" y="89" on="0"/>
        <pt x="446" y="104" on="0"/>
        <pt x="462" y="118" on="1"/>
        <pt x="462" y="259" on="1"/>
        <pt x="338" y="259" on="1"/>
        <pt x="338" y="354" on="1"/>
        <pt x="566" y="354" on="1"/>
        <pt x="566" y="66" on="1"/>
        <pt x="532" y="33" on="0"/>
        <pt x="422" y="-12" on="0"/>
        <pt x="354" y="-12" on="1"/>
        <pt x="289" y="-12" on="0"/>
        <pt x="177" y="32" on="0"/>
        <pt x="95" y="118" on="0"/>
        <pt x="49" y="244" on="0"/>
      </contour>
    </TTGlyph>
    <TTGlyph name="G.sc" xMin="49" yMin="-12" xMax="501" yMax="535">
      <contour>
        <pt x="49" y="259" on="1"/>
        <pt x="49" y="324" on="0"/>
        <pt x="91" y="427" on="0"/>
        <pt x="165" y="498" on="0"/>
        <pt x="264" y="535" on="0"/>
        <pt x="321" y="535" on="1"/>
        <pt x="380" y="535" on="0"/>
        <pt x="463" y="493" on="0"/>
        <pt x="491" y="467" on="1"/>
        <pt x="428" y="398" on="1"/>
        <pt x="407" y="418" on="0"/>
        <pt x="358" y="440" on="0"/>
        <pt x="322" y="440" on="1"/>
        <pt x="253" y="440" on="0"/>
        <pt x="167" y="346" on="0"/>
        <pt x="167" y="259" on="1"/>
        <pt x="167" y="177" on="0"/>
        <pt x="246" y="82" on="0"/>
        <pt x="326" y="82" on="1"/>
        <pt x="372" y="82" on="0"/>
        <pt x="398" y="102" on="1"/>
        <pt x="398" y="207" on="1"/>
        <pt x="300" y="207" on="1"/>
        <pt x="300" y="289" on="1"/>
        <pt x="501" y="289" on="1"/>
        <pt x="501" y="50" on="1"/>
        <pt x="471" y="23" on="0"/>
        <pt x="374" y="-12" on="0"/>
        <pt x="317" y="-12" on="1"/>
        <pt x="260" y="-12" on="0"/>
        <pt x="162" y="23" on="0"/>
        <pt x="90" y="91" on="0"/>
        <pt x="49" y="192" on="0"/>
      </contour>
    </TTGlyph>
    <TTGlyph name="G.sups" xMin="31" yMin="256" xMax="382" yMax="704">
      <contour>
        <pt x="31" y="479" on="1"/>
        <pt x="31" y="532" on="0"/>
        <pt x="63" y="615" on="0"/>
        <pt x="120" y="673" on="0"/>
        <pt x="197" y="704" on="0"/>
        <pt x="242" y="704" on="1"/>
        <pt x="288" y="704" on="0"/>
        <pt x="352" y="671" on="0"/>
        <pt x="375" y="651" on="1"/>
        <pt x="328" y="597" on="1"/>
        <pt x="311" y="613" on="0"/>
        <pt x="273" y="632" on="0"/>
        <pt x="242" y="632" on="1"/>
        <pt x="186" y="632" on="0"/>
        <pt x="117" y="552" on="0"/>
        <pt x="117" y="481" on="1"/>
        <pt x="117" y="409" on="0"/>
        <pt x="183" y="328" on="0"/>
        <pt x="247" y="328" on="1"/>
        <pt x="265" y="328" on="0"/>
        <pt x="297" y="337" on="0"/>
        <pt x="306" y="345" on="1"/>
        <pt x="306" y="433" on="1"/>
        <pt x="227" y="433" on="1"/>
        <pt x="227" y="501" on="1"/>
        <pt x="382" y="501" on="1"/>
        <pt x="382" y="308" on="1"/>
        <pt x="358" y="287" on="0"/>
        <pt x="284" y="256" on="0"/>
        <pt x="239" y="256" on="1"/>
        <pt x="195" y="256" on="0"/>
        <pt x="119" y="285" on="0"/>
        <pt x="63" y="342" on="0"/>
        <pt x="31" y="425" on="0"/>
      </contour>
    </TTGlyph>
    <TTGlyph name="Gbreve" xMin="49" yMin="-12" xMax="566" yMax="820">
      <component glyphName="G" x="0" y="0" flags="0x204"/>
      <component glyphName="uni0306.cap" x="361" y="0" flags="0x4"/>
    </TTGlyph>
    <TTGlyph name="Gbreve.sc" xMin="49" yMin="-12" xMax="501" yMax="708">
      <component glyphName="G.sc" x="0" y="0" flags="0x204"/>
      <component glyphName="uni0306.cap" x="314" y="-112" flags="0x4"/>
    </TTGlyph>
    <TTGlyph name="Gcaron" xMin="49" yMin="-12" xMax="566" yMax="820">
      <component glyphName="G" x="0" y="0" flags="0x204"/>
      <component glyphName="uni030C.cap" x="361" y="0" flags="0x4"/>
    </TTGlyph>
    <TTGlyph name="Gcaron.sc" xMin="49" yMin="-12" xMax="501" yMax="708">
      <component glyphName="G.sc" x="0" y="0" flags="0x204"/>
      <component glyphName="uni030C.cap" x="314" y="-112" flags="0x4"/>
    </TTGlyph>
    <TTGlyph name="Gcircumflex" xMin="49" yMin="-12" xMax="566" yMax="820">
      <component glyphName="G" x="0" y="0" flags="0x204"/>
      <component glyphName="uni0302.cap" x="361" y="0" flags="0x4"/>
    </TTGlyph>
    <TTGlyph name="Gcircumflex.sc" xMin="49" yMin="-12" xMax="501" yMax="708">
      <component glyphName="G.sc" x="0" y="0" flags="0x204"/>
      <component glyphName="uni0302.cap" x="314" y="-112" flags="0x4"/>
    </TTGlyph>
    <TTGlyph name="Gdotaccent" xMin="49" yMin="-12" xMax="566" yMax="838">
      <component glyphName="G" x="0" y="0" flags="0x204"/>
      <component glyphName="uni0307.cap" x="361" y="0" flags="0x4"/>
    </TTGlyph>
    <TTGlyph name="Gdotaccent.sc" xMin="49" yMin="-12" xMax="501" yMax="726">
      <component glyphName="G.sc" x="0" y="0" flags="0x204"/>
      <component glyphName="uni0307.cap" x="314" y="-112" flags="0x4"/>
    </TTGlyph>
    <TTGlyph name="H" xMin="83" yMin="0" xMax="580" yMax="654">
      <contour>
        <pt x="83" y="654" on="1"/>
        <pt x="199" y="654" on="1"/>
        <pt x="199" y="391" on="1"/>
        <pt x="464" y="391" on="1"/>
        <pt x="464" y="654" on="1"/>
        <pt x="580" y="654" on="1"/>
        <pt x="580" y="0" on="1"/>
        <pt x="464" y="0" on="1"/>
        <pt x="464" y="290" on="1"/>
        <pt x="199" y="290" on="1"/>
        <pt x="199" y="0" on="1"/>
        <pt x="83" y="0" on="1"/>
      </contour>
    </TTGlyph>
    <TTGlyph name="H.sc" xMin="83" yMin="0" xMax="525" yMax="523">
      <contour>
        <pt x="83" y="523" on="1"/>
        <pt x="199" y="523" on="1"/>
        <pt x="199" y="321" on="1"/>
        <pt x="409" y="321" on="1"/>
        <pt x="409" y="523" on="1"/>
        <pt x="525" y="523" on="1"/>
        <pt x="525" y="0" on="1"/>
        <pt x="409" y="0" on="1"/>
        <pt x="409" y="221" on="1"/>
        <pt x="199" y="221" on="1"/>
        <pt x="199" y="0" on="1"/>
        <pt x="83" y="0" on="1"/>
      </contour>
    </TTGlyph>
    <TTGlyph name="H.sups" xMin="53" yMin="264" xMax="391" yMax="696">
      <contour>
        <pt x="53" y="696" on="1"/>
        <pt x="137" y="696" on="1"/>
        <pt x="137" y="525" on="1"/>
        <pt x="307" y="525" on="1"/>
        <pt x="307" y="696" on="1"/>
        <pt x="391" y="696" on="1"/>
        <pt x="391" y="264" on="1"/>
        <pt x="307" y="264" on="1"/>
        <pt x="307" y="453" on="1"/>
        <pt x="137" y="453" on="1"/>
        <pt x="137" y="264" on="1"/>
        <pt x="53" y="264" on="1"/>
      </contour>
    </TTGlyph>
    <TTGlyph name="Hbar" xMin="28" yMin="0" xMax="671" yMax="654">
      <contour>
        <pt x="484" y="489" on="1"/>
        <pt x="219" y="489" on="1"/>
        <pt x="219" y="391" on="1"/>
        <pt x="484" y="391" on="1"/>
      </contour>
      <contour>
        <pt x="671" y="489" on="1"/>
        <pt x="600" y="489" on="1"/>
        <pt x="600" y="0" on="1"/>
        <pt x="484" y="0" on="1"/>
        <pt x="484" y="290" on="1"/>
        <pt x="219" y="290" on="1"/>
        <pt x="219" y="0" on="1"/>
        <pt x="103" y="0" on="1"/>
        <pt x="103" y="489" on="1"/>
        <pt x="28" y="489" on="1"/>
        <pt x="28" y="543" on="1"/>
        <pt x="103" y="548" on="1"/>
        <pt x="103" y="654" on="1"/>
        <pt x="219" y="654" on="1"/>
        <pt x="219" y="548" on="1"/>
        <pt x="484" y="548" on="1"/>
        <pt x="484" y="654" on="1"/>
        <pt x="600" y="654" on="1"/>
        <pt x="600" y="548" on="1"/>
        <pt x="671" y="548" on="1"/>
      </contour>
    </TTGlyph>
    <TTGlyph name="Hbar.sc" xMin="28" yMin="0" xMax="617" yMax="523">
      <contour>
        <pt x="429" y="386" on="1"/>
        <pt x="219" y="386" on="1"/>
        <pt x="219" y="315" on="1"/>
        <pt x="429" y="315" on="1"/>
      </contour>
      <contour>
        <pt x="617" y="386" on="1"/>
        <pt x="545" y="386" on="1"/>
        <pt x="545" y="0" on="1"/>
        <pt x="429" y="0" on="1"/>
        <pt x="429" y="227" on="1"/>
        <pt x="219" y="227" on="1"/>
        <pt x="219" y="0" on="1"/>
        <pt x="103" y="0" on="1"/>
        <pt x="103" y="386" on="1"/>
        <pt x="28" y="386" on="1"/>
        <pt x="28" y="439" on="1"/>
        <pt x="103" y="444" on="1"/>
        <pt x="103" y="523" on="1"/>
        <pt x="219" y="523" on="1"/>
        <pt x="219" y="444" on="1"/>
        <pt x="429" y="444" on="1"/>
        <pt x="429" y="523" on="1"/>
        <pt x="545" y="523" on="1"/>
        <pt x="545" y="444" on="1"/>
        <pt x="617" y="444" on="1"/>
      </contour>
    </TTGlyph>
    <TTGlyph name="Hcircumflex" xMin="83" yMin="0" xMax="580" yMax="820">
      <component glyphName="H" x="0" y="0" flags="0x204"/>
      <component glyphName="uni0302.cap" x="330" y="0" flags="0x4"/>
    </TTGlyph>
    <TTGlyph name="Hcircumflex.sc" xMin="83" yMin="0" xMax="525" yMax="708">
      <component glyphName="H.sc" x="0" y="0" flags="0x204"/>
      <component glyphName="uni0302.cap" x="304" y="-112" flags="0x4"/>
    </TTGlyph>
    <TTGlyph name="I" xMin="83" yMin="0" xMax="199" yMax="654">
      <contour>
        <pt x="83" y="654" on="1"/>
        <pt x="199" y="654" on="1"/>
        <pt x="199" y="0" on="1"/>
        <pt x="83" y="0" on="1"/>
      </contour>
    </TTGlyph>
    <TTGlyph name="I.a" xMin="49" yMin="0" xMax="320" yMax="654">
      <contour>
        <pt x="49" y="98" on="1"/>
        <pt x="127" y="98" on="1"/>
        <pt x="127" y="556" on="1"/>
        <pt x="49" y="556" on="1"/>
        <pt x="49" y="654" on="1"/>
        <pt x="320" y="654" on="1"/>
        <pt x="320" y="556" on="1"/>
        <pt x="243" y="556" on="1"/>
        <pt x="243" y="98" on="1"/>
        <pt x="320" y="98" on="1"/>
        <pt x="320" y="0" on="1"/>
        <pt x="49" y="0" on="1"/>
      </contour>
    </TTGlyph>
    <TTGlyph name="I.sc" xMin="83" yMin="0" xMax="199" yMax="523">
      <contour>
        <pt x="83" y="523" on="1"/>
        <pt x="199" y="523" on="1"/>
        <pt x="199" y="0" on="1"/>
        <pt x="83" y="0" on="1"/>
      </contour>
    </TTGlyph>
    <TTGlyph name="I.sups" xMin="53" yMin="264" xMax="137" yMax="696">
      <contour>
        <pt x="53" y="696" on="1"/>
        <pt x="137" y="696" on="1"/>
        <pt x="137" y="264" on="1"/>
        <pt x="53" y="264" on="1"/>
      </contour>
    </TTGlyph>
    <TTGlyph name="Iacute" xMin="78" yMin="0" xMax="288" yMax="820">
      <component glyphName="I" x="0" y="0" flags="0x204"/>
      <component glyphName="uni0301.cap" x="141" y="0" flags="0x4"/>
    </TTGlyph>
    <TTGlyph name="Iacute.a" xMin="49" yMin="0" xMax="332" yMax="820">
      <component glyphName="I.a" x="0" y="0" flags="0x204"/>
      <component glyphName="uni0301.cap" x="185" y="0" flags="0x4"/>
    </TTGlyph>
    <TTGlyph name="Iacute.sc" xMin="78" yMin="0" xMax="288" yMax="708">
      <component glyphName="I.sc" x="0" y="0" flags="0x204"/>
      <component glyphName="uni0301.cap" x="141" y="-112" flags="0x4"/>
    </TTGlyph>
    <TTGlyph name="Icircumflex" xMin="-11" yMin="0" xMax="293" yMax="820">
      <component glyphName="I" x="0" y="0" flags="0x204"/>
      <component glyphName="uni0302.cap" x="141" y="0" flags="0x4"/>
    </TTGlyph>
    <TTGlyph name="Icircumflex.a" xMin="33" yMin="0" xMax="337" yMax="820">
      <component glyphName="I.a" x="0" y="0" flags="0x204"/>
      <component glyphName="uni0302.cap" x="185" y="0" flags="0x4"/>
    </TTGlyph>
    <TTGlyph name="Icircumflex.sc" xMin="-11" yMin="0" xMax="293" yMax="708">
      <component glyphName="I.sc" x="0" y="0" flags="0x204"/>
      <component glyphName="uni0302.cap" x="141" y="-112" flags="0x4"/>
    </TTGlyph>
    <TTGlyph name="Idieresis" xMin="-11" yMin="0" xMax="293" yMax="827">
      <component glyphName="I" x="0" y="0" flags="0x204"/>
      <component glyphName="uni0308.cap" x="141" y="0" flags="0x4"/>
    </TTGlyph>
    <TTGlyph name="Idieresis.a" xMin="33" yMin="0" xMax="337" yMax="827">
      <component glyphName="I.a" x="0" y="0" flags="0x204"/>
      <component glyphName="uni0308.cap" x="185" y="0" flags="0x4"/>
    </TTGlyph>
    <TTGlyph name="Idieresis.sc" xMin="-11" yMin="0" xMax="293" yMax="715">
      <component glyphName="I.sc" x="0" y="0" flags="0x204"/>
      <component glyphName="uni0308.cap" x="141" y="-112" flags="0x4"/>
    </TTGlyph>
    <TTGlyph name="Idotaccent" xMin="70" yMin="0" xMax="212" yMax="838">
      <component glyphName="I" x="0" y="0" flags="0x204"/>
      <component glyphName="uni0307.cap" x="141" y="0" flags="0x4"/>
    </TTGlyph>
    <TTGlyph name="Idotaccent.a" xMin="49" yMin="0" xMax="320" yMax="838">
      <component glyphName="I.a" x="0" y="0" flags="0x204"/>
      <component glyphName="uni0307.cap" x="185" y="0" flags="0x4"/>
    </TTGlyph>
    <TTGlyph name="Idotaccent.sc" xMin="70" yMin="0" xMax="212" yMax="726">
      <component glyphName="I.sc" x="0" y="0" flags="0x204"/>
      <component glyphName="uni0307.cap" x="141" y="-112" flags="0x4"/>
    </TTGlyph>
    <TTGlyph name="Igrave" xMin="-6" yMin="0" xMax="204" yMax="820">
      <component glyphName="I" x="0" y="0" flags="0x204"/>
      <component glyphName="uni0300.cap" x="141" y="0" flags="0x4"/>
    </TTGlyph>
    <TTGlyph name="Igrave.a" xMin="38" yMin="0" xMax="320" yMax="820">
      <component glyphName="I.a" x="0" y="0" flags="0x204"/>
      <component glyphName="uni0300.cap" x="185" y="0" flags="0x4"/>
    </TTGlyph>
    <TTGlyph name="Igrave.sc" xMin="-6" yMin="0" xMax="204" yMax="708">
      <component glyphName="I.sc" x="0" y="0" flags="0x204"/>
      <component glyphName="uni0300.cap" x="141" y="-112" flags="0x4"/>
    </TTGlyph>
    <TTGlyph name="Imacron" xMin="8" yMin="0" xMax="274" yMax="800">
      <component glyphName="I" x="0" y="0" flags="0x204"/>
      <component glyphName="uni0304.cap" x="141" y="0" flags="0x4"/>
    </TTGlyph>
    <TTGlyph name="Imacron.a" xMin="49" yMin="0" xMax="320" yMax="800">
      <component glyphName="I.a" x="0" y="0" flags="0x204"/>
      <component glyphName="uni0304.cap" x="185" y="0" flags="0x4"/>
    </TTGlyph>
    <TTGlyph name="Imacron.sc" xMin="8" yMin="0" xMax="274" yMax="688">
      <component glyphName="I.sc" x="0" y="0" flags="0x204"/>
      <component glyphName="uni0304.cap" x="141" y="-112" flags="0x4"/>
    </TTGlyph>
    <TTGlyph name="Iogonek" xMin="43" yMin="-218" xMax="240" yMax="654">
      <contour>
        <pt x="83" y="654" on="1"/>
        <pt x="199" y="654" on="1"/>
        <pt x="199" y="0" on="1"/>
        <pt x="129" y="-40" on="0"/>
        <pt x="129" y="-98" on="1"/>
        <pt x="129" y="-120" on="0"/>
        <pt x="157" y="-140" on="0"/>
        <pt x="173" y="-140" on="1"/>
        <pt x="184" y="-140" on="0"/>
        <pt x="204" y="-132" on="0"/>
        <pt x="212" y="-126" on="1"/>
        <pt x="240" y="-186" on="1"/>
        <pt x="223" y="-200" on="0"/>
        <pt x="171" y="-218" on="0"/>
        <pt x="148" y="-218" on="1"/>
        <pt x="104" y="-218" on="0"/>
        <pt x="43" y="-172" on="0"/>
        <pt x="43" y="-127" on="1"/>
        <pt x="43" y="-104" on="0"/>
        <pt x="56" y="-66" on="0"/>
        <pt x="77" y="-34" on="0"/>
        <pt x="102" y="-9" on="0"/>
        <pt x="113" y="0" on="1"/>
        <pt x="83" y="0" on="1"/>
      </contour>
    </TTGlyph>
    <TTGlyph name="Iogonek.a" xMin="49" yMin="-218" xMax="320" yMax="654">
      <contour>
        <pt x="49" y="98" on="1"/>
        <pt x="127" y="98" on="1"/>
        <pt x="127" y="556" on="1"/>
        <pt x="49" y="556" on="1"/>
        <pt x="49" y="654" on="1"/>
        <pt x="320" y="654" on="1"/>
        <pt x="320" y="556" on="1"/>
        <pt x="243" y="556" on="1"/>
        <pt x="243" y="98" on="1"/>
        <pt x="320" y="98" on="1"/>
        <pt x="320" y="0" on="1"/>
        <pt x="231" y="0" on="1"/>
        <pt x="203" y="-22" on="0"/>
        <pt x="172" y="-72" on="0"/>
        <pt x="172" y="-98" on="1"/>
        <pt x="172" y="-120" on="0"/>
        <pt x="200" y="-140" on="0"/>
        <pt x="217" y="-140" on="1"/>
        <pt x="228" y="-140" on="0"/>
        <pt x="247" y="-132" on="0"/>
        <pt x="255" y="-126" on="1"/>
        <pt x="283" y="-186" on="1"/>
        <pt x="266" y="-200" on="0"/>
        <pt x="214" y="-218" on="0"/>
        <pt x="191" y="-218" on="1"/>
        <pt x="146" y="-218" on="0"/>
        <pt x="86" y="-172" on="0"/>
        <pt x="86" y="-127" on="1"/>
        <pt x="86" y="-106" on="0"/>
        <pt x="99" y="-67" on="0"/>
        <pt x="120" y="-34" on="0"/>
        <pt x="144" y="-9" on="0"/>
        <pt x="155" y="0" on="1"/>
        <pt x="49" y="0" on="1"/>
      </contour>
    </TTGlyph>
    <TTGlyph name="Iogonek.sc" xMin="43" yMin="-218" xMax="240" yMax="523">
      <contour>
        <pt x="83" y="523" on="1"/>
        <pt x="199" y="523" on="1"/>
        <pt x="199" y="0" on="1"/>
        <pt x="129" y="-40" on="0"/>
        <pt x="129" y="-98" on="1"/>
        <pt x="129" y="-120" on="0"/>
        <pt x="157" y="-140" on="0"/>
        <pt x="173" y="-140" on="1"/>
        <pt x="184" y="-140" on="0"/>
        <pt x="204" y="-132" on="0"/>
        <pt x="212" y="-126" on="1"/>
        <pt x="240" y="-186" on="1"/>
        <pt x="223" y="-200" on="0"/>
        <pt x="171" y="-218" on="0"/>
        <pt x="148" y="-218" on="1"/>
        <pt x="104" y="-218" on="0"/>
        <pt x="43" y="-172" on="0"/>
        <pt x="43" y="-127" on="1"/>
        <pt x="43" y="-104" on="0"/>
        <pt x="56" y="-66" on="0"/>
        <pt x="77" y="-34" on="0"/>
        <pt x="102" y="-9" on="0"/>
        <pt x="113" y="0" on="1"/>
        <pt x="83" y="0" on="1"/>
      </contour>
    </TTGlyph>
    <TTGlyph name="Itilde" xMin="-17" yMin="0" xMax="299" yMax="829">
      <component glyphName="I" x="0" y="0" flags="0x204"/>
      <component glyphName="uni0303.cap" x="141" y="0" flags="0x4"/>
    </TTGlyph>
    <TTGlyph name="Itilde.a" xMin="27" yMin="0" xMax="343" yMax="829">
      <component glyphName="I.a" x="0" y="0" flags="0x204"/>
      <component glyphName="uni0303.cap" x="185" y="0" flags="0x4"/>
    </TTGlyph>
    <TTGlyph name="Itilde.sc" xMin="-17" yMin="0" xMax="299" yMax="717">
      <component glyphName="I.sc" x="0" y="0" flags="0x204"/>
      <component glyphName="uni0303.cap" x="141" y="-112" flags="0x4"/>
    </TTGlyph>
    <TTGlyph name="J" xMin="24" yMin="-12" xMax="414" yMax="654">
      <contour>
        <pt x="104" y="158" on="1"/>
        <pt x="124" y="122" on="0"/>
        <pt x="176" y="89" on="0"/>
        <pt x="206" y="89" on="1"/>
        <pt x="252" y="89" on="0"/>
        <pt x="298" y="145" on="0"/>
        <pt x="298" y="215" on="1"/>
        <pt x="298" y="654" on="1"/>
        <pt x="414" y="654" on="1"/>
        <pt x="414" y="205" on="1"/>
        <pt x="414" y="160" on="0"/>
        <pt x="392" y="81" on="0"/>
        <pt x="344" y="22" on="0"/>
        <pt x="270" y="-12" on="0"/>
        <pt x="219" y="-12" on="1"/>
        <pt x="150" y="-12" on="0"/>
        <pt x="55" y="44" on="0"/>
        <pt x="24" y="99" on="1"/>
      </contour>
    </TTGlyph>
    <TTGlyph name="J.sc" xMin="24" yMin="-12" xMax="374" yMax="523">
      <contour>
        <pt x="102" y="140" on="1"/>
        <pt x="134" y="85" on="0"/>
        <pt x="185" y="85" on="1"/>
        <pt x="220" y="85" on="0"/>
        <pt x="258" y="125" on="0"/>
        <pt x="258" y="179" on="1"/>
        <pt x="258" y="523" on="1"/>
        <pt x="374" y="523" on="1"/>
        <pt x="374" y="170" on="1"/>
        <pt x="374" y="133" on="0"/>
        <pt x="353" y="67" on="0"/>
        <pt x="309" y="17" on="0"/>
        <pt x="242" y="-12" on="0"/>
        <pt x="197" y="-12" on="1"/>
        <pt x="136" y="-12" on="0"/>
        <pt x="52" y="36" on="0"/>
        <pt x="24" y="83" on="1"/>
      </contour>
    </TTGlyph>
    <TTGlyph name="J.sups" xMin="14" yMin="256" xMax="281" yMax="696">
      <contour>
        <pt x="71" y="373" on="1"/>
        <pt x="84" y="349" on="0"/>
        <pt x="118" y="328" on="0"/>
        <pt x="138" y="328" on="1"/>
        <pt x="167" y="328" on="0"/>
        <pt x="198" y="363" on="0"/>
        <pt x="198" y="410" on="1"/>
        <pt x="198" y="696" on="1"/>
        <pt x="281" y="696" on="1"/>
        <pt x="281" y="403" on="1"/>
        <pt x="281" y="373" on="0"/>
        <pt x="265" y="319" on="0"/>
        <pt x="232" y="279" on="0"/>
        <pt x="181" y="256" on="0"/>
        <pt x="145" y="256" on="1"/>
        <pt x="99" y="256" on="0"/>
        <pt x="35" y="294" on="0"/>
        <pt x="14" y="332" on="1"/>
      </contour>
    </TTGlyph>
    <TTGlyph name="Jcircumflex" xMin="24" yMin="-12" xMax="505" yMax="820">
      <component glyphName="J" x="0" y="0" flags="0x204"/>
      <component glyphName="uni0302.cap" x="353" y="0" flags="0x4"/>
    </TTGlyph>
    <TTGlyph name="Jcircumflex.sc" xMin="24" yMin="-12" xMax="462" yMax="708">
      <component glyphName="J.sc" x="0" y="0" flags="0x204"/>
      <component glyphName="uni0302.cap" x="310" y="-112" flags="0x4"/>
    </TTGlyph>
    <TTGlyph name="K" xMin="83" yMin="0" xMax="598" yMax="654">
      <contour>
        <pt x="83" y="654" on="1"/>
        <pt x="199" y="654" on="1"/>
        <pt x="199" y="357" on="1"/>
        <pt x="202" y="357" on="1"/>
        <pt x="435" y="654" on="1"/>
        <pt x="564" y="654" on="1"/>
        <pt x="363" y="399" on="1"/>
        <pt x="598" y="0" on="1"/>
        <pt x="470" y="0" on="1"/>
        <pt x="293" y="308" on="1"/>
        <pt x="199" y="191" on="1"/>
        <pt x="199" y="0" on="1"/>
        <pt x="83" y="0" on="1"/>
      </contour>
    </TTGlyph>
    <TTGlyph name="K.sc" xMin="83" yMin="0" xMax="536" yMax="523">
      <contour>
        <pt x="83" y="523" on="1"/>
        <pt x="199" y="523" on="1"/>
        <pt x="199" y="304" on="1"/>
        <pt x="202" y="304" on="1"/>
        <pt x="383" y="523" on="1"/>
        <pt x="509" y="523" on="1"/>
        <pt x="339" y="315" on="1"/>
        <pt x="536" y="0" on="1"/>
        <pt x="412" y="0" on="1"/>
        <pt x="272" y="235" on="1"/>
        <pt x="199" y="156" on="1"/>
        <pt x="199" y="0" on="1"/>
        <pt x="83" y="0" on="1"/>
      </contour>
    </TTGlyph>
    <TTGlyph name="K.sups" xMin="53" yMin="264" xMax="404" yMax="696">
      <contour>
        <pt x="53" y="696" on="1"/>
        <pt x="137" y="696" on="1"/>
        <pt x="137" y="506" on="1"/>
        <pt x="140" y="506" on="1"/>
        <pt x="288" y="696" on="1"/>
        <pt x="381" y="696" on="1"/>
        <pt x="247" y="528" on="1"/>
        <pt x="404" y="264" on="1"/>
        <pt x="312" y="264" on="1"/>
        <pt x="198" y="464" on="1"/>
        <pt x="137" y="390" on="1"/>
        <pt x="137" y="264" on="1"/>
        <pt x="53" y="264" on="1"/>
      </contour>
    </TTGlyph>
    <TTGlyph name="L" xMin="83" yMin="0" xMax="471" yMax="654">
      <contour>
        <pt x="83" y="654" on="1"/>
        <pt x="199" y="654" on="1"/>
        <pt x="199" y="98" on="1"/>
        <pt x="471" y="98" on="1"/>
        <pt x="471" y="0" on="1"/>
        <pt x="83" y="0" on="1"/>
      </contour>
    </TTGlyph>
    <TTGlyph name="L.sc" xMin="83" yMin="0" xMax="422" yMax="523">
      <contour>
        <pt x="83" y="523" on="1"/>
        <pt x="199" y="523" on="1"/>
        <pt x="199" y="95" on="1"/>
        <pt x="422" y="95" on="1"/>
        <pt x="422" y="0" on="1"/>
        <pt x="83" y="0" on="1"/>
      </contour>
    </TTGlyph>
    <TTGlyph name="L.sups" xMin="53" yMin="264" xMax="317" yMax="696">
      <contour>
        <pt x="53" y="696" on="1"/>
        <pt x="137" y="696" on="1"/>
        <pt x="137" y="333" on="1"/>
        <pt x="317" y="333" on="1"/>
        <pt x="317" y="264" on="1"/>
        <pt x="53" y="264" on="1"/>
      </contour>
    </TTGlyph>
    <TTGlyph name="Lacute" xMin="81" yMin="0" xMax="471" yMax="820">
      <component glyphName="L" x="0" y="0" flags="0x204"/>
      <component glyphName="uni0301.cap" x="144" y="0" flags="0x4"/>
    </TTGlyph>
    <TTGlyph name="Lacute.sc" xMin="83" yMin="0" xMax="422" yMax="708">
      <component glyphName="L.sc" x="0" y="0" flags="0x204"/>
      <component glyphName="uni0301.cap" x="146" y="-112" flags="0x4"/>
    </TTGlyph>
    <TTGlyph name="Lcaron" xMin="83" yMin="0" xMax="471" yMax="730">
      <component glyphName="L" x="0" y="0" flags="0x204"/>
      <component glyphName="uni030C.a" x="366" y="-35" flags="0x4"/>
    </TTGlyph>
    <TTGlyph name="Lcaron.sc" xMin="83" yMin="0" xMax="422" yMax="622">
      <component glyphName="L.sc" x="0" y="0" flags="0x204"/>
      <component glyphName="uni030C.a" x="346" y="-143" flags="0x4"/>
    </TTGlyph>
    <TTGlyph name="Ldot" xMin="83" yMin="0" xMax="471" yMax="654">
      <component glyphName="L" x="0" y="0" flags="0x204"/>
      <component glyphName="period" x="256" y="261" flags="0x4"/>
    </TTGlyph>
    <TTGlyph name="Ldot.sc" xMin="83" yMin="0" xMax="440" yMax="523">
      <component glyphName="L.sc" x="0" y="0" flags="0x204"/>
      <component glyphName="period" x="228" y="237" flags="0x4"/>
    </TTGlyph>
    <TTGlyph name="Lslash" xMin="12" yMin="0" xMax="477" yMax="654">
      <contour>
        <pt x="477" y="98" on="1"/>
        <pt x="477" y="0" on="1"/>
        <pt x="90" y="0" on="1"/>
        <pt x="90" y="225" on="1"/>
        <pt x="12" y="180" on="1"/>
        <pt x="12" y="271" on="1"/>
        <pt x="90" y="316" on="1"/>
        <pt x="90" y="654" on="1"/>
        <pt x="206" y="654" on="1"/>
        <pt x="206" y="369" on="1"/>
        <pt x="385" y="466" on="1"/>
        <pt x="385" y="375" on="1"/>
        <pt x="206" y="278" on="1"/>
        <pt x="206" y="98" on="1"/>
      </contour>
    </TTGlyph>
    <TTGlyph name="Lslash.sc" xMin="12" yMin="0" xMax="429" yMax="523">
      <contour>
        <pt x="429" y="95" on="1"/>
        <pt x="429" y="0" on="1"/>
        <pt x="90" y="0" on="1"/>
        <pt x="90" y="161" on="1"/>
        <pt x="12" y="116" on="1"/>
        <pt x="12" y="204" on="1"/>
        <pt x="90" y="249" on="1"/>
        <pt x="90" y="523" on="1"/>
        <pt x="206" y="523" on="1"/>
        <pt x="206" y="302" on="1"/>
        <pt x="355" y="382" on="1"/>
        <pt x="355" y="295" on="1"/>
        <pt x="206" y="214" on="1"/>
        <pt x="206" y="95" on="1"/>
      </contour>
    </TTGlyph>
    <TTGlyph name="M" xMin="83" yMin="0" xMax="662" yMax="654">
      <contour>
        <pt x="83" y="654" on="1"/>
        <pt x="211" y="654" on="1"/>
        <pt x="329" y="332" on="1"/>
        <pt x="372" y="208" on="1"/>
        <pt x="376" y="208" on="1"/>
        <pt x="418" y="332" on="1"/>
        <pt x="534" y="654" on="1"/>
        <pt x="662" y="654" on="1"/>
        <pt x="662" y="0" on="1"/>
        <pt x="553" y="0" on="1"/>
        <pt x="553" y="299" on="1"/>
        <pt x="553" y="322" on="0"/>
        <pt x="556" y="376" on="0"/>
        <pt x="560" y="431" on="0"/>
        <pt x="566" y="484" on="0"/>
        <pt x="568" y="507" on="1"/>
        <pt x="564" y="507" on="1"/>
        <pt x="511" y="358" on="1"/>
        <pt x="398" y="61" on="1"/>
        <pt x="344" y="61" on="1"/>
        <pt x="231" y="358" on="1"/>
        <pt x="179" y="507" on="1"/>
        <pt x="175" y="507" on="1"/>
        <pt x="177" y="484" on="0"/>
        <pt x="182" y="431" on="0"/>
        <pt x="187" y="376" on="0"/>
        <pt x="190" y="322" on="0"/>
        <pt x="190" y="299" on="1"/>
        <pt x="190" y="0" on="1"/>
        <pt x="83" y="0" on="1"/>
      </contour>
    </TTGlyph>
    <TTGlyph name="M.sc" xMin="83" yMin="0" xMax="583" yMax="523">
      <contour>
        <pt x="83" y="523" on="1"/>
        <pt x="206" y="523" on="1"/>
        <pt x="298" y="284" on="1"/>
        <pt x="332" y="188" on="1"/>
        <pt x="336" y="188" on="1"/>
        <pt x="372" y="284" on="1"/>
        <pt x="461" y="523" on="1"/>
        <pt x="583" y="523" on="1"/>
        <pt x="583" y="0" on="1"/>
        <pt x="479" y="0" on="1"/>
        <pt x="479" y="201" on="1"/>
        <pt x="479" y="220" on="0"/>
        <pt x="482" y="267" on="0"/>
        <pt x="486" y="317" on="0"/>
        <pt x="491" y="364" on="0"/>
        <pt x="493" y="383" on="1"/>
        <pt x="489" y="383" on="1"/>
        <pt x="441" y="262" on="1"/>
        <pt x="355" y="46" on="1"/>
        <pt x="311" y="46" on="1"/>
        <pt x="224" y="262" on="1"/>
        <pt x="177" y="383" on="1"/>
        <pt x="173" y="383" on="1"/>
        <pt x="175" y="364" on="0"/>
        <pt x="180" y="317" on="0"/>
        <pt x="185" y="267" on="0"/>
        <pt x="188" y="220" on="0"/>
        <pt x="188" y="201" on="1"/>
        <pt x="188" y="0" on="1"/>
        <pt x="83" y="0" on="1"/>
      </contour>
    </TTGlyph>
    <TTGlyph name="M.sups" xMin="53" yMin="264" xMax="448" yMax="696">
      <contour>
        <pt x="53" y="696" on="1"/>
        <pt x="144" y="696" on="1"/>
        <pt x="223" y="490" on="1"/>
        <pt x="251" y="410" on="1"/>
        <pt x="254" y="410" on="1"/>
        <pt x="282" y="490" on="1"/>
        <pt x="356" y="696" on="1"/>
        <pt x="448" y="696" on="1"/>
        <pt x="448" y="264" on="1"/>
        <pt x="369" y="264" on="1"/>
        <pt x="369" y="451" on="1"/>
        <pt x="369" y="466" on="0"/>
        <pt x="371" y="503" on="0"/>
        <pt x="375" y="540" on="0"/>
        <pt x="378" y="575" on="0"/>
        <pt x="380" y="590" on="1"/>
        <pt x="378" y="590" on="1"/>
        <pt x="341" y="492" on="1"/>
        <pt x="268" y="304" on="1"/>
        <pt x="232" y="304" on="1"/>
        <pt x="158" y="492" on="1"/>
        <pt x="122" y="590" on="1"/>
        <pt x="120" y="590" on="1"/>
        <pt x="121" y="575" on="0"/>
        <pt x="125" y="540" on="0"/>
        <pt x="128" y="503" on="0"/>
        <pt x="130" y="466" on="0"/>
        <pt x="130" y="451" on="1"/>
        <pt x="130" y="264" on="1"/>
        <pt x="53" y="264" on="1"/>
      </contour>
    </TTGlyph>
    <TTGlyph name="N" xMin="83" yMin="0" xMax="573" yMax="654">
      <contour>
        <pt x="83" y="654" on="1"/>
        <pt x="202" y="654" on="1"/>
        <pt x="406" y="286" on="1"/>
        <pt x="473" y="147" on="1"/>
        <pt x="477" y="147" on="1"/>
        <pt x="473" y="198" on="0"/>
        <pt x="462" y="315" on="0"/>
        <pt x="462" y="370" on="1"/>
        <pt x="462" y="654" on="1"/>
        <pt x="573" y="654" on="1"/>
        <pt x="573" y="0" on="1"/>
        <pt x="454" y="0" on="1"/>
        <pt x="250" y="368" on="1"/>
        <pt x="183" y="507" on="1"/>
        <pt x="179" y="507" on="1"/>
        <pt x="183" y="455" on="0"/>
        <pt x="194" y="341" on="0"/>
        <pt x="194" y="286" on="1"/>
        <pt x="194" y="0" on="1"/>
        <pt x="83" y="0" on="1"/>
      </contour>
    </TTGlyph>
    <TTGlyph name="N.sc" xMin="83" yMin="0" xMax="512" yMax="523">
      <contour>
        <pt x="83" y="523" on="1"/>
        <pt x="200" y="523" on="1"/>
        <pt x="357" y="255" on="1"/>
        <pt x="416" y="137" on="1"/>
        <pt x="420" y="137" on="1"/>
        <pt x="416" y="179" on="0"/>
        <pt x="406" y="284" on="0"/>
        <pt x="406" y="330" on="1"/>
        <pt x="406" y="523" on="1"/>
        <pt x="512" y="523" on="1"/>
        <pt x="512" y="0" on="1"/>
        <pt x="398" y="0" on="1"/>
        <pt x="238" y="268" on="1"/>
        <pt x="179" y="386" on="1"/>
        <pt x="175" y="386" on="1"/>
        <pt x="180" y="343" on="0"/>
        <pt x="190" y="240" on="0"/>
        <pt x="190" y="194" on="1"/>
        <pt x="190" y="0" on="1"/>
        <pt x="83" y="0" on="1"/>
      </contour>
    </TTGlyph>
    <TTGlyph name="N.sups" xMin="53" yMin="264" xMax="386" yMax="696">
      <contour>
        <pt x="53" y="696" on="1"/>
        <pt x="141" y="696" on="1"/>
        <pt x="270" y="462" on="1"/>
        <pt x="314" y="368" on="1"/>
        <pt x="317" y="368" on="1"/>
        <pt x="314" y="402" on="0"/>
        <pt x="308" y="482" on="0"/>
        <pt x="308" y="519" on="1"/>
        <pt x="308" y="696" on="1"/>
        <pt x="386" y="696" on="1"/>
        <pt x="386" y="264" on="1"/>
        <pt x="299" y="264" on="1"/>
        <pt x="170" y="500" on="1"/>
        <pt x="125" y="592" on="1"/>
        <pt x="122" y="592" on="1"/>
        <pt x="125" y="557" on="0"/>
        <pt x="131" y="480" on="0"/>
        <pt x="131" y="444" on="1"/>
        <pt x="131" y="264" on="1"/>
        <pt x="53" y="264" on="1"/>
      </contour>
    </TTGlyph>
    <TTGlyph name="Nacute" xMin="83" yMin="0" xMax="573" yMax="820">
      <component glyphName="N" x="0" y="0" flags="0x204"/>
      <component glyphName="uni0301.cap" x="330" y="0" flags="0x4"/>
    </TTGlyph>
    <TTGlyph name="Nacute.sc" xMin="83" yMin="0" xMax="512" yMax="708">
      <component glyphName="N.sc" x="0" y="0" flags="0x204"/>
      <component glyphName="uni0301.cap" x="307" y="-112" flags="0x4"/>
    </TTGlyph>
    <TTGlyph name="Ncaron" xMin="83" yMin="0" xMax="573" yMax="820">
      <component glyphName="N" x="0" y="0" flags="0x204"/>
      <component glyphName="uni030C.cap" x="330" y="0" flags="0x4"/>
    </TTGlyph>
    <TTGlyph name="Ncaron.sc" xMin="83" yMin="0" xMax="512" yMax="708">
      <component glyphName="N.sc" x="0" y="0" flags="0x204"/>
      <component glyphName="uni030C.cap" x="307" y="-112" flags="0x4"/>
    </TTGlyph>
    <TTGlyph name="Ntilde" xMin="83" yMin="0" xMax="573" yMax="829">
      <component glyphName="N" x="0" y="0" flags="0x204"/>
      <component glyphName="uni0303.cap" x="330" y="0" flags="0x4"/>
    </TTGlyph>
    <TTGlyph name="Ntilde.sc" xMin="83" yMin="0" xMax="512" yMax="717">
      <component glyphName="N.sc" x="0" y="0" flags="0x204"/>
      <component glyphName="uni0303.cap" x="307" y="-112" flags="0x4"/>
    </TTGlyph>
    <TTGlyph name="O" xMin="49" yMin="-12" xMax="626" yMax="666">
      <contour>
        <pt x="337" y="-12" on="1"/>
        <pt x="273" y="-12" on="0"/>
        <pt x="167" y="35" on="0"/>
        <pt x="91" y="124" on="0"/>
        <pt x="49" y="250" on="0"/>
        <pt x="49" y="330" on="1"/>
        <pt x="49" y="409" on="0"/>
        <pt x="91" y="534" on="0"/>
        <pt x="167" y="620" on="0"/>
        <pt x="273" y="666" on="0"/>
        <pt x="337" y="666" on="1"/>
        <pt x="401" y="666" on="0"/>
        <pt x="507" y="620" on="0"/>
        <pt x="584" y="534" on="0"/>
        <pt x="626" y="409" on="0"/>
        <pt x="626" y="330" on="1"/>
        <pt x="626" y="250" on="0"/>
        <pt x="584" y="124" on="0"/>
        <pt x="507" y="35" on="0"/>
        <pt x="401" y="-12" on="0"/>
      </contour>
      <contour>
        <pt x="337" y="89" on="1"/>
        <pt x="376" y="89" on="0"/>
        <pt x="438" y="123" on="0"/>
        <pt x="482" y="186" on="0"/>
        <pt x="506" y="275" on="0"/>
        <pt x="506" y="330" on="1"/>
        <pt x="506" y="440" on="0"/>
        <pt x="415" y="565" on="0"/>
        <pt x="337" y="565" on="1"/>
        <pt x="259" y="565" on="0"/>
        <pt x="168" y="440" on="0"/>
        <pt x="168" y="330" on="1"/>
        <pt x="168" y="275" on="0"/>
        <pt x="192" y="186" on="0"/>
        <pt x="236" y="123" on="0"/>
        <pt x="298" y="89" on="0"/>
      </contour>
    </TTGlyph>
    <TTGlyph name="O.sc" xMin="49" yMin="-12" xMax="554" yMax="535">
      <contour>
        <pt x="302" y="-12" on="1"/>
        <pt x="246" y="-12" on="0"/>
        <pt x="153" y="26" on="0"/>
        <pt x="86" y="97" on="0"/>
        <pt x="49" y="199" on="0"/>
        <pt x="49" y="264" on="1"/>
        <pt x="49" y="328" on="0"/>
        <pt x="86" y="429" on="0"/>
        <pt x="153" y="499" on="0"/>
        <pt x="246" y="535" on="0"/>
        <pt x="302" y="535" on="1"/>
        <pt x="357" y="535" on="0"/>
        <pt x="450" y="498" on="0"/>
        <pt x="517" y="429" on="0"/>
        <pt x="554" y="328" on="0"/>
        <pt x="554" y="264" on="1"/>
        <pt x="554" y="199" on="0"/>
        <pt x="517" y="97" on="0"/>
        <pt x="450" y="26" on="0"/>
        <pt x="357" y="-12" on="0"/>
      </contour>
      <contour>
        <pt x="302" y="84" on="1"/>
        <pt x="363" y="84" on="0"/>
        <pt x="435" y="180" on="0"/>
        <pt x="435" y="264" on="1"/>
        <pt x="435" y="347" on="0"/>
        <pt x="363" y="439" on="0"/>
        <pt x="302" y="439" on="1"/>
        <pt x="239" y="439" on="0"/>
        <pt x="168" y="347" on="0"/>
        <pt x="168" y="264" on="1"/>
        <pt x="168" y="180" on="0"/>
        <pt x="239" y="84" on="0"/>
      </contour>
    </TTGlyph>
    <TTGlyph name="O.sups" xMin="31" yMin="256" xMax="421" yMax="704">
      <contour>
        <pt x="226" y="256" on="1"/>
        <pt x="183" y="256" on="0"/>
        <pt x="111" y="287" on="0"/>
        <pt x="60" y="346" on="0"/>
        <pt x="31" y="429" on="0"/>
        <pt x="31" y="482" on="1"/>
        <pt x="31" y="534" on="0"/>
        <pt x="60" y="617" on="0"/>
        <pt x="111" y="674" on="0"/>
        <pt x="183" y="704" on="0"/>
        <pt x="226" y="704" on="1"/>
        <pt x="269" y="704" on="0"/>
        <pt x="341" y="674" on="0"/>
        <pt x="392" y="617" on="0"/>
        <pt x="421" y="534" on="0"/>
        <pt x="421" y="482" on="1"/>
        <pt x="421" y="429" on="0"/>
        <pt x="392" y="346" on="0"/>
        <pt x="341" y="287" on="0"/>
        <pt x="269" y="256" on="0"/>
      </contour>
      <contour>
        <pt x="226" y="328" on="1"/>
        <pt x="276" y="328" on="0"/>
        <pt x="335" y="412" on="0"/>
        <pt x="335" y="482" on="1"/>
        <pt x="335" y="553" on="0"/>
        <pt x="276" y="632" on="0"/>
        <pt x="226" y="632" on="1"/>
        <pt x="175" y="632" on="0"/>
        <pt x="117" y="553" on="0"/>
        <pt x="117" y="482" on="1"/>
        <pt x="117" y="412" on="0"/>
        <pt x="175" y="328" on="0"/>
      </contour>
    </TTGlyph>
    <TTGlyph name="OE" xMin="49" yMin="0" xMax="808" yMax="654">
      <contour>
        <pt x="49" y="330" on="1"/>
        <pt x="49" y="411" on="0"/>
        <pt x="96" y="532" on="0"/>
        <pt x="182" y="613" on="0"/>
        <pt x="303" y="654" on="0"/>
        <pt x="377" y="654" on="1"/>
        <pt x="798" y="654" on="1"/>
        <pt x="798" y="556" on="1"/>
        <pt x="536" y="556" on="1"/>
        <pt x="536" y="389" on="1"/>
        <pt x="756" y="389" on="1"/>
        <pt x="756" y="291" on="1"/>
        <pt x="536" y="291" on="1"/>
        <pt x="536" y="98" on="1"/>
        <pt x="808" y="98" on="1"/>
        <pt x="808" y="0" on="1"/>
        <pt x="371" y="0" on="1"/>
        <pt x="299" y="0" on="0"/>
        <pt x="180" y="42" on="0"/>
        <pt x="96" y="125" on="0"/>
        <pt x="49" y="249" on="0"/>
      </contour>
      <contour>
        <pt x="168" y="330" on="1"/>
        <pt x="168" y="208" on="0"/>
        <pt x="282" y="94" on="0"/>
        <pt x="384" y="94" on="1"/>
        <pt x="420" y="94" on="1"/>
        <pt x="420" y="560" on="1"/>
        <pt x="384" y="560" on="1"/>
        <pt x="283" y="560" on="0"/>
        <pt x="168" y="451" on="0"/>
      </contour>
    </TTGlyph>
    <TTGlyph name="OE.sc" xMin="49" yMin="0" xMax="700" yMax="523">
      <contour>
        <pt x="49" y="259" on="1"/>
        <pt x="49" y="327" on="0"/>
        <pt x="89" y="427" on="0"/>
        <pt x="162" y="492" on="0"/>
        <pt x="265" y="523" on="0"/>
        <pt x="327" y="523" on="1"/>
        <pt x="690" y="523" on="1"/>
        <pt x="690" y="433" on="1"/>
        <pt x="473" y="433" on="1"/>
        <pt x="473" y="312" on="1"/>
        <pt x="656" y="312" on="1"/>
        <pt x="656" y="227" on="1"/>
        <pt x="473" y="227" on="1"/>
        <pt x="473" y="90" on="1"/>
        <pt x="700" y="90" on="1"/>
        <pt x="700" y="0" on="1"/>
        <pt x="334" y="0" on="1"/>
        <pt x="269" y="0" on="0"/>
        <pt x="164" y="30" on="0"/>
        <pt x="89" y="94" on="0"/>
        <pt x="49" y="191" on="0"/>
      </contour>
      <contour>
        <pt x="329" y="433" on="1"/>
        <pt x="249" y="433" on="0"/>
        <pt x="168" y="348" on="0"/>
        <pt x="168" y="259" on="1"/>
        <pt x="168" y="173" on="0"/>
        <pt x="249" y="91" on="0"/>
        <pt x="329" y="91" on="1"/>
        <pt x="357" y="91" on="1"/>
        <pt x="357" y="433" on="1"/>
      </contour>
    </TTGlyph>
    <TTGlyph name="Oacute" xMin="49" yMin="-12" xMax="626" yMax="820">
      <component glyphName="O" x="0" y="0" flags="0x204"/>
      <component glyphName="uni0301.cap" x="337" y="0" flags="0x4"/>
    </TTGlyph>
    <TTGlyph name="Oacute.sc" xMin="49" yMin="-12" xMax="554" yMax="708">
      <component glyphName="O.sc" x="0" y="0" flags="0x204"/>
      <component glyphName="uni0301.cap" x="302" y="-112" flags="0x4"/>
    </TTGlyph>
    <TTGlyph name="Ocircumflex" xMin="49" yMin="-12" xMax="626" yMax="820">
      <component glyphName="O" x="0" y="0" flags="0x204"/>
      <component glyphName="uni0302.cap" x="337" y="0" flags="0x4"/>
    </TTGlyph>
    <TTGlyph name="Ocircumflex.sc" xMin="49" yMin="-12" xMax="554" yMax="708">
      <component glyphName="O.sc" x="0" y="0" flags="0x204"/>
      <component glyphName="uni0302.cap" x="302" y="-112" flags="0x4"/>
    </TTGlyph>
    <TTGlyph name="Odieresis" xMin="49" yMin="-12" xMax="626" yMax="827">
      <component glyphName="O" x="0" y="0" flags="0x204"/>
      <component glyphName="uni0308.cap" x="337" y="0" flags="0x4"/>
    </TTGlyph>
    <TTGlyph name="Odieresis.sc" xMin="49" yMin="-12" xMax="554" yMax="715">
      <component glyphName="O.sc" x="0" y="0" flags="0x204"/>
      <component glyphName="uni0308.cap" x="302" y="-112" flags="0x4"/>
    </TTGlyph>
    <TTGlyph name="Ograve" xMin="49" yMin="-12" xMax="626" yMax="820">
      <component glyphName="O" x="0" y="0" flags="0x204"/>
      <component glyphName="uni0300.cap" x="337" y="0" flags="0x4"/>
    </TTGlyph>
    <TTGlyph name="Ograve.sc" xMin="49" yMin="-12" xMax="554" yMax="708">
      <component glyphName="O.sc" x="0" y="0" flags="0x204"/>
      <component glyphName="uni0300.cap" x="302" y="-112" flags="0x4"/>
    </TTGlyph>
    <TTGlyph name="Ohorn" xMin="50" yMin="-12" xMax="635" yMax="778">
      <contour>
        <pt x="339" y="89" on="1"/>
        <pt x="378" y="89" on="0"/>
        <pt x="440" y="123" on="0"/>
        <pt x="484" y="186" on="0"/>
        <pt x="508" y="275" on="0"/>
        <pt x="508" y="330" on="1"/>
        <pt x="508" y="440" on="0"/>
        <pt x="417" y="565" on="0"/>
        <pt x="339" y="565" on="1"/>
        <pt x="261" y="565" on="0"/>
        <pt x="170" y="440" on="0"/>
        <pt x="170" y="330" on="1"/>
        <pt x="170" y="275" on="0"/>
        <pt x="194" y="186" on="0"/>
        <pt x="238" y="123" on="0"/>
        <pt x="300" y="89" on="0"/>
      </contour>
      <contour>
        <pt x="609" y="778" on="1"/>
        <pt x="620" y="764" on="0"/>
        <pt x="635" y="728" on="0"/>
        <pt x="635" y="706" on="1"/>
        <pt x="635" y="660" on="0"/>
        <pt x="579" y="606" on="0"/>
        <pt x="532" y="593" on="1"/>
        <pt x="577" y="549" on="0"/>
        <pt x="627" y="417" on="0"/>
        <pt x="627" y="330" on="1"/>
        <pt x="627" y="250" on="0"/>
        <pt x="585" y="124" on="0"/>
        <pt x="509" y="35" on="0"/>
        <pt x="403" y="-12" on="0"/>
        <pt x="339" y="-12" on="1"/>
        <pt x="275" y="-12" on="0"/>
        <pt x="169" y="35" on="0"/>
        <pt x="92" y="124" on="0"/>
        <pt x="50" y="250" on="0"/>
        <pt x="50" y="330" on="1"/>
        <pt x="50" y="409" on="0"/>
        <pt x="92" y="534" on="0"/>
        <pt x="169" y="620" on="0"/>
        <pt x="275" y="666" on="0"/>
        <pt x="339" y="666" on="1"/>
        <pt x="414" y="666" on="0"/>
        <pt x="474" y="635" on="1"/>
        <pt x="509" y="642" on="0"/>
        <pt x="544" y="670" on="0"/>
        <pt x="544" y="698" on="1"/>
        <pt x="544" y="711" on="0"/>
        <pt x="535" y="733" on="0"/>
        <pt x="529" y="742" on="1"/>
      </contour>
    </TTGlyph>
    <TTGlyph name="Ohorn.sc" xMin="49" yMin="-12" xMax="589" yMax="638">
      <contour>
        <pt x="302" y="84" on="1"/>
        <pt x="363" y="84" on="0"/>
        <pt x="435" y="180" on="0"/>
        <pt x="435" y="264" on="1"/>
        <pt x="435" y="347" on="0"/>
        <pt x="363" y="439" on="0"/>
        <pt x="302" y="439" on="1"/>
        <pt x="239" y="439" on="0"/>
        <pt x="168" y="347" on="0"/>
        <pt x="168" y="264" on="1"/>
        <pt x="168" y="180" on="0"/>
        <pt x="239" y="84" on="0"/>
      </contour>
      <contour>
        <pt x="563" y="638" on="1"/>
        <pt x="574" y="624" on="0"/>
        <pt x="589" y="587" on="0"/>
        <pt x="589" y="565" on="1"/>
        <pt x="589" y="520" on="0"/>
        <pt x="535" y="466" on="0"/>
        <pt x="493" y="454" on="1"/>
        <pt x="522" y="419" on="0"/>
        <pt x="554" y="324" on="0"/>
        <pt x="554" y="264" on="1"/>
        <pt x="554" y="199" on="0"/>
        <pt x="517" y="97" on="0"/>
        <pt x="450" y="26" on="0"/>
        <pt x="357" y="-12" on="0"/>
        <pt x="302" y="-12" on="1"/>
        <pt x="246" y="-12" on="0"/>
        <pt x="153" y="26" on="0"/>
        <pt x="86" y="97" on="0"/>
        <pt x="49" y="199" on="0"/>
        <pt x="49" y="264" on="1"/>
        <pt x="49" y="328" on="0"/>
        <pt x="86" y="429" on="0"/>
        <pt x="153" y="499" on="0"/>
        <pt x="246" y="535" on="0"/>
        <pt x="302" y="535" on="1"/>
        <pt x="382" y="535" on="0"/>
        <pt x="443" y="497" on="1"/>
        <pt x="469" y="504" on="0"/>
        <pt x="498" y="531" on="0"/>
        <pt x="498" y="557" on="1"/>
        <pt x="498" y="570" on="0"/>
        <pt x="489" y="592" on="0"/>
        <pt x="483" y="601" on="1"/>
      </contour>
    </TTGlyph>
    <TTGlyph name="Ohungarumlaut" xMin="49" yMin="-12" xMax="626" yMax="820">
      <component glyphName="O" x="0" y="0" flags="0x204"/>
      <component glyphName="uni030B.cap" x="337" y="0" flags="0x4"/>
    </TTGlyph>
    <TTGlyph name="Ohungarumlaut.sc" xMin="49" yMin="-12" xMax="554" yMax="708">
      <component glyphName="O.sc" x="0" y="0" flags="0x204"/>
      <component glyphName="uni030B.cap" x="302" y="-112" flags="0x4"/>
    </TTGlyph>
    <TTGlyph name="Omacron" xMin="49" yMin="-12" xMax="626" yMax="800">
      <component glyphName="O" x="0" y="0" flags="0x204"/>
      <component glyphName="uni0304.cap" x="337" y="0" flags="0x4"/>
    </TTGlyph>
    <TTGlyph name="Omacron.sc" xMin="49" yMin="-12" xMax="554" yMax="688">
      <component glyphName="O.sc" x="0" y="0" flags="0x204"/>
      <component glyphName="uni0304.cap" x="302" y="-112" flags="0x4"/>
    </TTGlyph>
    <TTGlyph name="Oslash" xMin="45" yMin="-36" xMax="640" yMax="690">
      <contour>
        <pt x="237" y="130" on="1"/>
        <pt x="278" y="89" on="0"/>
        <pt x="339" y="89" on="1"/>
        <pt x="378" y="89" on="0"/>
        <pt x="440" y="123" on="0"/>
        <pt x="484" y="186" on="0"/>
        <pt x="508" y="275" on="0"/>
        <pt x="508" y="330" on="1"/>
        <pt x="508" y="398" on="0"/>
        <pt x="489" y="450" on="1"/>
      </contour>
      <contour>
        <pt x="446" y="522" on="1"/>
        <pt x="403" y="565" on="0"/>
        <pt x="339" y="565" on="1"/>
        <pt x="261" y="565" on="0"/>
        <pt x="170" y="440" on="0"/>
        <pt x="170" y="330" on="1"/>
        <pt x="170" y="292" on="0"/>
        <pt x="181" y="226" on="0"/>
        <pt x="192" y="199" on="1"/>
      </contour>
      <contour>
        <pt x="568" y="550" on="1"/>
        <pt x="597" y="508" on="0"/>
        <pt x="627" y="398" on="0"/>
        <pt x="627" y="330" on="1"/>
        <pt x="627" y="250" on="0"/>
        <pt x="585" y="124" on="0"/>
        <pt x="509" y="35" on="0"/>
        <pt x="403" y="-12" on="0"/>
        <pt x="339" y="-12" on="1"/>
        <pt x="240" y="-12" on="0"/>
        <pt x="168" y="43" on="1"/>
        <pt x="106" y="-36" on="1"/>
        <pt x="45" y="12" on="1"/>
        <pt x="114" y="100" on="1"/>
        <pt x="83" y="144" on="0"/>
        <pt x="50" y="259" on="0"/>
        <pt x="50" y="330" on="1"/>
        <pt x="50" y="409" on="0"/>
        <pt x="92" y="534" on="0"/>
        <pt x="169" y="620" on="0"/>
        <pt x="275" y="666" on="0"/>
        <pt x="339" y="666" on="1"/>
        <pt x="442" y="666" on="0"/>
        <pt x="514" y="608" on="1"/>
        <pt x="578" y="690" on="1"/>
        <pt x="640" y="642" on="1"/>
      </contour>
    </TTGlyph>
    <TTGlyph name="Oslash.sc" xMin="47" yMin="-24" xMax="556" yMax="548">
      <contour>
        <pt x="212" y="114" on="1"/>
        <pt x="248" y="78" on="0"/>
        <pt x="302" y="78" on="1"/>
        <pt x="366" y="78" on="0"/>
        <pt x="441" y="178" on="0"/>
        <pt x="441" y="264" on="1"/>
        <pt x="441" y="317" on="0"/>
        <pt x="425" y="360" on="1"/>
      </contour>
      <contour>
        <pt x="391" y="411" on="1"/>
        <pt x="355" y="445" on="0"/>
        <pt x="302" y="445" on="1"/>
        <pt x="237" y="445" on="0"/>
        <pt x="162" y="350" on="0"/>
        <pt x="162" y="264" on="1"/>
        <pt x="162" y="208" on="0"/>
        <pt x="179" y="165" on="1"/>
      </contour>
      <contour>
        <pt x="499" y="446" on="1"/>
        <pt x="525" y="412" on="0"/>
        <pt x="554" y="321" on="0"/>
        <pt x="554" y="264" on="1"/>
        <pt x="554" y="199" on="0"/>
        <pt x="517" y="97" on="0"/>
        <pt x="450" y="26" on="0"/>
        <pt x="357" y="-12" on="0"/>
        <pt x="302" y="-12" on="1"/>
        <pt x="210" y="-12" on="0"/>
        <pt x="146" y="37" on="1"/>
        <pt x="93" y="-24" on="1"/>
        <pt x="47" y="12" on="1"/>
        <pt x="105" y="79" on="1"/>
        <pt x="78" y="114" on="0"/>
        <pt x="49" y="207" on="0"/>
        <pt x="49" y="264" on="1"/>
        <pt x="49" y="328" on="0"/>
        <pt x="86" y="429" on="0"/>
        <pt x="153" y="499" on="0"/>
        <pt x="246" y="535" on="0"/>
        <pt x="302" y="535" on="1"/>
        <pt x="394" y="535" on="0"/>
        <pt x="457" y="487" on="1"/>
        <pt x="510" y="548" on="1"/>
        <pt x="556" y="512" on="1"/>
      </contour>
    </TTGlyph>
    <TTGlyph name="Otilde" xMin="49" yMin="-12" xMax="626" yMax="829">
      <component glyphName="O" x="0" y="0" flags="0x204"/>
      <component glyphName="uni0303.cap" x="337" y="0" flags="0x4"/>
    </TTGlyph>
    <TTGlyph name="Otilde.sc" xMin="49" yMin="-12" xMax="554" yMax="717">
      <component glyphName="O.sc" x="0" y="0" flags="0x204"/>
      <component glyphName="uni0303.cap" x="302" y="-112" flags="0x4"/>
    </TTGlyph>
    <TTGlyph name="P" xMin="83" yMin="0" xMax="552" yMax="654">
      <contour>
        <pt x="83" y="654" on="1"/>
        <pt x="303" y="654" on="1"/>
        <pt x="357" y="654" on="0"/>
        <pt x="448" y="634" on="0"/>
        <pt x="514" y="586" on="0"/>
        <pt x="552" y="509" on="0"/>
        <pt x="552" y="452" on="1"/>
        <pt x="552" y="398" on="0"/>
        <pt x="514" y="318" on="0"/>
        <pt x="447" y="265" on="0"/>
        <pt x="356" y="240" on="0"/>
        <pt x="303" y="240" on="1"/>
        <pt x="199" y="240" on="1"/>
        <pt x="199" y="0" on="1"/>
        <pt x="83" y="0" on="1"/>
      </contour>
      <contour>
        <pt x="294" y="333" on="1"/>
        <pt x="438" y="333" on="0"/>
        <pt x="438" y="452" on="1"/>
        <pt x="438" y="514" on="0"/>
        <pt x="366" y="561" on="0"/>
        <pt x="294" y="561" on="1"/>
        <pt x="199" y="561" on="1"/>
        <pt x="199" y="333" on="1"/>
      </contour>
    </TTGlyph>
    <TTGlyph name="P.sc" xMin="83" yMin="0" xMax="496" yMax="523">
      <contour>
        <pt x="83" y="523" on="1"/>
        <pt x="279" y="523" on="1"/>
        <pt x="325" y="523" on="0"/>
        <pt x="404" y="506" on="0"/>
        <pt x="462" y="467" on="0"/>
        <pt x="496" y="403" on="0"/>
        <pt x="496" y="356" on="1"/>
        <pt x="496" y="310" on="0"/>
        <pt x="462" y="244" on="0"/>
        <pt x="403" y="202" on="0"/>
        <pt x="324" y="182" on="0"/>
        <pt x="279" y="182" on="1"/>
        <pt x="199" y="182" on="1"/>
        <pt x="199" y="0" on="1"/>
        <pt x="83" y="0" on="1"/>
      </contour>
      <contour>
        <pt x="274" y="262" on="1"/>
        <pt x="385" y="262" on="0"/>
        <pt x="385" y="350" on="1"/>
        <pt x="385" y="395" on="0"/>
        <pt x="329" y="432" on="0"/>
        <pt x="272" y="432" on="1"/>
        <pt x="199" y="432" on="1"/>
        <pt x="199" y="262" on="1"/>
      </contour>
    </TTGlyph>
    <TTGlyph name="P.sups" xMin="53" yMin="264" xMax="373" yMax="696">
      <contour>
        <pt x="53" y="696" on="1"/>
        <pt x="205" y="696" on="1"/>
        <pt x="241" y="696" on="0"/>
        <pt x="302" y="682" on="0"/>
        <pt x="347" y="651" on="0"/>
        <pt x="373" y="599" on="0"/>
        <pt x="373" y="562" on="1"/>
        <pt x="373" y="525" on="0"/>
        <pt x="347" y="471" on="0"/>
        <pt x="301" y="436" on="0"/>
        <pt x="240" y="419" on="0"/>
        <pt x="205" y="419" on="1"/>
        <pt x="137" y="419" on="1"/>
        <pt x="137" y="264" on="1"/>
        <pt x="53" y="264" on="1"/>
      </contour>
      <contour>
        <pt x="198" y="485" on="1"/>
        <pt x="291" y="485" on="0"/>
        <pt x="291" y="562" on="1"/>
        <pt x="291" y="600" on="0"/>
        <pt x="244" y="630" on="0"/>
        <pt x="198" y="630" on="1"/>
        <pt x="137" y="630" on="1"/>
        <pt x="137" y="485" on="1"/>
      </contour>
    </TTGlyph>
    <TTGlyph name="Q" xMin="49" yMin="-171" xMax="650" yMax="666">
      <contour>
        <pt x="168" y="330" on="1"/>
        <pt x="168" y="273" on="0"/>
        <pt x="192" y="181" on="0"/>
        <pt x="236" y="117" on="0"/>
        <pt x="298" y="83" on="0"/>
        <pt x="337" y="83" on="1"/>
        <pt x="376" y="83" on="0"/>
        <pt x="438" y="117" on="0"/>
        <pt x="482" y="181" on="0"/>
        <pt x="506" y="273" on="0"/>
        <pt x="506" y="330" on="1"/>
        <pt x="506" y="440" on="0"/>
        <pt x="415" y="565" on="0"/>
        <pt x="337" y="565" on="1"/>
        <pt x="259" y="565" on="0"/>
        <pt x="168" y="440" on="0"/>
      </contour>
      <contour>
        <pt x="650" y="-153" on="1"/>
        <pt x="633" y="-161" on="0"/>
        <pt x="579" y="-171" on="0"/>
        <pt x="545" y="-171" on="1"/>
        <pt x="447" y="-171" on="0"/>
        <pt x="315" y="-79" on="0"/>
        <pt x="283" y="-7" on="1"/>
        <pt x="230" y="2" on="0"/>
        <pt x="144" y="57" on="0"/>
        <pt x="82" y="143" on="0"/>
        <pt x="49" y="259" on="0"/>
        <pt x="49" y="330" on="1"/>
        <pt x="49" y="409" on="0"/>
        <pt x="91" y="534" on="0"/>
        <pt x="167" y="620" on="0"/>
        <pt x="273" y="666" on="0"/>
        <pt x="337" y="666" on="1"/>
        <pt x="401" y="666" on="0"/>
        <pt x="507" y="620" on="0"/>
        <pt x="584" y="534" on="0"/>
        <pt x="626" y="409" on="0"/>
        <pt x="626" y="330" on="1"/>
        <pt x="626" y="262" on="0"/>
        <pt x="595" y="149" on="0"/>
        <pt x="537" y="63" on="0"/>
        <pt x="456" y="7" on="0"/>
        <pt x="406" y="-4" on="1"/>
        <pt x="429" y="-43" on="0"/>
        <pt x="510" y="-77" on="0"/>
        <pt x="558" y="-77" on="1"/>
        <pt x="580" y="-77" on="0"/>
        <pt x="615" y="-71" on="0"/>
        <pt x="629" y="-66" on="1"/>
      </contour>
    </TTGlyph>
    <TTGlyph name="Q.sc" xMin="48" yMin="-161" xMax="570" yMax="535">
      <contour>
        <pt x="167" y="264" on="1"/>
        <pt x="167" y="176" on="0"/>
        <pt x="238" y="77" on="0"/>
        <pt x="301" y="77" on="1"/>
        <pt x="362" y="77" on="0"/>
        <pt x="434" y="176" on="0"/>
        <pt x="434" y="264" on="1"/>
        <pt x="434" y="347" on="0"/>
        <pt x="362" y="439" on="0"/>
        <pt x="301" y="439" on="1"/>
        <pt x="238" y="439" on="0"/>
        <pt x="167" y="347" on="0"/>
      </contour>
      <contour>
        <pt x="570" y="-144" on="1"/>
        <pt x="555" y="-152" on="0"/>
        <pt x="506" y="-161" on="0"/>
        <pt x="475" y="-161" on="1"/>
        <pt x="384" y="-161" on="0"/>
        <pt x="271" y="-75" on="0"/>
        <pt x="243" y="-6" on="1"/>
        <pt x="154" y="11" on="0"/>
        <pt x="48" y="152" on="0"/>
        <pt x="48" y="264" on="1"/>
        <pt x="48" y="328" on="0"/>
        <pt x="85" y="429" on="0"/>
        <pt x="152" y="499" on="0"/>
        <pt x="245" y="535" on="0"/>
        <pt x="301" y="535" on="1"/>
        <pt x="356" y="535" on="0"/>
        <pt x="449" y="498" on="0"/>
        <pt x="516" y="429" on="0"/>
        <pt x="553" y="328" on="0"/>
        <pt x="553" y="264" on="1"/>
        <pt x="553" y="152" on="0"/>
        <pt x="448" y="13" on="0"/>
        <pt x="361" y="-6" on="1"/>
        <pt x="380" y="-44" on="0"/>
        <pt x="446" y="-70" on="0"/>
        <pt x="488" y="-70" on="1"/>
        <pt x="506" y="-70" on="0"/>
        <pt x="536" y="-65" on="0"/>
        <pt x="549" y="-61" on="1"/>
      </contour>
    </TTGlyph>
    <TTGlyph name="Q.sups" xMin="29" yMin="150" xMax="438" yMax="704">
      <contour>
        <pt x="115" y="482" on="1"/>
        <pt x="115" y="410" on="0"/>
        <pt x="173" y="325" on="0"/>
        <pt x="224" y="325" on="1"/>
        <pt x="275" y="325" on="0"/>
        <pt x="334" y="410" on="0"/>
        <pt x="334" y="482" on="1"/>
        <pt x="334" y="553" on="0"/>
        <pt x="275" y="632" on="0"/>
        <pt x="224" y="632" on="1"/>
        <pt x="173" y="632" on="0"/>
        <pt x="115" y="553" on="0"/>
      </contour>
      <contour>
        <pt x="438" y="163" on="1"/>
        <pt x="427" y="158" on="0"/>
        <pt x="389" y="150" on="0"/>
        <pt x="365" y="150" on="1"/>
        <pt x="298" y="150" on="0"/>
        <pt x="207" y="211" on="0"/>
        <pt x="186" y="259" on="1"/>
        <pt x="115" y="272" on="0"/>
        <pt x="29" y="388" on="0"/>
        <pt x="29" y="482" on="1"/>
        <pt x="29" y="534" on="0"/>
        <pt x="58" y="617" on="0"/>
        <pt x="109" y="674" on="0"/>
        <pt x="181" y="704" on="0"/>
        <pt x="224" y="704" on="1"/>
        <pt x="267" y="704" on="0"/>
        <pt x="339" y="674" on="0"/>
        <pt x="391" y="617" on="0"/>
        <pt x="420" y="534" on="0"/>
        <pt x="420" y="482" on="1"/>
        <pt x="420" y="393" on="0"/>
        <pt x="340" y="279" on="0"/>
        <pt x="274" y="262" on="1"/>
        <pt x="290" y="237" on="0"/>
        <pt x="344" y="218" on="0"/>
        <pt x="375" y="218" on="1"/>
        <pt x="390" y="218" on="0"/>
        <pt x="413" y="222" on="0"/>
        <pt x="423" y="224" on="1"/>
      </contour>
    </TTGlyph>
    <TTGlyph name="R" xMin="83" yMin="0" xMax="570" yMax="654">
      <contour>
        <pt x="199" y="348" on="1"/>
        <pt x="292" y="348" on="1"/>
        <pt x="359" y="348" on="0"/>
        <pt x="430" y="404" on="0"/>
        <pt x="430" y="460" on="1"/>
        <pt x="430" y="517" on="0"/>
        <pt x="359" y="561" on="0"/>
        <pt x="292" y="561" on="1"/>
        <pt x="199" y="561" on="1"/>
      </contour>
      <contour>
        <pt x="440" y="0" on="1"/>
        <pt x="299" y="256" on="1"/>
        <pt x="199" y="256" on="1"/>
        <pt x="199" y="0" on="1"/>
        <pt x="83" y="0" on="1"/>
        <pt x="83" y="654" on="1"/>
        <pt x="304" y="654" on="1"/>
        <pt x="355" y="654" on="0"/>
        <pt x="443" y="634" on="0"/>
        <pt x="507" y="589" on="0"/>
        <pt x="544" y="515" on="0"/>
        <pt x="544" y="460" on="1"/>
        <pt x="544" y="385" on="0"/>
        <pt x="473" y="293" on="0"/>
        <pt x="414" y="273" on="1"/>
        <pt x="570" y="0" on="1"/>
      </contour>
    </TTGlyph>
    <TTGlyph name="R.sc" xMin="83" yMin="0" xMax="514" yMax="523">
      <contour>
        <pt x="199" y="272" on="1"/>
        <pt x="269" y="272" on="1"/>
        <pt x="325" y="272" on="0"/>
        <pt x="380" y="315" on="0"/>
        <pt x="380" y="355" on="1"/>
        <pt x="380" y="397" on="0"/>
        <pt x="322" y="432" on="0"/>
        <pt x="268" y="432" on="1"/>
        <pt x="199" y="432" on="1"/>
      </contour>
      <contour>
        <pt x="391" y="0" on="1"/>
        <pt x="278" y="191" on="1"/>
        <pt x="199" y="191" on="1"/>
        <pt x="199" y="0" on="1"/>
        <pt x="83" y="0" on="1"/>
        <pt x="83" y="523" on="1"/>
        <pt x="278" y="523" on="1"/>
        <pt x="322" y="523" on="0"/>
        <pt x="400" y="507" on="0"/>
        <pt x="457" y="470" on="0"/>
        <pt x="490" y="407" on="0"/>
        <pt x="490" y="361" on="1"/>
        <pt x="490" y="304" on="0"/>
        <pt x="433" y="229" on="0"/>
        <pt x="385" y="210" on="1"/>
        <pt x="514" y="0" on="1"/>
      </contour>
    </TTGlyph>
    <TTGlyph name="R.sups" xMin="53" yMin="264" xMax="386" yMax="696">
      <contour>
        <pt x="137" y="495" on="1"/>
        <pt x="196" y="495" on="1"/>
        <pt x="285" y="495" on="0"/>
        <pt x="285" y="565" on="1"/>
        <pt x="285" y="600" on="0"/>
        <pt x="240" y="630" on="0"/>
        <pt x="196" y="630" on="1"/>
        <pt x="137" y="630" on="1"/>
      </contour>
      <contour>
        <pt x="292" y="264" on="1"/>
        <pt x="202" y="429" on="1"/>
        <pt x="137" y="429" on="1"/>
        <pt x="137" y="264" on="1"/>
        <pt x="53" y="264" on="1"/>
        <pt x="53" y="696" on="1"/>
        <pt x="204" y="696" on="1"/>
        <pt x="238" y="696" on="0"/>
        <pt x="298" y="683" on="0"/>
        <pt x="343" y="653" on="0"/>
        <pt x="368" y="603" on="0"/>
        <pt x="368" y="567" on="1"/>
        <pt x="368" y="519" on="0"/>
        <pt x="321" y="457" on="0"/>
        <pt x="283" y="443" on="1"/>
        <pt x="386" y="264" on="1"/>
      </contour>
    </TTGlyph>
    <TTGlyph name="Racute" xMin="83" yMin="0" xMax="570" yMax="820">
      <component glyphName="R" x="0" y="0" flags="0x204"/>
      <component glyphName="uni0301.cap" x="302" y="0" flags="0x4"/>
    </TTGlyph>
    <TTGlyph name="Racute.sc" xMin="83" yMin="0" xMax="514" yMax="708">
      <component glyphName="R.sc" x="0" y="0" flags="0x204"/>
      <component glyphName="uni0301.cap" x="291" y="-112" flags="0x4"/>
    </TTGlyph>
    <TTGlyph name="Rcaron" xMin="83" yMin="0" xMax="570" yMax="820">
      <component glyphName="R" x="0" y="0" flags="0x204"/>
      <component glyphName="uni030C.cap" x="302" y="0" flags="0x4"/>
    </TTGlyph>
    <TTGlyph name="Rcaron.sc" xMin="83" yMin="0" xMax="514" yMax="708">
      <component glyphName="R.sc" x="0" y="0" flags="0x204"/>
      <component glyphName="uni030C.cap" x="291" y="-112" flags="0x4"/>
    </TTGlyph>
    <TTGlyph name="S" xMin="38" yMin="-12" xMax="509" yMax="666">
      <contour>
        <pt x="106" y="163" on="1"/>
        <pt x="141" y="130" on="0"/>
        <pt x="231" y="89" on="0"/>
        <pt x="276" y="89" on="1"/>
        <pt x="332" y="89" on="0"/>
        <pt x="390" y="135" on="0"/>
        <pt x="390" y="173" on="1"/>
        <pt x="390" y="193" on="0"/>
        <pt x="375" y="221" on="0"/>
        <pt x="348" y="242" on="0"/>
        <pt x="311" y="260" on="0"/>
        <pt x="289" y="269" on="1"/>
        <pt x="199" y="308" on="1"/>
        <pt x="175" y="318" on="0"/>
        <pt x="128" y="348" on="0"/>
        <pt x="90" y="390" on="0"/>
        <pt x="67" y="446" on="0"/>
        <pt x="67" y="482" on="1"/>
        <pt x="67" y="521" on="0"/>
        <pt x="100" y="588" on="0"/>
        <pt x="158" y="638" on="0"/>
        <pt x="239" y="666" on="0"/>
        <pt x="287" y="666" on="1"/>
        <pt x="344" y="666" on="0"/>
        <pt x="450" y="621" on="0"/>
        <pt x="488" y="583" on="1"/>
        <pt x="429" y="509" on="1"/>
        <pt x="397" y="535" on="0"/>
        <pt x="329" y="565" on="0"/>
        <pt x="287" y="565" on="1"/>
        <pt x="240" y="565" on="0"/>
        <pt x="184" y="524" on="0"/>
        <pt x="184" y="488" on="1"/>
        <pt x="184" y="469" on="0"/>
        <pt x="201" y="442" on="0"/>
        <pt x="230" y="421" on="0"/>
        <pt x="268" y="404" on="0"/>
        <pt x="288" y="396" on="1"/>
        <pt x="377" y="359" on="1"/>
        <pt x="406" y="347" on="0"/>
        <pt x="454" y="315" on="0"/>
        <pt x="489" y="273" on="0"/>
        <pt x="509" y="218" on="0"/>
        <pt x="509" y="182" on="1"/>
        <pt x="509" y="142" on="0"/>
        <pt x="477" y="72" on="0"/>
        <pt x="416" y="19" on="0"/>
        <pt x="329" y="-12" on="0"/>
        <pt x="274" y="-12" on="1"/>
        <pt x="208" y="-12" on="0"/>
        <pt x="85" y="38" on="0"/>
        <pt x="38" y="84" on="1"/>
      </contour>
    </TTGlyph>
    <TTGlyph name="S.sc" xMin="38" yMin="-12" xMax="453" yMax="536">
      <contour>
        <pt x="96" y="141" on="1"/>
        <pt x="131" y="112" on="0"/>
        <pt x="210" y="78" on="0"/>
        <pt x="254" y="78" on="1"/>
        <pt x="295" y="78" on="0"/>
        <pt x="337" y="112" on="0"/>
        <pt x="337" y="139" on="1"/>
        <pt x="337" y="169" on="0"/>
        <pt x="295" y="198" on="0"/>
        <pt x="263" y="211" on="1"/>
        <pt x="202" y="235" on="1"/>
        <pt x="175" y="245" on="0"/>
        <pt x="127" y="271" on="0"/>
        <pt x="90" y="306" on="0"/>
        <pt x="68" y="351" on="0"/>
        <pt x="68" y="381" on="1"/>
        <pt x="68" y="416" on="0"/>
        <pt x="96" y="473" on="0"/>
        <pt x="147" y="514" on="0"/>
        <pt x="219" y="536" on="0"/>
        <pt x="262" y="536" on="1"/>
        <pt x="323" y="536" on="0"/>
        <pt x="413" y="496" on="0"/>
        <pt x="445" y="470" on="1"/>
        <pt x="387" y="396" on="1"/>
        <pt x="360" y="417" on="0"/>
        <pt x="295" y="445" on="0"/>
        <pt x="260" y="445" on="1"/>
        <pt x="224" y="445" on="0"/>
        <pt x="183" y="415" on="0"/>
        <pt x="183" y="387" on="1"/>
        <pt x="183" y="363" on="0"/>
        <pt x="223" y="335" on="0"/>
        <pt x="258" y="321" on="1"/>
        <pt x="318" y="299" on="1"/>
        <pt x="347" y="288" on="0"/>
        <pt x="396" y="264" on="0"/>
        <pt x="432" y="230" on="0"/>
        <pt x="453" y="183" on="0"/>
        <pt x="453" y="149" on="1"/>
        <pt x="453" y="114" on="0"/>
        <pt x="425" y="56" on="0"/>
        <pt x="373" y="12" on="0"/>
        <pt x="297" y="-12" on="0"/>
        <pt x="249" y="-12" on="1"/>
        <pt x="186" y="-12" on="0"/>
        <pt x="77" y="30" on="0"/>
        <pt x="38" y="63" on="1"/>
      </contour>
    </TTGlyph>
    <TTGlyph name="S.sups" xMin="24" yMin="256" xMax="342" yMax="705">
      <contour>
        <pt x="73" y="376" on="1"/>
        <pt x="96" y="353" on="0"/>
        <pt x="158" y="328" on="0"/>
        <pt x="189" y="328" on="1"/>
        <pt x="224" y="328" on="0"/>
        <pt x="258" y="358" on="0"/>
        <pt x="258" y="381" on="1"/>
        <pt x="258" y="406" on="0"/>
        <pt x="221" y="429" on="0"/>
        <pt x="192" y="441" on="1"/>
        <pt x="132" y="467" on="1"/>
        <pt x="114" y="475" on="0"/>
        <pt x="82" y="495" on="0"/>
        <pt x="57" y="522" on="0"/>
        <pt x="43" y="558" on="0"/>
        <pt x="43" y="581" on="1"/>
        <pt x="43" y="607" on="0"/>
        <pt x="65" y="652" on="0"/>
        <pt x="105" y="686" on="0"/>
        <pt x="160" y="705" on="0"/>
        <pt x="193" y="705" on="1"/>
        <pt x="231" y="705" on="0"/>
        <pt x="303" y="675" on="0"/>
        <pt x="330" y="649" on="1"/>
        <pt x="287" y="597" on="1"/>
        <pt x="266" y="614" on="0"/>
        <pt x="219" y="635" on="0"/>
        <pt x="190" y="635" on="1"/>
        <pt x="160" y="635" on="0"/>
        <pt x="128" y="609" on="0"/>
        <pt x="128" y="587" on="1"/>
        <pt x="128" y="563" on="0"/>
        <pt x="169" y="538" on="0"/>
        <pt x="196" y="527" on="1"/>
        <pt x="255" y="502" on="1"/>
        <pt x="298" y="483" on="0"/>
        <pt x="342" y="435" on="0"/>
        <pt x="342" y="391" on="1"/>
        <pt x="342" y="363" on="0"/>
        <pt x="321" y="314" on="0"/>
        <pt x="280" y="277" on="0"/>
        <pt x="221" y="256" on="0"/>
        <pt x="184" y="256" on="1"/>
        <pt x="139" y="256" on="0"/>
        <pt x="56" y="288" on="0"/>
        <pt x="24" y="320" on="1"/>
      </contour>
    </TTGlyph>
    <TTGlyph name="Sacute" xMin="38" yMin="-12" xMax="509" yMax="820">
      <component glyphName="S" x="0" y="0" flags="0x204"/>
      <component glyphName="uni0301.cap" x="285" y="0" flags="0x4"/>
    </TTGlyph>
    <TTGlyph name="Sacute.sc" xMin="38" yMin="-12" xMax="453" yMax="708">
      <component glyphName="S.sc" x="0" y="0" flags="0x204"/>
      <component glyphName="uni0301.cap" x="263" y="-112" flags="0x4"/>
    </TTGlyph>
    <TTGlyph name="Scaron" xMin="38" yMin="-12" xMax="509" yMax="820">
      <component glyphName="S" x="0" y="0" flags="0x204"/>
      <component glyphName="uni030C.cap" x="285" y="0" flags="0x4"/>
    </TTGlyph>
    <TTGlyph name="Scaron.sc" xMin="38" yMin="-12" xMax="453" yMax="708">
      <component glyphName="S.sc" x="0" y="0" flags="0x204"/>
      <component glyphName="uni030C.cap" x="263" y="-112" flags="0x4"/>
    </TTGlyph>
    <TTGlyph name="Scircumflex" xMin="38" yMin="-12" xMax="509" yMax="820">
      <component glyphName="S" x="0" y="0" flags="0x204"/>
      <component glyphName="uni0302.cap" x="285" y="0" flags="0x4"/>
    </TTGlyph>
    <TTGlyph name="Scircumflex.sc" xMin="38" yMin="-12" xMax="453" yMax="708">
      <component glyphName="S.sc" x="0" y="0" flags="0x204"/>
      <component glyphName="uni0302.cap" x="263" y="-112" flags="0x4"/>
    </TTGlyph>
    <TTGlyph name="T" xMin="26" yMin="0" xMax="520" yMax="654">
      <contour>
        <pt x="215" y="556" on="1"/>
        <pt x="26" y="556" on="1"/>
        <pt x="26" y="654" on="1"/>
        <pt x="520" y="654" on="1"/>
        <pt x="520" y="556" on="1"/>
        <pt x="331" y="556" on="1"/>
        <pt x="331" y="0" on="1"/>
        <pt x="215" y="0" on="1"/>
      </contour>
    </TTGlyph>
    <TTGlyph name="T.sc" xMin="26" yMin="0" xMax="453" yMax="523">
      <contour>
        <pt x="182" y="428" on="1"/>
        <pt x="26" y="428" on="1"/>
        <pt x="26" y="523" on="1"/>
        <pt x="453" y="523" on="1"/>
        <pt x="453" y="428" on="1"/>
        <pt x="298" y="428" on="1"/>
        <pt x="298" y="0" on="1"/>
        <pt x="182" y="0" on="1"/>
      </contour>
    </TTGlyph>
    <TTGlyph name="T.sups" xMin="16" yMin="264" xMax="350" yMax="696">
      <contour>
        <pt x="142" y="627" on="1"/>
        <pt x="16" y="627" on="1"/>
        <pt x="16" y="696" on="1"/>
        <pt x="350" y="696" on="1"/>
        <pt x="350" y="627" on="1"/>
        <pt x="226" y="627" on="1"/>
        <pt x="226" y="264" on="1"/>
        <pt x="142" y="264" on="1"/>
      </contour>
    </TTGlyph>
    <TTGlyph name="Tcaron" xMin="26" yMin="0" xMax="520" yMax="820">
      <component glyphName="T" x="0" y="0" flags="0x204"/>
      <component glyphName="uni030C.cap" x="273" y="0" flags="0x4"/>
    </TTGlyph>
    <TTGlyph name="Tcaron.sc" xMin="26" yMin="0" xMax="453" yMax="708">
      <component glyphName="T.sc" x="0" y="0" flags="0x204"/>
      <component glyphName="uni030C.cap" x="239" y="-112" flags="0x4"/>
    </TTGlyph>
    <TTGlyph name="Thorn" xMin="83" yMin="0" xMax="552" yMax="654">
      <contour>
        <pt x="83" y="654" on="1"/>
        <pt x="199" y="654" on="1"/>
        <pt x="199" y="550" on="1"/>
        <pt x="303" y="550" on="1"/>
        <pt x="357" y="550" on="0"/>
        <pt x="448" y="529" on="0"/>
        <pt x="514" y="482" on="0"/>
        <pt x="552" y="405" on="0"/>
        <pt x="552" y="348" on="1"/>
        <pt x="552" y="293" on="0"/>
        <pt x="514" y="213" on="0"/>
        <pt x="447" y="161" on="0"/>
        <pt x="356" y="136" on="0"/>
        <pt x="303" y="136" on="1"/>
        <pt x="199" y="136" on="1"/>
        <pt x="199" y="0" on="1"/>
        <pt x="83" y="0" on="1"/>
      </contour>
      <contour>
        <pt x="294" y="229" on="1"/>
        <pt x="438" y="229" on="0"/>
        <pt x="438" y="348" on="1"/>
        <pt x="438" y="409" on="0"/>
        <pt x="366" y="457" on="0"/>
        <pt x="294" y="457" on="1"/>
        <pt x="199" y="457" on="1"/>
        <pt x="199" y="229" on="1"/>
      </contour>
    </TTGlyph>
    <TTGlyph name="Thorn.sc" xMin="83" yMin="0" xMax="496" yMax="523">
      <contour>
        <pt x="83" y="523" on="1"/>
        <pt x="199" y="523" on="1"/>
        <pt x="199" y="440" on="1"/>
        <pt x="279" y="440" on="1"/>
        <pt x="324" y="440" on="0"/>
        <pt x="404" y="424" on="0"/>
        <pt x="462" y="386" on="0"/>
        <pt x="496" y="322" on="0"/>
        <pt x="496" y="275" on="1"/>
        <pt x="496" y="230" on="0"/>
        <pt x="462" y="164" on="0"/>
        <pt x="403" y="122" on="0"/>
        <pt x="324" y="102" on="0"/>
        <pt x="279" y="102" on="1"/>
        <pt x="199" y="102" on="1"/>
        <pt x="199" y="0" on="1"/>
        <pt x="83" y="0" on="1"/>
      </contour>
      <contour>
        <pt x="272" y="187" on="1"/>
        <pt x="382" y="187" on="0"/>
        <pt x="382" y="275" on="1"/>
        <pt x="382" y="321" on="0"/>
        <pt x="326" y="355" on="0"/>
        <pt x="272" y="355" on="1"/>
        <pt x="199" y="355" on="1"/>
        <pt x="199" y="187" on="1"/>
      </contour>
    </TTGlyph>
    <TTGlyph name="U" xMin="80" yMin="-12" xMax="575" yMax="654">
      <contour>
        <pt x="80" y="654" on="1"/>
        <pt x="196" y="654" on="1"/>
        <pt x="196" y="278" on="1"/>
        <pt x="196" y="225" on="0"/>
        <pt x="215" y="152" on="0"/>
        <pt x="250" y="108" on="0"/>
        <pt x="298" y="89" on="0"/>
        <pt x="328" y="89" on="1"/>
        <pt x="358" y="89" on="0"/>
        <pt x="408" y="108" on="0"/>
        <pt x="444" y="152" on="0"/>
        <pt x="464" y="225" on="0"/>
        <pt x="464" y="278" on="1"/>
        <pt x="464" y="654" on="1"/>
        <pt x="575" y="654" on="1"/>
        <pt x="575" y="287" on="1"/>
        <pt x="575" y="206" on="0"/>
        <pt x="541" y="93" on="0"/>
        <pt x="476" y="21" on="0"/>
        <pt x="385" y="-12" on="0"/>
        <pt x="328" y="-12" on="1"/>
        <pt x="271" y="-12" on="0"/>
        <pt x="180" y="21" on="0"/>
        <pt x="115" y="93" on="0"/>
        <pt x="80" y="206" on="0"/>
        <pt x="80" y="287" on="1"/>
      </contour>
    </TTGlyph>
    <TTGlyph name="U.sc" xMin="80" yMin="-12" xMax="515" yMax="523">
      <contour>
        <pt x="80" y="523" on="1"/>
        <pt x="195" y="523" on="1"/>
        <pt x="195" y="226" on="1"/>
        <pt x="195" y="146" on="0"/>
        <pt x="251" y="84" on="0"/>
        <pt x="300" y="84" on="1"/>
        <pt x="349" y="84" on="0"/>
        <pt x="405" y="146" on="0"/>
        <pt x="405" y="226" on="1"/>
        <pt x="405" y="523" on="1"/>
        <pt x="515" y="523" on="1"/>
        <pt x="515" y="230" on="1"/>
        <pt x="515" y="164" on="0"/>
        <pt x="485" y="72" on="0"/>
        <pt x="430" y="14" on="0"/>
        <pt x="350" y="-12" on="0"/>
        <pt x="299" y="-12" on="1"/>
        <pt x="248" y="-12" on="0"/>
        <pt x="167" y="14" on="0"/>
        <pt x="110" y="72" on="0"/>
        <pt x="80" y="164" on="0"/>
        <pt x="80" y="230" on="1"/>
      </contour>
    </TTGlyph>
    <TTGlyph name="U.sups" xMin="52" yMin="256" xMax="388" yMax="696">
      <contour>
        <pt x="52" y="696" on="1"/>
        <pt x="135" y="696" on="1"/>
        <pt x="135" y="450" on="1"/>
        <pt x="135" y="381" on="0"/>
        <pt x="182" y="328" on="0"/>
        <pt x="222" y="328" on="1"/>
        <pt x="260" y="328" on="0"/>
        <pt x="308" y="381" on="0"/>
        <pt x="308" y="450" on="1"/>
        <pt x="308" y="696" on="1"/>
        <pt x="388" y="696" on="1"/>
        <pt x="388" y="457" on="1"/>
        <pt x="388" y="350" on="0"/>
        <pt x="300" y="256" on="0"/>
        <pt x="222" y="256" on="1"/>
        <pt x="140" y="256" on="0"/>
        <pt x="52" y="350" on="0"/>
        <pt x="52" y="457" on="1"/>
      </contour>
    </TTGlyph>
    <TTGlyph name="Uacute" xMin="80" yMin="-12" xMax="575" yMax="820">
      <component glyphName="U" x="0" y="0" flags="0x204"/>
      <component glyphName="uni0301.cap" x="327" y="0" flags="0x4"/>
    </TTGlyph>
    <TTGlyph name="Uacute.sc" xMin="80" yMin="-12" xMax="515" yMax="708">
      <component glyphName="U.sc" x="0" y="0" flags="0x204"/>
      <component glyphName="uni0301.cap" x="297" y="-112" flags="0x4"/>
    </TTGlyph>
    <TTGlyph name="Ubreve" xMin="80" yMin="-12" xMax="575" yMax="820">
      <component glyphName="U" x="0" y="0" flags="0x204"/>
      <component glyphName="uni0306.cap" x="327" y="0" flags="0x4"/>
    </TTGlyph>
    <TTGlyph name="Ubreve.sc" xMin="80" yMin="-12" xMax="515" yMax="708">
      <component glyphName="U.sc" x="0" y="0" flags="0x204"/>
      <component glyphName="uni0306.cap" x="297" y="-112" flags="0x4"/>
    </TTGlyph>
    <TTGlyph name="Ucircumflex" xMin="80" yMin="-12" xMax="575" yMax="820">
      <component glyphName="U" x="0" y="0" flags="0x204"/>
      <component glyphName="uni0302.cap" x="327" y="0" flags="0x4"/>
    </TTGlyph>
    <TTGlyph name="Ucircumflex.sc" xMin="80" yMin="-12" xMax="515" yMax="708">
      <component glyphName="U.sc" x="0" y="0" flags="0x204"/>
      <component glyphName="uni0302.cap" x="297" y="-112" flags="0x4"/>
    </TTGlyph>
    <TTGlyph name="Udieresis" xMin="80" yMin="-12" xMax="575" yMax="827">
      <component glyphName="U" x="0" y="0" flags="0x204"/>
      <component glyphName="uni0308.cap" x="327" y="0" flags="0x4"/>
    </TTGlyph>
    <TTGlyph name="Udieresis.sc" xMin="80" yMin="-12" xMax="515" yMax="715">
      <component glyphName="U.sc" x="0" y="0" flags="0x204"/>
      <component glyphName="uni0308.cap" x="297" y="-112" flags="0x4"/>
    </TTGlyph>
    <TTGlyph name="Ugrave" xMin="80" yMin="-12" xMax="575" yMax="820">
      <component glyphName="U" x="0" y="0" flags="0x204"/>
      <component glyphName="uni0300.cap" x="327" y="0" flags="0x4"/>
    </TTGlyph>
    <TTGlyph name="Ugrave.sc" xMin="80" yMin="-12" xMax="515" yMax="708">
      <component glyphName="U.sc" x="0" y="0" flags="0x204"/>
      <component glyphName="uni0300.cap" x="297" y="-112" flags="0x4"/>
    </TTGlyph>
    <TTGlyph name="Uhorn" xMin="80" yMin="-12" xMax="692" yMax="798">
      <contour>
        <pt x="666" y="798" on="1"/>
        <pt x="677" y="784" on="0"/>
        <pt x="692" y="748" on="0"/>
        <pt x="692" y="726" on="1"/>
        <pt x="692" y="673" on="0"/>
        <pt x="624" y="619" on="0"/>
        <pt x="575" y="609" on="1"/>
        <pt x="575" y="287" on="1"/>
        <pt x="575" y="206" on="0"/>
        <pt x="541" y="93" on="0"/>
        <pt x="476" y="21" on="0"/>
        <pt x="385" y="-12" on="0"/>
        <pt x="328" y="-12" on="1"/>
        <pt x="271" y="-12" on="0"/>
        <pt x="180" y="21" on="0"/>
        <pt x="115" y="93" on="0"/>
        <pt x="80" y="206" on="0"/>
        <pt x="80" y="287" on="1"/>
        <pt x="80" y="654" on="1"/>
        <pt x="196" y="654" on="1"/>
        <pt x="196" y="278" on="1"/>
        <pt x="196" y="225" on="0"/>
        <pt x="215" y="152" on="0"/>
        <pt x="250" y="108" on="0"/>
        <pt x="298" y="89" on="0"/>
        <pt x="328" y="89" on="1"/>
        <pt x="358" y="89" on="0"/>
        <pt x="408" y="108" on="0"/>
        <pt x="444" y="152" on="0"/>
        <pt x="464" y="225" on="0"/>
        <pt x="464" y="278" on="1"/>
        <pt x="464" y="654" on="1"/>
        <pt x="515" y="654" on="1"/>
        <pt x="550" y="656" on="0"/>
        <pt x="601" y="682" on="0"/>
        <pt x="601" y="718" on="1"/>
        <pt x="601" y="731" on="0"/>
        <pt x="592" y="753" on="0"/>
        <pt x="586" y="762" on="1"/>
      </contour>
    </TTGlyph>
    <TTGlyph name="Uhorn.sc" xMin="80" yMin="-12" xMax="632" yMax="668">
      <contour>
        <pt x="606" y="668" on="1"/>
        <pt x="617" y="654" on="0"/>
        <pt x="632" y="617" on="0"/>
        <pt x="632" y="595" on="1"/>
        <pt x="632" y="542" on="0"/>
        <pt x="564" y="488" on="0"/>
        <pt x="515" y="478" on="1"/>
        <pt x="515" y="230" on="1"/>
        <pt x="515" y="164" on="0"/>
        <pt x="485" y="72" on="0"/>
        <pt x="430" y="14" on="0"/>
        <pt x="350" y="-12" on="0"/>
        <pt x="299" y="-12" on="1"/>
        <pt x="248" y="-12" on="0"/>
        <pt x="167" y="14" on="0"/>
        <pt x="110" y="72" on="0"/>
        <pt x="80" y="164" on="0"/>
        <pt x="80" y="230" on="1"/>
        <pt x="80" y="523" on="1"/>
        <pt x="195" y="523" on="1"/>
        <pt x="195" y="226" on="1"/>
        <pt x="195" y="146" on="0"/>
        <pt x="251" y="84" on="0"/>
        <pt x="300" y="84" on="1"/>
        <pt x="349" y="84" on="0"/>
        <pt x="405" y="146" on="0"/>
        <pt x="405" y="226" on="1"/>
        <pt x="405" y="523" on="1"/>
        <pt x="455" y="523" on="1"/>
        <pt x="490" y="525" on="0"/>
        <pt x="541" y="551" on="0"/>
        <pt x="541" y="587" on="1"/>
        <pt x="541" y="600" on="0"/>
        <pt x="532" y="622" on="0"/>
        <pt x="526" y="631" on="1"/>
      </contour>
    </TTGlyph>
    <TTGlyph name="Uhungarumlaut" xMin="80" yMin="-12" xMax="575" yMax="820">
      <component glyphName="U" x="0" y="0" flags="0x204"/>
      <component glyphName="uni030B.cap" x="327" y="0" flags="0x4"/>
    </TTGlyph>
    <TTGlyph name="Uhungarumlaut.sc" xMin="80" yMin="-12" xMax="515" yMax="708">
      <component glyphName="U.sc" x="0" y="0" flags="0x204"/>
      <component glyphName="uni030B.cap" x="297" y="-112" flags="0x4"/>
    </TTGlyph>
    <TTGlyph name="Umacron" xMin="80" yMin="-12" xMax="575" yMax="800">
      <component glyphName="U" x="0" y="0" flags="0x204"/>
      <component glyphName="uni0304.cap" x="327" y="0" flags="0x4"/>
    </TTGlyph>
    <TTGlyph name="Umacron.sc" xMin="80" yMin="-12" xMax="515" yMax="688">
      <component glyphName="U.sc" x="0" y="0" flags="0x204"/>
      <component glyphName="uni0304.cap" x="297" y="-112" flags="0x4"/>
    </TTGlyph>
    <TTGlyph name="Uogonek" xMin="80" yMin="-218" xMax="575" yMax="654">
      <contour>
        <pt x="80" y="654" on="1"/>
        <pt x="196" y="654" on="1"/>
        <pt x="196" y="278" on="1"/>
        <pt x="196" y="225" on="0"/>
        <pt x="215" y="152" on="0"/>
        <pt x="250" y="108" on="0"/>
        <pt x="298" y="89" on="0"/>
        <pt x="328" y="89" on="1"/>
        <pt x="358" y="89" on="0"/>
        <pt x="408" y="108" on="0"/>
        <pt x="444" y="152" on="0"/>
        <pt x="464" y="225" on="0"/>
        <pt x="464" y="278" on="1"/>
        <pt x="464" y="654" on="1"/>
        <pt x="575" y="654" on="1"/>
        <pt x="575" y="287" on="1"/>
        <pt x="575" y="219" on="0"/>
        <pt x="554" y="125" on="0"/>
        <pt x="512" y="58" on="0"/>
        <pt x="450" y="13" on="0"/>
        <pt x="410" y="-6" on="1"/>
        <pt x="372" y="-24" on="0"/>
        <pt x="335" y="-75" on="0"/>
        <pt x="335" y="-98" on="1"/>
        <pt x="335" y="-120" on="0"/>
        <pt x="363" y="-140" on="0"/>
        <pt x="380" y="-140" on="1"/>
        <pt x="391" y="-140" on="0"/>
        <pt x="410" y="-132" on="0"/>
        <pt x="418" y="-126" on="1"/>
        <pt x="446" y="-186" on="1"/>
        <pt x="429" y="-200" on="0"/>
        <pt x="377" y="-218" on="0"/>
        <pt x="354" y="-218" on="1"/>
        <pt x="309" y="-218" on="0"/>
        <pt x="248" y="-172" on="0"/>
        <pt x="248" y="-127" on="1"/>
        <pt x="248" y="-105" on="0"/>
        <pt x="262" y="-69" on="0"/>
        <pt x="282" y="-40" on="0"/>
        <pt x="304" y="-19" on="0"/>
        <pt x="312" y="-11" on="1"/>
        <pt x="258" y="-8" on="0"/>
        <pt x="172" y="28" on="0"/>
        <pt x="112" y="100" on="0"/>
        <pt x="80" y="210" on="0"/>
        <pt x="80" y="287" on="1"/>
      </contour>
    </TTGlyph>
    <TTGlyph name="Uogonek.sc" xMin="80" yMin="-218" xMax="515" yMax="523">
      <contour>
        <pt x="515" y="230" on="1"/>
        <pt x="515" y="176" on="0"/>
        <pt x="497" y="100" on="0"/>
        <pt x="463" y="46" on="0"/>
        <pt x="413" y="9" on="0"/>
        <pt x="381" y="-6" on="1"/>
        <pt x="343" y="-24" on="0"/>
        <pt x="306" y="-75" on="0"/>
        <pt x="306" y="-98" on="1"/>
        <pt x="306" y="-120" on="0"/>
        <pt x="334" y="-140" on="0"/>
        <pt x="351" y="-140" on="1"/>
        <pt x="362" y="-140" on="0"/>
        <pt x="381" y="-132" on="0"/>
        <pt x="389" y="-126" on="1"/>
        <pt x="417" y="-186" on="1"/>
        <pt x="400" y="-200" on="0"/>
        <pt x="348" y="-218" on="0"/>
        <pt x="325" y="-218" on="1"/>
        <pt x="280" y="-218" on="0"/>
        <pt x="220" y="-172" on="0"/>
        <pt x="220" y="-127" on="1"/>
        <pt x="220" y="-105" on="0"/>
        <pt x="234" y="-69" on="0"/>
        <pt x="254" y="-40" on="0"/>
        <pt x="276" y="-19" on="0"/>
        <pt x="284" y="-11" on="1"/>
        <pt x="236" y="-8" on="0"/>
        <pt x="161" y="20" on="0"/>
        <pt x="108" y="78" on="0"/>
        <pt x="80" y="167" on="0"/>
        <pt x="80" y="230" on="1"/>
        <pt x="80" y="523" on="1"/>
        <pt x="195" y="523" on="1"/>
        <pt x="195" y="226" on="1"/>
        <pt x="195" y="146" on="0"/>
        <pt x="251" y="84" on="0"/>
        <pt x="300" y="84" on="1"/>
        <pt x="349" y="84" on="0"/>
        <pt x="405" y="146" on="0"/>
        <pt x="405" y="226" on="1"/>
        <pt x="405" y="523" on="1"/>
        <pt x="515" y="523" on="1"/>
      </contour>
    </TTGlyph>
    <TTGlyph name="Uring" xMin="80" yMin="-12" xMax="575" yMax="884">
      <component glyphName="U" x="0" y="0" flags="0x204"/>
      <component glyphName="uni030A.cap" x="327" y="0" flags="0x4"/>
    </TTGlyph>
    <TTGlyph name="Uring.sc" xMin="80" yMin="-12" xMax="515" yMax="772">
      <component glyphName="U.sc" x="0" y="0" flags="0x204"/>
      <component glyphName="uni030A.cap" x="297" y="-112" flags="0x4"/>
    </TTGlyph>
    <TTGlyph name="Utilde" xMin="80" yMin="-12" xMax="575" yMax="829">
      <component glyphName="U" x="0" y="0" flags="0x204"/>
      <component glyphName="uni0303.cap" x="327" y="0" flags="0x4"/>
    </TTGlyph>
    <TTGlyph name="Utilde.sc" xMin="80" yMin="-12" xMax="515" yMax="717">
      <component glyphName="U.sc" x="0" y="0" flags="0x204"/>
      <component glyphName="uni0303.cap" x="297" y="-112" flags="0x4"/>
    </TTGlyph>
    <TTGlyph name="V" xMin="-4" yMin="0" xMax="540" yMax="654">
      <contour>
        <pt x="-4" y="654" on="1"/>
        <pt x="119" y="654" on="1"/>
        <pt x="211" y="325" on="1"/>
        <pt x="227" y="269" on="0"/>
        <pt x="252" y="169" on="0"/>
        <pt x="269" y="112" on="1"/>
        <pt x="273" y="112" on="1"/>
        <pt x="290" y="169" on="0"/>
        <pt x="315" y="269" on="0"/>
        <pt x="330" y="325" on="1"/>
        <pt x="421" y="654" on="1"/>
        <pt x="540" y="654" on="1"/>
        <pt x="337" y="0" on="1"/>
        <pt x="200" y="0" on="1"/>
      </contour>
    </TTGlyph>
    <TTGlyph name="V.sc" xMin="-4" yMin="0" xMax="473" yMax="523">
      <contour>
        <pt x="-4" y="523" on="1"/>
        <pt x="117" y="523" on="1"/>
        <pt x="189" y="275" on="1"/>
        <pt x="201" y="230" on="0"/>
        <pt x="223" y="151" on="0"/>
        <pt x="236" y="106" on="1"/>
        <pt x="240" y="106" on="1"/>
        <pt x="254" y="151" on="0"/>
        <pt x="274" y="230" on="0"/>
        <pt x="286" y="275" on="1"/>
        <pt x="357" y="523" on="1"/>
        <pt x="473" y="523" on="1"/>
        <pt x="303" y="0" on="1"/>
        <pt x="166" y="0" on="1"/>
      </contour>
    </TTGlyph>
    <TTGlyph name="V.sups" xMin="-4" yMin="264" xMax="366" yMax="696">
      <contour>
        <pt x="-4" y="696" on="1"/>
        <pt x="85" y="696" on="1"/>
        <pt x="145" y="484" on="1"/>
        <pt x="155" y="448" on="0"/>
        <pt x="172" y="382" on="0"/>
        <pt x="183" y="344" on="1"/>
        <pt x="185" y="344" on="1"/>
        <pt x="196" y="382" on="0"/>
        <pt x="212" y="448" on="0"/>
        <pt x="222" y="484" on="1"/>
        <pt x="281" y="696" on="1"/>
        <pt x="366" y="696" on="1"/>
        <pt x="232" y="264" on="1"/>
        <pt x="132" y="264" on="1"/>
      </contour>
    </TTGlyph>
    <TTGlyph name="W" xMin="18" yMin="0" xMax="781" yMax="654">
      <contour>
        <pt x="18" y="654" on="1"/>
        <pt x="137" y="654" on="1"/>
        <pt x="194" y="324" on="1"/>
        <pt x="202" y="271" on="0"/>
        <pt x="218" y="167" on="0"/>
        <pt x="226" y="115" on="1"/>
        <pt x="230" y="115" on="1"/>
        <pt x="241" y="167" on="0"/>
        <pt x="262" y="272" on="0"/>
        <pt x="273" y="324" on="1"/>
        <pt x="353" y="654" on="1"/>
        <pt x="454" y="654" on="1"/>
        <pt x="534" y="324" on="1"/>
        <pt x="545" y="273" on="0"/>
        <pt x="567" y="168" on="0"/>
        <pt x="578" y="115" on="1"/>
        <pt x="582" y="115" on="1"/>
        <pt x="590" y="168" on="0"/>
        <pt x="605" y="272" on="0"/>
        <pt x="613" y="324" on="1"/>
        <pt x="670" y="654" on="1"/>
        <pt x="781" y="654" on="1"/>
        <pt x="656" y="0" on="1"/>
        <pt x="512" y="0" on="1"/>
        <pt x="431" y="344" on="1"/>
        <pt x="423" y="382" on="0"/>
        <pt x="408" y="457" on="0"/>
        <pt x="402" y="495" on="1"/>
        <pt x="398" y="495" on="1"/>
        <pt x="391" y="457" on="0"/>
        <pt x="376" y="382" on="0"/>
        <pt x="368" y="344" on="1"/>
        <pt x="289" y="0" on="1"/>
        <pt x="148" y="0" on="1"/>
      </contour>
    </TTGlyph>
    <TTGlyph name="W.sc" xMin="18" yMin="0" xMax="682" yMax="523">
      <contour>
        <pt x="18" y="523" on="1"/>
        <pt x="132" y="523" on="1"/>
        <pt x="176" y="273" on="1"/>
        <pt x="183" y="231" on="0"/>
        <pt x="195" y="149" on="0"/>
        <pt x="202" y="107" on="1"/>
        <pt x="206" y="107" on="1"/>
        <pt x="214" y="149" on="0"/>
        <pt x="234" y="231" on="0"/>
        <pt x="242" y="273" on="1"/>
        <pt x="307" y="523" on="1"/>
        <pt x="402" y="523" on="1"/>
        <pt x="465" y="273" on="1"/>
        <pt x="474" y="232" on="0"/>
        <pt x="493" y="149" on="0"/>
        <pt x="503" y="107" on="1"/>
        <pt x="507" y="107" on="1"/>
        <pt x="512" y="149" on="0"/>
        <pt x="525" y="232" on="0"/>
        <pt x="532" y="273" on="1"/>
        <pt x="576" y="523" on="1"/>
        <pt x="682" y="523" on="1"/>
        <pt x="577" y="0" on="1"/>
        <pt x="440" y="0" on="1"/>
        <pt x="376" y="249" on="1"/>
        <pt x="369" y="280" on="0"/>
        <pt x="358" y="341" on="0"/>
        <pt x="353" y="370" on="1"/>
        <pt x="349" y="370" on="1"/>
        <pt x="343" y="341" on="0"/>
        <pt x="332" y="280" on="0"/>
        <pt x="324" y="249" on="1"/>
        <pt x="262" y="0" on="1"/>
        <pt x="127" y="0" on="1"/>
      </contour>
    </TTGlyph>
    <TTGlyph name="W.sups" xMin="10" yMin="264" xMax="527" yMax="696">
      <contour>
        <pt x="10" y="696" on="1"/>
        <pt x="97" y="696" on="1"/>
        <pt x="132" y="483" on="1"/>
        <pt x="138" y="448" on="0"/>
        <pt x="148" y="380" on="0"/>
        <pt x="153" y="345" on="1"/>
        <pt x="156" y="345" on="1"/>
        <pt x="164" y="380" on="0"/>
        <pt x="176" y="449" on="0"/>
        <pt x="184" y="483" on="1"/>
        <pt x="235" y="696" on="1"/>
        <pt x="307" y="696" on="1"/>
        <pt x="360" y="483" on="1"/>
        <pt x="368" y="450" on="0"/>
        <pt x="381" y="380" on="0"/>
        <pt x="389" y="345" on="1"/>
        <pt x="391" y="345" on="1"/>
        <pt x="396" y="380" on="0"/>
        <pt x="406" y="449" on="0"/>
        <pt x="411" y="483" on="1"/>
        <pt x="447" y="696" on="1"/>
        <pt x="527" y="696" on="1"/>
        <pt x="445" y="264" on="1"/>
        <pt x="341" y="264" on="1"/>
        <pt x="289" y="483" on="1"/>
        <pt x="284" y="508" on="0"/>
        <pt x="275" y="557" on="0"/>
        <pt x="270" y="582" on="1"/>
        <pt x="268" y="582" on="1"/>
        <pt x="263" y="557" on="0"/>
        <pt x="254" y="508" on="0"/>
        <pt x="248" y="483" on="1"/>
        <pt x="199" y="264" on="1"/>
        <pt x="97" y="264" on="1"/>
      </contour>
    </TTGlyph>
    <TTGlyph name="Wacute" xMin="18" yMin="0" xMax="781" yMax="820">
      <component glyphName="W" x="0" y="0" flags="0x204"/>
      <component glyphName="uni0301.cap" x="400" y="0" flags="0x4"/>
    </TTGlyph>
    <TTGlyph name="Wacute.sc" xMin="18" yMin="0" xMax="682" yMax="708">
      <component glyphName="W.sc" x="0" y="0" flags="0x204"/>
      <component glyphName="uni0301.cap" x="351" y="-112" flags="0x4"/>
    </TTGlyph>
    <TTGlyph name="Wcircumflex" xMin="18" yMin="0" xMax="781" yMax="820">
      <component glyphName="W" x="0" y="0" flags="0x204"/>
      <component glyphName="uni0302.cap" x="400" y="0" flags="0x4"/>
    </TTGlyph>
    <TTGlyph name="Wcircumflex.sc" xMin="18" yMin="0" xMax="682" yMax="708">
      <component glyphName="W.sc" x="0" y="0" flags="0x204"/>
      <component glyphName="uni0302.cap" x="351" y="-112" flags="0x4"/>
    </TTGlyph>
    <TTGlyph name="Wdieresis" xMin="18" yMin="0" xMax="781" yMax="827">
      <component glyphName="W" x="0" y="0" flags="0x204"/>
      <component glyphName="uni0308.cap" x="400" y="0" flags="0x4"/>
    </TTGlyph>
    <TTGlyph name="Wdieresis.sc" xMin="18" yMin="0" xMax="682" yMax="715">
      <component glyphName="W.sc" x="0" y="0" flags="0x204"/>
      <component glyphName="uni0308.cap" x="351" y="-112" flags="0x4"/>
    </TTGlyph>
    <TTGlyph name="Wgrave" xMin="18" yMin="0" xMax="781" yMax="820">
      <component glyphName="W" x="0" y="0" flags="0x204"/>
      <component glyphName="uni0300.cap" x="400" y="0" flags="0x4"/>
    </TTGlyph>
    <TTGlyph name="Wgrave.sc" xMin="18" yMin="0" xMax="682" yMax="708">
      <component glyphName="W.sc" x="0" y="0" flags="0x204"/>
      <component glyphName="uni0300.cap" x="351" y="-112" flags="0x4"/>
    </TTGlyph>
    <TTGlyph name="X" xMin="13" yMin="0" xMax="528" yMax="654">
      <contour>
        <pt x="199" y="337" on="1"/>
        <pt x="25" y="654" on="1"/>
        <pt x="154" y="654" on="1"/>
        <pt x="226" y="509" on="1"/>
        <pt x="238" y="486" on="0"/>
        <pt x="261" y="438" on="0"/>
        <pt x="276" y="409" on="1"/>
        <pt x="280" y="409" on="1"/>
        <pt x="292" y="438" on="0"/>
        <pt x="313" y="486" on="0"/>
        <pt x="324" y="509" on="1"/>
        <pt x="393" y="654" on="1"/>
        <pt x="516" y="654" on="1"/>
        <pt x="342" y="332" on="1"/>
        <pt x="528" y="0" on="1"/>
        <pt x="399" y="0" on="1"/>
        <pt x="319" y="154" on="1"/>
        <pt x="306" y="180" on="0"/>
        <pt x="281" y="231" on="0"/>
        <pt x="266" y="261" on="1"/>
        <pt x="262" y="261" on="1"/>
        <pt x="249" y="231" on="0"/>
        <pt x="226" y="180" on="0"/>
        <pt x="214" y="154" on="1"/>
        <pt x="136" y="0" on="1"/>
        <pt x="13" y="0" on="1"/>
      </contour>
    </TTGlyph>
    <TTGlyph name="X.sc" xMin="13" yMin="0" xMax="468" yMax="523">
      <contour>
        <pt x="169" y="269" on="1"/>
        <pt x="23" y="523" on="1"/>
        <pt x="150" y="523" on="1"/>
        <pt x="204" y="421" on="1"/>
        <pt x="213" y="403" on="0"/>
        <pt x="233" y="363" on="0"/>
        <pt x="245" y="338" on="1"/>
        <pt x="249" y="338" on="1"/>
        <pt x="259" y="363" on="0"/>
        <pt x="277" y="403" on="0"/>
        <pt x="285" y="421" on="1"/>
        <pt x="336" y="523" on="1"/>
        <pt x="458" y="523" on="1"/>
        <pt x="311" y="264" on="1"/>
        <pt x="468" y="0" on="1"/>
        <pt x="341" y="0" on="1"/>
        <pt x="280" y="109" on="1"/>
        <pt x="269" y="130" on="0"/>
        <pt x="248" y="172" on="0"/>
        <pt x="237" y="196" on="1"/>
        <pt x="233" y="196" on="1"/>
        <pt x="222" y="172" on="0"/>
        <pt x="203" y="130" on="0"/>
        <pt x="194" y="109" on="1"/>
        <pt x="136" y="0" on="1"/>
        <pt x="13" y="0" on="1"/>
      </contour>
    </TTGlyph>
    <TTGlyph name="X.sups" xMin="8" yMin="264" xMax="358" yMax="696">
      <contour>
        <pt x="132" y="487" on="1"/>
        <pt x="16" y="696" on="1"/>
        <pt x="109" y="696" on="1"/>
        <pt x="154" y="605" on="1"/>
        <pt x="161" y="590" on="0"/>
        <pt x="177" y="558" on="0"/>
        <pt x="187" y="538" on="1"/>
        <pt x="190" y="538" on="1"/>
        <pt x="198" y="558" on="0"/>
        <pt x="212" y="590" on="0"/>
        <pt x="219" y="605" on="1"/>
        <pt x="262" y="696" on="1"/>
        <pt x="351" y="696" on="1"/>
        <pt x="235" y="483" on="1"/>
        <pt x="358" y="264" on="1"/>
        <pt x="266" y="264" on="1"/>
        <pt x="216" y="363" on="1"/>
        <pt x="208" y="380" on="0"/>
        <pt x="191" y="413" on="0"/>
        <pt x="181" y="433" on="1"/>
        <pt x="179" y="433" on="1"/>
        <pt x="170" y="413" on="0"/>
        <pt x="153" y="380" on="0"/>
        <pt x="145" y="363" on="1"/>
        <pt x="97" y="264" on="1"/>
        <pt x="8" y="264" on="1"/>
      </contour>
    </TTGlyph>
    <TTGlyph name="Y" xMin="-4" yMin="0" xMax="505" yMax="654">
      <contour>
        <pt x="192" y="243" on="1"/>
        <pt x="-4" y="654" on="1"/>
        <pt x="120" y="654" on="1"/>
        <pt x="191" y="487" on="1"/>
        <pt x="205" y="450" on="0"/>
        <pt x="233" y="381" on="0"/>
        <pt x="249" y="343" on="1"/>
        <pt x="253" y="343" on="1"/>
        <pt x="269" y="381" on="0"/>
        <pt x="299" y="450" on="0"/>
        <pt x="313" y="487" on="1"/>
        <pt x="384" y="654" on="1"/>
        <pt x="505" y="654" on="1"/>
        <pt x="308" y="243" on="1"/>
        <pt x="308" y="0" on="1"/>
        <pt x="192" y="0" on="1"/>
      </contour>
    </TTGlyph>
    <TTGlyph name="Y.sc" xMin="-4" yMin="0" xMax="446" yMax="523">
      <contour>
        <pt x="163" y="188" on="1"/>
        <pt x="-4" y="523" on="1"/>
        <pt x="118" y="523" on="1"/>
        <pt x="172" y="401" on="1"/>
        <pt x="183" y="372" on="0"/>
        <pt x="207" y="316" on="0"/>
        <pt x="220" y="286" on="1"/>
        <pt x="224" y="286" on="1"/>
        <pt x="236" y="316" on="0"/>
        <pt x="260" y="372" on="0"/>
        <pt x="272" y="401" on="1"/>
        <pt x="326" y="523" on="1"/>
        <pt x="446" y="523" on="1"/>
        <pt x="279" y="188" on="1"/>
        <pt x="279" y="0" on="1"/>
        <pt x="163" y="0" on="1"/>
      </contour>
    </TTGlyph>
    <TTGlyph name="Y.sups" xMin="-5" yMin="264" xMax="343" yMax="696">
      <contour>
        <pt x="128" y="423" on="1"/>
        <pt x="-5" y="696" on="1"/>
        <pt x="85" y="696" on="1"/>
        <pt x="130" y="590" on="1"/>
        <pt x="141" y="565" on="0"/>
        <pt x="159" y="519" on="0"/>
        <pt x="170" y="494" on="1"/>
        <pt x="172" y="494" on="1"/>
        <pt x="182" y="519" on="0"/>
        <pt x="201" y="565" on="0"/>
        <pt x="211" y="590" on="1"/>
        <pt x="256" y="696" on="1"/>
        <pt x="343" y="696" on="1"/>
        <pt x="212" y="423" on="1"/>
        <pt x="212" y="264" on="1"/>
        <pt x="128" y="264" on="1"/>
      </contour>
    </TTGlyph>
    <TTGlyph name="Yacute" xMin="-4" yMin="0" xMax="505" yMax="820">
      <component glyphName="Y" x="0" y="0" flags="0x204"/>
      <component glyphName="uni0301.cap" x="250" y="0" flags="0x4"/>
    </TTGlyph>
    <TTGlyph name="Yacute.sc" xMin="-4" yMin="0" xMax="446" yMax="708">
      <component glyphName="Y.sc" x="0" y="0" flags="0x204"/>
      <component glyphName="uni0301.cap" x="219" y="-112" flags="0x4"/>
    </TTGlyph>
    <TTGlyph name="Ycircumflex" xMin="-4" yMin="0" xMax="505" yMax="820">
      <component glyphName="Y" x="0" y="0" flags="0x204"/>
      <component glyphName="uni0302.cap" x="250" y="0" flags="0x4"/>
    </TTGlyph>
    <TTGlyph name="Ycircumflex.sc" xMin="-4" yMin="0" xMax="446" yMax="708">
      <component glyphName="Y.sc" x="0" y="0" flags="0x204"/>
      <component glyphName="uni0302.cap" x="219" y="-112" flags="0x4"/>
    </TTGlyph>
    <TTGlyph name="Ydieresis" xMin="-4" yMin="0" xMax="505" yMax="827">
      <component glyphName="Y" x="0" y="0" flags="0x204"/>
      <component glyphName="uni0308.cap" x="250" y="0" flags="0x4"/>
    </TTGlyph>
    <TTGlyph name="Ydieresis.sc" xMin="-4" yMin="0" xMax="446" yMax="715">
      <component glyphName="Y.sc" x="0" y="0" flags="0x204"/>
      <component glyphName="uni0308.cap" x="219" y="-112" flags="0x4"/>
    </TTGlyph>
    <TTGlyph name="Ygrave" xMin="-4" yMin="0" xMax="505" yMax="820">
      <component glyphName="Y" x="0" y="0" flags="0x204"/>
      <component glyphName="uni0300.cap" x="250" y="0" flags="0x4"/>
    </TTGlyph>
    <TTGlyph name="Ygrave.sc" xMin="-4" yMin="0" xMax="446" yMax="708">
      <component glyphName="Y.sc" x="0" y="0" flags="0x204"/>
      <component glyphName="uni0300.cap" x="219" y="-112" flags="0x4"/>
    </TTGlyph>
    <TTGlyph name="Z" xMin="40" yMin="0" xMax="502" yMax="654">
      <contour>
        <pt x="40" y="70" on="1"/>
        <pt x="356" y="556" on="1"/>
        <pt x="69" y="556" on="1"/>
        <pt x="69" y="654" on="1"/>
        <pt x="500" y="654" on="1"/>
        <pt x="500" y="584" on="1"/>
        <pt x="183" y="98" on="1"/>
        <pt x="502" y="98" on="1"/>
        <pt x="502" y="0" on="1"/>
        <pt x="40" y="0" on="1"/>
      </contour>
    </TTGlyph>
    <TTGlyph name="Z.sc" xMin="40" yMin="0" xMax="440" yMax="523">
      <contour>
        <pt x="40" y="68" on="1"/>
        <pt x="297" y="428" on="1"/>
        <pt x="64" y="428" on="1"/>
        <pt x="64" y="523" on="1"/>
        <pt x="437" y="523" on="1"/>
        <pt x="437" y="455" on="1"/>
        <pt x="180" y="95" on="1"/>
        <pt x="440" y="95" on="1"/>
        <pt x="440" y="0" on="1"/>
        <pt x="40" y="0" on="1"/>
      </contour>
    </TTGlyph>
    <TTGlyph name="Z.sups" xMin="25" yMin="264" xMax="337" yMax="696">
      <contour>
        <pt x="25" y="314" on="1"/>
        <pt x="232" y="627" on="1"/>
        <pt x="44" y="627" on="1"/>
        <pt x="44" y="696" on="1"/>
        <pt x="335" y="696" on="1"/>
        <pt x="335" y="646" on="1"/>
        <pt x="128" y="333" on="1"/>
        <pt x="337" y="333" on="1"/>
        <pt x="337" y="264" on="1"/>
        <pt x="25" y="264" on="1"/>
      </contour>
    </TTGlyph>
    <TTGlyph name="Zacute" xMin="40" yMin="0" xMax="502" yMax="820">
      <component glyphName="Z" x="0" y="0" flags="0x204"/>
      <component glyphName="uni0301.cap" x="282" y="0" flags="0x4"/>
    </TTGlyph>
    <TTGlyph name="Zacute.sc" xMin="40" yMin="0" xMax="440" yMax="708">
      <component glyphName="Z.sc" x="0" y="0" flags="0x204"/>
      <component glyphName="uni0301.cap" x="254" y="-112" flags="0x4"/>
    </TTGlyph>
    <TTGlyph name="Zcaron" xMin="40" yMin="0" xMax="502" yMax="820">
      <component glyphName="Z" x="0" y="0" flags="0x204"/>
      <component glyphName="uni030C.cap" x="282" y="0" flags="0x4"/>
    </TTGlyph>
    <TTGlyph name="Zcaron.sc" xMin="40" yMin="0" xMax="440" yMax="708">
      <component glyphName="Z.sc" x="0" y="0" flags="0x204"/>
      <component glyphName="uni030C.cap" x="254" y="-112" flags="0x4"/>
    </TTGlyph>
    <TTGlyph name="Zdotaccent" xMin="40" yMin="0" xMax="502" yMax="838">
      <component glyphName="Z" x="0" y="0" flags="0x204"/>
      <component glyphName="uni0307.cap" x="282" y="0" flags="0x4"/>
    </TTGlyph>
    <TTGlyph name="Zdotaccent.sc" xMin="40" yMin="0" xMax="440" yMax="726">
      <component glyphName="Z.sc" x="0" y="0" flags="0x204"/>
      <component glyphName="uni0307.cap" x="254" y="-112" flags="0x4"/>
    </TTGlyph>
    <TTGlyph name="a" xMin="52" yMin="-12" xMax="456" yMax="503">
      <contour>
        <pt x="52" y="132" on="1"/>
        <pt x="52" y="211" on="0"/>
        <pt x="190" y="297" on="0"/>
        <pt x="341" y="314" on="1"/>
        <pt x="341" y="333" on="0"/>
        <pt x="331" y="368" on="0"/>
        <pt x="310" y="395" on="0"/>
        <pt x="277" y="410" on="0"/>
        <pt x="252" y="410" on="1"/>
        <pt x="215" y="410" on="0"/>
        <pt x="146" y="382" on="0"/>
        <pt x="114" y="362" on="1"/>
        <pt x="72" y="439" on="1"/>
        <pt x="113" y="465" on="0"/>
        <pt x="214" y="503" on="0"/>
        <pt x="273" y="503" on="1"/>
        <pt x="366" y="503" on="0"/>
        <pt x="456" y="394" on="0"/>
        <pt x="456" y="291" on="1"/>
        <pt x="456" y="0" on="1"/>
        <pt x="362" y="0" on="1"/>
        <pt x="353" y="54" on="1"/>
        <pt x="350" y="54" on="1"/>
        <pt x="317" y="26" on="0"/>
        <pt x="242" y="-12" on="0"/>
        <pt x="198" y="-12" on="1"/>
        <pt x="133" y="-12" on="0"/>
        <pt x="52" y="67" on="0"/>
      </contour>
      <contour>
        <pt x="164" y="141" on="1"/>
        <pt x="164" y="108" on="0"/>
        <pt x="203" y="78" on="0"/>
        <pt x="234" y="78" on="1"/>
        <pt x="264" y="78" on="0"/>
        <pt x="314" y="106" on="0"/>
        <pt x="341" y="132" on="1"/>
        <pt x="341" y="242" on="1"/>
        <pt x="291" y="236" on="0"/>
        <pt x="223" y="216" on="0"/>
        <pt x="182" y="191" on="0"/>
        <pt x="164" y="159" on="0"/>
      </contour>
    </TTGlyph>
    <TTGlyph name="a.a" xMin="43" yMin="-12" xMax="491" yMax="503">
      <component glyphName="uni0251" x="0" y="0" flags="0x204"/>
    </TTGlyph>
    <TTGlyph name="a.supa" xMin="30" yMin="256" xMax="333" yMax="598">
      <contour>
        <pt x="115" y="433" on="1"/>
        <pt x="115" y="324" on="0"/>
        <pt x="188" y="324" on="1"/>
        <pt x="220" y="324" on="0"/>
        <pt x="250" y="358" on="1"/>
        <pt x="250" y="504" on="1"/>
        <pt x="233" y="519" on="0"/>
        <pt x="202" y="531" on="0"/>
        <pt x="186" y="531" on="1"/>
        <pt x="157" y="531" on="0"/>
        <pt x="115" y="479" on="0"/>
      </contour>
      <contour>
        <pt x="30" y="431" on="1"/>
        <pt x="30" y="470" on="0"/>
        <pt x="54" y="531" on="0"/>
        <pt x="93" y="575" on="0"/>
        <pt x="143" y="598" on="0"/>
        <pt x="170" y="598" on="1"/>
        <pt x="219" y="598" on="0"/>
        <pt x="257" y="557" on="1"/>
        <pt x="261" y="557" on="1"/>
        <pt x="269" y="589" on="1"/>
        <pt x="333" y="589" on="1"/>
        <pt x="333" y="264" on="1"/>
        <pt x="266" y="264" on="1"/>
        <pt x="259" y="297" on="1"/>
        <pt x="255" y="297" on="1"/>
        <pt x="237" y="280" on="0"/>
        <pt x="193" y="256" on="0"/>
        <pt x="166" y="256" on="1"/>
        <pt x="103" y="256" on="0"/>
        <pt x="30" y="347" on="0"/>
      </contour>
    </TTGlyph>
    <TTGlyph name="a.sups" xMin="33" yMin="256" xMax="309" yMax="598">
      <contour>
        <pt x="133" y="256" on="1"/>
        <pt x="87" y="256" on="0"/>
        <pt x="33" y="311" on="0"/>
        <pt x="33" y="353" on="1"/>
        <pt x="33" y="406" on="0"/>
        <pt x="124" y="463" on="0"/>
        <pt x="226" y="472" on="1"/>
        <pt x="224" y="499" on="0"/>
        <pt x="200" y="531" on="0"/>
        <pt x="170" y="531" on="1"/>
        <pt x="147" y="531" on="0"/>
        <pt x="98" y="512" on="0"/>
        <pt x="75" y="499" on="1"/>
        <pt x="45" y="554" on="1"/>
        <pt x="74" y="572" on="0"/>
        <pt x="145" y="598" on="0"/>
        <pt x="184" y="598" on="1"/>
        <pt x="309" y="598" on="0"/>
        <pt x="309" y="456" on="1"/>
        <pt x="309" y="264" on="1"/>
        <pt x="242" y="264" on="1"/>
        <pt x="234" y="299" on="1"/>
        <pt x="230" y="299" on="1"/>
        <pt x="210" y="281" on="0"/>
        <pt x="162" y="256" on="0"/>
      </contour>
      <contour>
        <pt x="160" y="320" on="1"/>
        <pt x="177" y="320" on="0"/>
        <pt x="209" y="337" on="0"/>
        <pt x="226" y="353" on="1"/>
        <pt x="226" y="423" on="1"/>
        <pt x="163" y="416" on="0"/>
        <pt x="114" y="383" on="0"/>
        <pt x="114" y="360" on="1"/>
        <pt x="114" y="320" on="0"/>
      </contour>
    </TTGlyph>
    <TTGlyph name="aacute" xMin="52" yMin="-12" xMax="456" yMax="719">
      <component glyphName="a" x="0" y="0" flags="0x204"/>
      <component glyphName="uni0301" x="275" y="0" flags="0x4"/>
    </TTGlyph>
    <TTGlyph name="aacute.a" xMin="43" yMin="-12" xMax="491" yMax="719">
      <component glyphName="uni0251" x="0" y="0" flags="0x204"/>
      <component glyphName="uni0301" x="291" y="0" flags="0x4"/>
    </TTGlyph>
    <TTGlyph name="abreve" xMin="52" yMin="-12" xMax="456" yMax="708">
      <component glyphName="a" x="0" y="0" flags="0x204"/>
      <component glyphName="uni0306" x="275" y="0" flags="0x4"/>
    </TTGlyph>
    <TTGlyph name="abreve.a" xMin="43" yMin="-12" xMax="491" yMax="708">
      <component glyphName="uni0251" x="0" y="0" flags="0x204"/>
      <component glyphName="uni0306" x="291" y="0" flags="0x4"/>
    </TTGlyph>
    <TTGlyph name="acircumflex" xMin="52" yMin="-12" xMax="456" yMax="719">
      <component glyphName="a" x="0" y="0" flags="0x204"/>
      <component glyphName="uni0302" x="275" y="0" flags="0x4"/>
    </TTGlyph>
    <TTGlyph name="acircumflex.a" xMin="43" yMin="-12" xMax="491" yMax="719">
      <component glyphName="uni0251" x="0" y="0" flags="0x204"/>
      <component glyphName="uni0302" x="291" y="0" flags="0x4"/>
    </TTGlyph>
    <TTGlyph name="acute" xMin="200" yMin="573" xMax="404" yMax="719">
      <component glyphName="uni0301" x="274" y="0" flags="0x4"/>
    </TTGlyph>
    <TTGlyph name="adieresis" xMin="52" yMin="-12" xMax="456" yMax="698">
      <component glyphName="a" x="0" y="0" flags="0x204"/>
      <component glyphName="uni0308" x="275" y="0" flags="0x4"/>
    </TTGlyph>
    <TTGlyph name="adieresis.a" xMin="43" yMin="-12" xMax="491" yMax="698">
      <component glyphName="uni0251" x="0" y="0" flags="0x204"/>
      <component glyphName="uni0308" x="291" y="0" flags="0x4"/>
    </TTGlyph>
    <TTGlyph name="ae" xMin="52" yMin="-12" xMax="748" yMax="503">
      <contour>
        <pt x="164" y="141" on="1"/>
        <pt x="164" y="108" on="0"/>
        <pt x="203" y="78" on="0"/>
        <pt x="234" y="78" on="1"/>
        <pt x="263" y="78" on="0"/>
        <pt x="327" y="109" on="0"/>
        <pt x="354" y="136" on="1"/>
        <pt x="346" y="153" on="0"/>
        <pt x="339" y="197" on="0"/>
        <pt x="338" y="219" on="1"/>
        <pt x="336" y="242" on="1"/>
        <pt x="242" y="229" on="0"/>
        <pt x="164" y="179" on="0"/>
      </contour>
      <contour>
        <pt x="72" y="439" on="1"/>
        <pt x="113" y="465" on="0"/>
        <pt x="211" y="503" on="0"/>
        <pt x="265" y="503" on="1"/>
        <pt x="316" y="503" on="0"/>
        <pt x="385" y="456" on="0"/>
        <pt x="404" y="414" on="1"/>
        <pt x="434" y="456" on="0"/>
        <pt x="509" y="503" on="0"/>
        <pt x="557" y="503" on="1"/>
        <pt x="604" y="503" on="0"/>
        <pt x="675" y="468" on="0"/>
        <pt x="723" y="406" on="0"/>
        <pt x="748" y="319" on="0"/>
        <pt x="748" y="268" on="1"/>
        <pt x="748" y="234" on="0"/>
        <pt x="743" y="214" on="1"/>
        <pt x="443" y="214" on="1"/>
        <pt x="449" y="150" on="0"/>
        <pt x="524" y="80" on="0"/>
        <pt x="578" y="80" on="1"/>
        <pt x="610" y="80" on="0"/>
        <pt x="662" y="101" on="0"/>
        <pt x="689" y="118" on="1"/>
        <pt x="730" y="41" on="1"/>
        <pt x="695" y="18" on="0"/>
        <pt x="610" y="-12" on="0"/>
        <pt x="563" y="-12" on="1"/>
        <pt x="505" y="-12" on="0"/>
        <pt x="421" y="37" on="0"/>
        <pt x="392" y="72" on="1"/>
        <pt x="341" y="28" on="0"/>
        <pt x="246" y="-12" on="0"/>
        <pt x="198" y="-12" on="1"/>
        <pt x="133" y="-12" on="0"/>
        <pt x="52" y="67" on="0"/>
        <pt x="52" y="132" on="1"/>
        <pt x="52" y="211" on="0"/>
        <pt x="189" y="298" on="0"/>
        <pt x="338" y="314" on="1"/>
        <pt x="337" y="333" on="0"/>
        <pt x="328" y="368" on="0"/>
        <pt x="308" y="395" on="0"/>
        <pt x="275" y="410" on="0"/>
        <pt x="250" y="410" on="1"/>
        <pt x="215" y="410" on="0"/>
        <pt x="146" y="382" on="0"/>
        <pt x="114" y="362" on="1"/>
      </contour>
      <contour>
        <pt x="649" y="287" on="1"/>
        <pt x="649" y="347" on="0"/>
        <pt x="601" y="414" on="0"/>
        <pt x="553" y="414" on="1"/>
        <pt x="511" y="414" on="0"/>
        <pt x="450" y="348" on="0"/>
        <pt x="443" y="287" on="1"/>
      </contour>
    </TTGlyph>
    <TTGlyph name="agrave" xMin="52" yMin="-12" xMax="456" yMax="719">
      <component glyphName="a" x="0" y="0" flags="0x204"/>
      <component glyphName="uni0300" x="275" y="0" flags="0x4"/>
    </TTGlyph>
    <TTGlyph name="agrave.a" xMin="43" yMin="-12" xMax="491" yMax="719">
      <component glyphName="uni0251" x="0" y="0" flags="0x204"/>
      <component glyphName="uni0300" x="291" y="0" flags="0x4"/>
    </TTGlyph>
    <TTGlyph name="amacron" xMin="52" yMin="-12" xMax="456" yMax="672">
      <component glyphName="a" x="0" y="0" flags="0x204"/>
      <component glyphName="uni0304" x="275" y="0" flags="0x4"/>
    </TTGlyph>
    <TTGlyph name="amacron.a" xMin="43" yMin="-12" xMax="491" yMax="672">
      <component glyphName="uni0251" x="0" y="0" flags="0x204"/>
      <component glyphName="uni0304" x="291" y="0" flags="0x4"/>
    </TTGlyph>
    <TTGlyph name="ampersand" xMin="28" yMin="-12" xMax="622" yMax="666">
      <contour>
        <pt x="138" y="179" on="1"/>
        <pt x="138" y="133" on="0"/>
        <pt x="202" y="77" on="0"/>
        <pt x="251" y="77" on="1"/>
        <pt x="278" y="77" on="0"/>
        <pt x="331" y="98" on="0"/>
        <pt x="356" y="116" on="1"/>
        <pt x="312" y="153" on="0"/>
        <pt x="233" y="236" on="0"/>
        <pt x="201" y="281" on="1"/>
        <pt x="173" y="258" on="0"/>
        <pt x="138" y="209" on="0"/>
      </contour>
      <contour>
        <pt x="207" y="504" on="1"/>
        <pt x="207" y="481" on="0"/>
        <pt x="221" y="434" on="0"/>
        <pt x="233" y="408" on="1"/>
        <pt x="274" y="434" on="0"/>
        <pt x="330" y="488" on="0"/>
        <pt x="330" y="526" on="1"/>
        <pt x="330" y="552" on="0"/>
        <pt x="306" y="588" on="0"/>
        <pt x="277" y="588" on="1"/>
        <pt x="246" y="588" on="0"/>
        <pt x="207" y="542" on="0"/>
      </contour>
      <contour>
        <pt x="593" y="-12" on="1"/>
        <pt x="555" y="-3" on="0"/>
        <pt x="475" y="32" on="0"/>
        <pt x="434" y="58" on="1"/>
        <pt x="395" y="26" on="0"/>
        <pt x="297" y="-12" on="0"/>
        <pt x="237" y="-12" on="1"/>
        <pt x="188" y="-12" on="0"/>
        <pt x="111" y="17" on="0"/>
        <pt x="57" y="66" on="0"/>
        <pt x="28" y="133" on="0"/>
        <pt x="28" y="172" on="1"/>
        <pt x="28" y="206" on="0"/>
        <pt x="48" y="260" on="0"/>
        <pt x="83" y="305" on="0"/>
        <pt x="128" y="342" on="0"/>
        <pt x="153" y="359" on="1"/>
        <pt x="133" y="397" on="0"/>
        <pt x="111" y="469" on="0"/>
        <pt x="111" y="503" on="1"/>
        <pt x="111" y="537" on="0"/>
        <pt x="134" y="596" on="0"/>
        <pt x="178" y="640" on="0"/>
        <pt x="238" y="666" on="0"/>
        <pt x="276" y="666" on="1"/>
        <pt x="343" y="666" on="0"/>
        <pt x="420" y="590" on="0"/>
        <pt x="420" y="527" on="1"/>
        <pt x="420" y="495" on="0"/>
        <pt x="396" y="441" on="0"/>
        <pt x="356" y="396" on="0"/>
        <pt x="305" y="356" on="0"/>
        <pt x="278" y="337" on="1"/>
        <pt x="308" y="296" on="0"/>
        <pt x="385" y="219" on="0"/>
        <pt x="427" y="187" on="1"/>
        <pt x="454" y="223" on="0"/>
        <pt x="496" y="310" on="0"/>
        <pt x="510" y="361" on="1"/>
        <pt x="616" y="361" on="1"/>
        <pt x="598" y="299" on="0"/>
        <pt x="542" y="185" on="0"/>
        <pt x="504" y="134" on="1"/>
        <pt x="536" y="114" on="0"/>
        <pt x="596" y="87" on="0"/>
        <pt x="622" y="82" on="1"/>
      </contour>
    </TTGlyph>
    <TTGlyph name="ampersand.sc" xMin="28" yMin="-12" xMax="549" yMax="535">
      <contour>
        <pt x="132" y="146" on="1"/>
        <pt x="132" y="111" on="0"/>
        <pt x="184" y="72" on="0"/>
        <pt x="222" y="72" on="1"/>
        <pt x="243" y="72" on="0"/>
        <pt x="284" y="86" on="0"/>
        <pt x="304" y="98" on="1"/>
        <pt x="269" y="126" on="0"/>
        <pt x="204" y="188" on="0"/>
        <pt x="178" y="220" on="1"/>
        <pt x="158" y="203" on="0"/>
        <pt x="132" y="168" on="0"/>
      </contour>
      <contour>
        <pt x="187" y="398" on="1"/>
        <pt x="187" y="381" on="0"/>
        <pt x="199" y="345" on="0"/>
        <pt x="210" y="326" on="1"/>
        <pt x="243" y="344" on="0"/>
        <pt x="289" y="385" on="0"/>
        <pt x="289" y="414" on="1"/>
        <pt x="289" y="434" on="0"/>
        <pt x="267" y="460" on="0"/>
        <pt x="244" y="460" on="1"/>
        <pt x="220" y="460" on="0"/>
        <pt x="187" y="425" on="0"/>
      </contour>
      <contour>
        <pt x="521" y="-12" on="1"/>
        <pt x="454" y="2" on="0"/>
        <pt x="382" y="46" on="1"/>
        <pt x="347" y="19" on="0"/>
        <pt x="263" y="-12" on="0"/>
        <pt x="210" y="-12" on="1"/>
        <pt x="166" y="-12" on="0"/>
        <pt x="99" y="12" on="0"/>
        <pt x="52" y="54" on="0"/>
        <pt x="28" y="109" on="0"/>
        <pt x="28" y="139" on="1"/>
        <pt x="28" y="166" on="0"/>
        <pt x="45" y="208" on="0"/>
        <pt x="75" y="243" on="0"/>
        <pt x="113" y="272" on="0"/>
        <pt x="134" y="284" on="1"/>
        <pt x="117" y="314" on="0"/>
        <pt x="97" y="372" on="0"/>
        <pt x="97" y="398" on="1"/>
        <pt x="97" y="425" on="0"/>
        <pt x="118" y="475" on="0"/>
        <pt x="156" y="513" on="0"/>
        <pt x="210" y="535" on="0"/>
        <pt x="243" y="535" on="1"/>
        <pt x="304" y="535" on="0"/>
        <pt x="373" y="469" on="0"/>
        <pt x="373" y="415" on="1"/>
        <pt x="373" y="390" on="0"/>
        <pt x="352" y="349" on="0"/>
        <pt x="318" y="314" on="0"/>
        <pt x="274" y="283" on="0"/>
        <pt x="252" y="269" on="1"/>
        <pt x="278" y="240" on="0"/>
        <pt x="341" y="185" on="0"/>
        <pt x="375" y="162" on="1"/>
        <pt x="420" y="218" on="0"/>
        <pt x="441" y="293" on="1"/>
        <pt x="545" y="293" on="1"/>
        <pt x="515" y="198" on="0"/>
        <pt x="450" y="116" on="1"/>
        <pt x="502" y="88" on="0"/>
        <pt x="549" y="79" on="1"/>
      </contour>
    </TTGlyph>
    <TTGlyph name="aogonek" xMin="52" yMin="-208" xMax="477" yMax="503">
      <contour>
        <pt x="164" y="141" on="1"/>
        <pt x="164" y="108" on="0"/>
        <pt x="203" y="78" on="0"/>
        <pt x="234" y="78" on="1"/>
        <pt x="264" y="78" on="0"/>
        <pt x="314" y="106" on="0"/>
        <pt x="341" y="132" on="1"/>
        <pt x="341" y="242" on="1"/>
        <pt x="291" y="236" on="0"/>
        <pt x="223" y="216" on="0"/>
        <pt x="182" y="191" on="0"/>
        <pt x="164" y="159" on="0"/>
      </contour>
      <contour>
        <pt x="52" y="132" on="1"/>
        <pt x="52" y="211" on="0"/>
        <pt x="190" y="297" on="0"/>
        <pt x="341" y="314" on="1"/>
        <pt x="341" y="333" on="0"/>
        <pt x="331" y="368" on="0"/>
        <pt x="310" y="395" on="0"/>
        <pt x="277" y="410" on="0"/>
        <pt x="252" y="410" on="1"/>
        <pt x="215" y="410" on="0"/>
        <pt x="146" y="382" on="0"/>
        <pt x="114" y="362" on="1"/>
        <pt x="72" y="439" on="1"/>
        <pt x="113" y="465" on="0"/>
        <pt x="214" y="503" on="0"/>
        <pt x="273" y="503" on="1"/>
        <pt x="366" y="503" on="0"/>
        <pt x="456" y="394" on="0"/>
        <pt x="456" y="291" on="1"/>
        <pt x="456" y="0" on="1"/>
        <pt x="411" y="-15" on="0"/>
        <pt x="369" y="-69" on="0"/>
        <pt x="369" y="-95" on="1"/>
        <pt x="369" y="-117" on="0"/>
        <pt x="396" y="-137" on="0"/>
        <pt x="413" y="-137" on="1"/>
        <pt x="435" y="-137" on="0"/>
        <pt x="451" y="-124" on="1"/>
        <pt x="477" y="-178" on="1"/>
        <pt x="460" y="-192" on="0"/>
        <pt x="409" y="-208" on="0"/>
        <pt x="387" y="-208" on="1"/>
        <pt x="345" y="-208" on="0"/>
        <pt x="289" y="-164" on="0"/>
        <pt x="289" y="-120" on="1"/>
        <pt x="289" y="-99" on="0"/>
        <pt x="303" y="-62" on="0"/>
        <pt x="325" y="-31" on="0"/>
        <pt x="351" y="-7" on="0"/>
        <pt x="363" y="1" on="1"/>
        <pt x="353" y="54" on="1"/>
        <pt x="350" y="54" on="1"/>
        <pt x="317" y="26" on="0"/>
        <pt x="242" y="-12" on="0"/>
        <pt x="198" y="-12" on="1"/>
        <pt x="133" y="-12" on="0"/>
        <pt x="52" y="67" on="0"/>
      </contour>
    </TTGlyph>
    <TTGlyph name="aogonek.a" xMin="43" yMin="-208" xMax="512" yMax="503">
      <contour>
        <pt x="162" y="246" on="1"/>
        <pt x="162" y="166" on="0"/>
        <pt x="219" y="83" on="0"/>
        <pt x="273" y="83" on="1"/>
        <pt x="328" y="83" on="0"/>
        <pt x="376" y="138" on="1"/>
        <pt x="376" y="367" on="1"/>
        <pt x="350" y="390" on="0"/>
        <pt x="301" y="408" on="0"/>
        <pt x="276" y="408" on="1"/>
        <pt x="228" y="408" on="0"/>
        <pt x="162" y="324" on="0"/>
      </contour>
      <contour>
        <pt x="43" y="245" on="1"/>
        <pt x="43" y="305" on="0"/>
        <pt x="79" y="401" on="0"/>
        <pt x="137" y="467" on="0"/>
        <pt x="213" y="503" on="0"/>
        <pt x="254" y="503" on="1"/>
        <pt x="293" y="503" on="0"/>
        <pt x="356" y="474" on="0"/>
        <pt x="387" y="443" on="1"/>
        <pt x="390" y="443" on="1"/>
        <pt x="399" y="491" on="1"/>
        <pt x="491" y="491" on="1"/>
        <pt x="491" y="0" on="1"/>
        <pt x="443" y="-18" on="0"/>
        <pt x="404" y="-69" on="0"/>
        <pt x="404" y="-95" on="1"/>
        <pt x="404" y="-116" on="0"/>
        <pt x="431" y="-137" on="0"/>
        <pt x="448" y="-137" on="1"/>
        <pt x="468" y="-137" on="0"/>
        <pt x="486" y="-124" on="1"/>
        <pt x="512" y="-178" on="1"/>
        <pt x="495" y="-192" on="0"/>
        <pt x="443" y="-208" on="0"/>
        <pt x="422" y="-208" on="1"/>
        <pt x="380" y="-208" on="0"/>
        <pt x="323" y="-164" on="0"/>
        <pt x="323" y="-120" on="1"/>
        <pt x="323" y="-99" on="0"/>
        <pt x="337" y="-63" on="0"/>
        <pt x="358" y="-33" on="0"/>
        <pt x="385" y="-8" on="0"/>
        <pt x="398" y="1" on="1"/>
        <pt x="388" y="53" on="1"/>
        <pt x="384" y="53" on="1"/>
        <pt x="357" y="26" on="0"/>
        <pt x="285" y="-12" on="0"/>
        <pt x="245" y="-12" on="1"/>
        <pt x="152" y="-12" on="0"/>
        <pt x="43" y="123" on="0"/>
      </contour>
    </TTGlyph>
    <TTGlyph name="approxequal" xMin="32" yMin="137" xMax="480" yMax="524">
      <component glyphName="asciitilde" x="0" y="112" flags="0x204"/>
      <component glyphName="asciitilde" x="0" y="-111" flags="0x4"/>
    </TTGlyph>
    <TTGlyph name="aring" xMin="52" yMin="-12" xMax="456" yMax="740">
      <component glyphName="a" x="0" y="0" flags="0x204"/>
      <component glyphName="uni030A" x="275" y="0" flags="0x4"/>
    </TTGlyph>
    <TTGlyph name="aring.a" xMin="43" yMin="-12" xMax="491" yMax="740">
      <component glyphName="uni0251" x="0" y="0" flags="0x204"/>
      <component glyphName="uni030A" x="291" y="0" flags="0x4"/>
    </TTGlyph>
    <TTGlyph name="arrowdown" xMin="40" yMin="-25" xMax="577" yMax="528">
      <contour>
        <pt x="307" y="-25" on="1"/>
        <pt x="40" y="250" on="1"/>
        <pt x="104" y="306" on="1"/>
        <pt x="262" y="131" on="1"/>
        <pt x="262" y="528" on="1"/>
        <pt x="355" y="528" on="1"/>
        <pt x="355" y="131" on="1"/>
        <pt x="514" y="306" on="1"/>
        <pt x="577" y="250" on="1"/>
        <pt x="311" y="-25" on="1"/>
      </contour>
    </TTGlyph>
    <TTGlyph name="arrowup" xMin="40" yMin="-25" xMax="577" yMax="528">
      <contour>
        <pt x="311" y="528" on="1"/>
        <pt x="577" y="253" on="1"/>
        <pt x="514" y="197" on="1"/>
        <pt x="355" y="372" on="1"/>
        <pt x="355" y="-25" on="1"/>
        <pt x="262" y="-25" on="1"/>
        <pt x="262" y="372" on="1"/>
        <pt x="104" y="197" on="1"/>
        <pt x="40" y="253" on="1"/>
        <pt x="307" y="528" on="1"/>
      </contour>
    </TTGlyph>
    <TTGlyph name="asciicircum" xMin="55" yMin="279" xMax="458" yMax="670">
      <contour>
        <pt x="208" y="670" on="1"/>
        <pt x="304" y="670" on="1"/>
        <pt x="458" y="279" on="1"/>
        <pt x="361" y="279" on="1"/>
        <pt x="306" y="430" on="1"/>
        <pt x="258" y="565" on="1"/>
        <pt x="254" y="565" on="1"/>
        <pt x="207" y="430" on="1"/>
        <pt x="152" y="279" on="1"/>
        <pt x="55" y="279" on="1"/>
      </contour>
    </TTGlyph>
    <TTGlyph name="asciitilde" xMin="32" yMin="248" xMax="480" yMax="412">
      <contour>
        <pt x="32" y="315" on="1"/>
        <pt x="64" y="367" on="0"/>
        <pt x="135" y="412" on="0"/>
        <pt x="170" y="412" on="1"/>
        <pt x="200" y="412" on="0"/>
        <pt x="247" y="387" on="0"/>
        <pt x="287" y="357" on="0"/>
        <pt x="324" y="332" on="0"/>
        <pt x="345" y="332" on="1"/>
        <pt x="387" y="332" on="0"/>
        <pt x="419" y="391" on="1"/>
        <pt x="480" y="344" on="1"/>
        <pt x="448" y="293" on="0"/>
        <pt x="378" y="248" on="0"/>
        <pt x="343" y="248" on="1"/>
        <pt x="313" y="248" on="0"/>
        <pt x="266" y="273" on="0"/>
        <pt x="226" y="303" on="0"/>
        <pt x="189" y="328" on="0"/>
        <pt x="168" y="328" on="1"/>
        <pt x="126" y="328" on="0"/>
        <pt x="94" y="269" on="1"/>
      </contour>
    </TTGlyph>
    <TTGlyph name="asterisk" xMin="48" yMin="384" xMax="390" yMax="712">
      <contour>
        <pt x="92" y="421" on="1"/>
        <pt x="150" y="519" on="1"/>
        <pt x="48" y="564" on="1"/>
        <pt x="67" y="624" on="1"/>
        <pt x="176" y="599" on="1"/>
        <pt x="187" y="712" on="1"/>
        <pt x="250" y="712" on="1"/>
        <pt x="261" y="599" on="1"/>
        <pt x="371" y="624" on="1"/>
        <pt x="390" y="564" on="1"/>
        <pt x="287" y="519" on="1"/>
        <pt x="345" y="421" on="1"/>
        <pt x="294" y="384" on="1"/>
        <pt x="219" y="471" on="1"/>
        <pt x="143" y="384" on="1"/>
      </contour>
    </TTGlyph>
    <TTGlyph name="at" xMin="50" yMin="-164" xMax="826" yMax="658">
      <contour>
        <pt x="50" y="204" on="1"/>
        <pt x="50" y="307" on="0"/>
        <pt x="120" y="474" on="0"/>
        <pt x="238" y="593" on="0"/>
        <pt x="396" y="658" on="0"/>
        <pt x="484" y="658" on="1"/>
        <pt x="562" y="658" on="0"/>
        <pt x="689" y="608" on="0"/>
        <pt x="778" y="517" on="0"/>
        <pt x="826" y="390" on="0"/>
        <pt x="826" y="314" on="1"/>
        <pt x="826" y="247" on="0"/>
        <pt x="787" y="146" on="0"/>
        <pt x="725" y="78" on="0"/>
        <pt x="649" y="44" on="0"/>
        <pt x="612" y="44" on="1"/>
        <pt x="569" y="44" on="0"/>
        <pt x="509" y="82" on="0"/>
        <pt x="502" y="120" on="1"/>
        <pt x="500" y="120" on="1"/>
        <pt x="477" y="90" on="0"/>
        <pt x="411" y="52" on="0"/>
        <pt x="379" y="52" on="1"/>
        <pt x="324" y="52" on="0"/>
        <pt x="253" y="129" on="0"/>
        <pt x="253" y="198" on="1"/>
        <pt x="253" y="241" on="0"/>
        <pt x="282" y="326" on="0"/>
        <pt x="334" y="394" on="0"/>
        <pt x="406" y="437" on="0"/>
        <pt x="450" y="437" on="1"/>
        <pt x="502" y="437" on="0"/>
        <pt x="528" y="388" on="1"/>
        <pt x="530" y="388" on="1"/>
        <pt x="543" y="429" on="1"/>
        <pt x="616" y="429" on="1"/>
        <pt x="573" y="218" on="1"/>
        <pt x="548" y="117" on="0"/>
        <pt x="623" y="117" on="1"/>
        <pt x="646" y="117" on="0"/>
        <pt x="692" y="144" on="0"/>
        <pt x="728" y="194" on="0"/>
        <pt x="750" y="265" on="0"/>
        <pt x="750" y="310" on="1"/>
        <pt x="750" y="367" on="0"/>
        <pt x="717" y="467" on="0"/>
        <pt x="650" y="542" on="0"/>
        <pt x="546" y="586" on="0"/>
        <pt x="475" y="586" on="1"/>
        <pt x="409" y="586" on="0"/>
        <pt x="285" y="532" on="0"/>
        <pt x="189" y="433" on="0"/>
        <pt x="130" y="294" on="0"/>
        <pt x="130" y="208" on="1"/>
        <pt x="130" y="134" on="0"/>
        <pt x="176" y="22" on="0"/>
        <pt x="256" y="-53" on="0"/>
        <pt x="364" y="-91" on="0"/>
        <pt x="425" y="-91" on="1"/>
        <pt x="467" y="-91" on="0"/>
        <pt x="549" y="-68" on="0"/>
        <pt x="582" y="-50" on="1"/>
        <pt x="609" y="-114" on="1"/>
        <pt x="521" y="-164" on="0"/>
        <pt x="416" y="-164" on="1"/>
        <pt x="342" y="-164" on="0"/>
        <pt x="209" y="-118" on="0"/>
        <pt x="109" y="-25" on="0"/>
        <pt x="50" y="112" on="0"/>
      </contour>
      <contour>
        <pt x="342" y="205" on="1"/>
        <pt x="342" y="164" on="0"/>
        <pt x="375" y="127" on="0"/>
        <pt x="403" y="127" on="1"/>
        <pt x="421" y="127" on="0"/>
        <pt x="459" y="151" on="0"/>
        <pt x="482" y="179" on="1"/>
        <pt x="508" y="326" on="1"/>
        <pt x="486" y="361" on="0"/>
        <pt x="453" y="361" on="1"/>
        <pt x="427" y="361" on="0"/>
        <pt x="386" y="331" on="0"/>
        <pt x="357" y="285" on="0"/>
        <pt x="342" y="230" on="0"/>
      </contour>
    </TTGlyph>
    <TTGlyph name="at.case" xMin="50" yMin="-29" xMax="757" yMax="695">
      <contour>
        <pt x="50" y="292" on="1"/>
        <pt x="50" y="383" on="0"/>
        <pt x="113" y="532" on="0"/>
        <pt x="221" y="638" on="0"/>
        <pt x="365" y="695" on="0"/>
        <pt x="446" y="695" on="1"/>
        <pt x="516" y="695" on="0"/>
        <pt x="631" y="652" on="0"/>
        <pt x="713" y="573" on="0"/>
        <pt x="757" y="463" on="0"/>
        <pt x="757" y="397" on="1"/>
        <pt x="757" y="335" on="0"/>
        <pt x="724" y="240" on="0"/>
        <pt x="670" y="176" on="0"/>
        <pt x="599" y="143" on="0"/>
        <pt x="561" y="143" on="1"/>
        <pt x="521" y="143" on="0"/>
        <pt x="471" y="185" on="0"/>
        <pt x="465" y="220" on="1"/>
        <pt x="463" y="220" on="1"/>
        <pt x="442" y="191" on="0"/>
        <pt x="376" y="152" on="0"/>
        <pt x="343" y="152" on="1"/>
        <pt x="295" y="152" on="0"/>
        <pt x="232" y="225" on="0"/>
        <pt x="232" y="285" on="1"/>
        <pt x="232" y="326" on="0"/>
        <pt x="259" y="405" on="0"/>
        <pt x="307" y="468" on="0"/>
        <pt x="374" y="507" on="0"/>
        <pt x="415" y="507" on="1"/>
        <pt x="465" y="507" on="0"/>
        <pt x="490" y="458" on="1"/>
        <pt x="492" y="458" on="1"/>
        <pt x="506" y="499" on="1"/>
        <pt x="579" y="499" on="1"/>
        <pt x="536" y="313" on="1"/>
        <pt x="514" y="216" on="0"/>
        <pt x="572" y="216" on="1"/>
        <pt x="591" y="216" on="0"/>
        <pt x="629" y="239" on="0"/>
        <pt x="661" y="283" on="0"/>
        <pt x="681" y="349" on="0"/>
        <pt x="681" y="393" on="1"/>
        <pt x="681" y="442" on="0"/>
        <pt x="652" y="528" on="0"/>
        <pt x="592" y="590" on="0"/>
        <pt x="499" y="626" on="0"/>
        <pt x="436" y="626" on="1"/>
        <pt x="377" y="626" on="0"/>
        <pt x="266" y="579" on="0"/>
        <pt x="180" y="493" on="0"/>
        <pt x="128" y="370" on="0"/>
        <pt x="128" y="295" on="1"/>
        <pt x="128" y="227" on="0"/>
        <pt x="170" y="131" on="0"/>
        <pt x="240" y="69" on="0"/>
        <pt x="332" y="40" on="0"/>
        <pt x="383" y="40" on="1"/>
        <pt x="416" y="40" on="0"/>
        <pt x="484" y="55" on="0"/>
        <pt x="511" y="70" on="1"/>
        <pt x="540" y="10" on="1"/>
        <pt x="500" y="-11" on="0"/>
        <pt x="420" y="-29" on="0"/>
        <pt x="374" y="-29" on="1"/>
        <pt x="310" y="-29" on="0"/>
        <pt x="193" y="9" on="0"/>
        <pt x="103" y="88" on="0"/>
        <pt x="50" y="209" on="0"/>
      </contour>
      <contour>
        <pt x="368" y="226" on="1"/>
        <pt x="385" y="226" on="0"/>
        <pt x="421" y="250" on="0"/>
        <pt x="443" y="276" on="1"/>
        <pt x="468" y="400" on="1"/>
        <pt x="457" y="418" on="0"/>
        <pt x="435" y="434" on="0"/>
        <pt x="417" y="434" on="1"/>
        <pt x="395" y="434" on="0"/>
        <pt x="359" y="406" on="0"/>
        <pt x="334" y="364" on="0"/>
        <pt x="320" y="314" on="0"/>
        <pt x="320" y="292" on="1"/>
        <pt x="320" y="259" on="0"/>
        <pt x="347" y="226" on="0"/>
      </contour>
    </TTGlyph>
    <TTGlyph name="atilde" xMin="52" yMin="-12" xMax="456" yMax="698">
      <component glyphName="a" x="0" y="0" flags="0x204"/>
      <component glyphName="uni0303" x="275" y="0" flags="0x4"/>
    </TTGlyph>
    <TTGlyph name="atilde.a" xMin="43" yMin="-12" xMax="491" yMax="698">
      <component glyphName="uni0251" x="0" y="0" flags="0x204"/>
      <component glyphName="uni0303" x="291" y="0" flags="0x4"/>
    </TTGlyph>
    <TTGlyph name="b" xMin="73" yMin="-12" xMax="521" yMax="706">
      <contour>
        <pt x="73" y="706" on="1"/>
        <pt x="188" y="706" on="1"/>
        <pt x="188" y="524" on="1"/>
        <pt x="185" y="442" on="1"/>
        <pt x="216" y="469" on="0"/>
        <pt x="289" y="503" on="0"/>
        <pt x="327" y="503" on="1"/>
        <pt x="373" y="503" on="0"/>
        <pt x="445" y="468" on="0"/>
        <pt x="495" y="403" on="0"/>
        <pt x="521" y="311" on="0"/>
        <pt x="521" y="254" on="1"/>
        <pt x="521" y="191" on="0"/>
        <pt x="486" y="92" on="0"/>
        <pt x="428" y="24" on="0"/>
        <pt x="352" y="-12" on="0"/>
        <pt x="311" y="-12" on="1"/>
        <pt x="277" y="-12" on="0"/>
        <pt x="208" y="20" on="0"/>
        <pt x="177" y="50" on="1"/>
        <pt x="174" y="50" on="1"/>
        <pt x="164" y="0" on="1"/>
        <pt x="73" y="0" on="1"/>
      </contour>
      <contour>
        <pt x="188" y="124" on="1"/>
        <pt x="214" y="101" on="0"/>
        <pt x="265" y="83" on="0"/>
        <pt x="287" y="83" on="1"/>
        <pt x="336" y="83" on="0"/>
        <pt x="402" y="168" on="0"/>
        <pt x="402" y="252" on="1"/>
        <pt x="402" y="326" on="0"/>
        <pt x="352" y="408" on="0"/>
        <pt x="296" y="408" on="1"/>
        <pt x="244" y="408" on="0"/>
        <pt x="188" y="353" on="1"/>
      </contour>
    </TTGlyph>
    <TTGlyph name="b.sups" xMin="47" yMin="256" xMax="350" yMax="730">
      <contour>
        <pt x="47" y="730" on="1"/>
        <pt x="130" y="730" on="1"/>
        <pt x="130" y="610" on="1"/>
        <pt x="127" y="556" on="1"/>
        <pt x="147" y="574" on="0"/>
        <pt x="194" y="598" on="0"/>
        <pt x="220" y="598" on="1"/>
        <pt x="282" y="598" on="0"/>
        <pt x="350" y="508" on="0"/>
        <pt x="350" y="433" on="1"/>
        <pt x="350" y="391" on="0"/>
        <pt x="327" y="325" on="0"/>
        <pt x="289" y="280" on="0"/>
        <pt x="238" y="256" on="0"/>
        <pt x="211" y="256" on="1"/>
        <pt x="188" y="256" on="0"/>
        <pt x="142" y="277" on="0"/>
        <pt x="122" y="298" on="1"/>
        <pt x="118" y="298" on="1"/>
        <pt x="111" y="264" on="1"/>
        <pt x="47" y="264" on="1"/>
      </contour>
      <contour>
        <pt x="130" y="348" on="1"/>
        <pt x="147" y="334" on="0"/>
        <pt x="179" y="323" on="0"/>
        <pt x="194" y="323" on="1"/>
        <pt x="223" y="323" on="0"/>
        <pt x="265" y="377" on="0"/>
        <pt x="265" y="432" on="1"/>
        <pt x="265" y="480" on="0"/>
        <pt x="232" y="530" on="0"/>
        <pt x="198" y="530" on="1"/>
        <pt x="165" y="530" on="0"/>
        <pt x="130" y="495" on="1"/>
      </contour>
    </TTGlyph>
    <TTGlyph name="backslash" xMin="21" yMin="-160" xMax="333" yMax="710">
      <contour>
        <pt x="21" y="710" on="1"/>
        <pt x="99" y="710" on="1"/>
        <pt x="333" y="-160" on="1"/>
        <pt x="255" y="-160" on="1"/>
      </contour>
    </TTGlyph>
    <TTGlyph name="bar" xMin="89" yMin="-250" xMax="166" yMax="750">
      <contour>
        <pt x="89" y="750" on="1"/>
        <pt x="166" y="750" on="1"/>
        <pt x="166" y="-250" on="1"/>
        <pt x="89" y="-250" on="1"/>
      </contour>
    </TTGlyph>
    <TTGlyph name="braceleft" xMin="32" yMin="-152" xMax="286" yMax="708">
      <contour>
        <pt x="286" y="-89" on="1"/>
        <pt x="286" y="-152" on="1"/>
        <pt x="232" y="-152" on="1"/>
        <pt x="200" y="-152" on="0"/>
        <pt x="154" y="-139" on="0"/>
        <pt x="124" y="-107" on="0"/>
        <pt x="109" y="-54" on="0"/>
        <pt x="109" y="-14" on="1"/>
        <pt x="109" y="13" on="0"/>
        <pt x="112" y="58" on="0"/>
        <pt x="115" y="100" on="0"/>
        <pt x="118" y="143" on="0"/>
        <pt x="118" y="167" on="1"/>
        <pt x="118" y="181" on="0"/>
        <pt x="110" y="208" on="0"/>
        <pt x="90" y="229" on="0"/>
        <pt x="57" y="243" on="0"/>
        <pt x="32" y="243" on="1"/>
        <pt x="32" y="313" on="1"/>
        <pt x="57" y="313" on="0"/>
        <pt x="90" y="327" on="0"/>
        <pt x="110" y="348" on="0"/>
        <pt x="118" y="374" on="0"/>
        <pt x="118" y="388" on="1"/>
        <pt x="118" y="413" on="0"/>
        <pt x="115" y="456" on="0"/>
        <pt x="112" y="498" on="0"/>
        <pt x="109" y="543" on="0"/>
        <pt x="109" y="570" on="1"/>
        <pt x="109" y="610" on="0"/>
        <pt x="124" y="663" on="0"/>
        <pt x="154" y="695" on="0"/>
        <pt x="200" y="708" on="0"/>
        <pt x="232" y="708" on="1"/>
        <pt x="286" y="708" on="1"/>
        <pt x="286" y="645" on="1"/>
        <pt x="263" y="645" on="1"/>
        <pt x="227" y="645" on="0"/>
        <pt x="202" y="610" on="0"/>
        <pt x="202" y="565" on="1"/>
        <pt x="202" y="522" on="0"/>
        <pt x="207" y="441" on="0"/>
        <pt x="207" y="393" on="1"/>
        <pt x="207" y="339" on="0"/>
        <pt x="175" y="289" on="0"/>
        <pt x="140" y="280" on="1"/>
        <pt x="140" y="276" on="1"/>
        <pt x="175" y="267" on="0"/>
        <pt x="207" y="216" on="0"/>
        <pt x="207" y="163" on="1"/>
        <pt x="207" y="115" on="0"/>
        <pt x="202" y="34" on="0"/>
        <pt x="202" y="-9" on="1"/>
        <pt x="202" y="-54" on="0"/>
        <pt x="227" y="-89" on="0"/>
        <pt x="263" y="-89" on="1"/>
      </contour>
    </TTGlyph>
    <TTGlyph name="braceright" xMin="38" yMin="-152" xMax="292" yMax="708">
      <contour>
        <pt x="61" y="-89" on="1"/>
        <pt x="97" y="-89" on="0"/>
        <pt x="122" y="-54" on="0"/>
        <pt x="122" y="-9" on="1"/>
        <pt x="122" y="34" on="0"/>
        <pt x="117" y="115" on="0"/>
        <pt x="117" y="163" on="1"/>
        <pt x="117" y="216" on="0"/>
        <pt x="149" y="267" on="0"/>
        <pt x="184" y="276" on="1"/>
        <pt x="184" y="280" on="1"/>
        <pt x="149" y="289" on="0"/>
        <pt x="117" y="339" on="0"/>
        <pt x="117" y="393" on="1"/>
        <pt x="117" y="441" on="0"/>
        <pt x="122" y="522" on="0"/>
        <pt x="122" y="565" on="1"/>
        <pt x="122" y="610" on="0"/>
        <pt x="97" y="645" on="0"/>
        <pt x="61" y="645" on="1"/>
        <pt x="38" y="645" on="1"/>
        <pt x="38" y="708" on="1"/>
        <pt x="92" y="708" on="1"/>
        <pt x="123" y="708" on="0"/>
        <pt x="170" y="695" on="0"/>
        <pt x="200" y="663" on="0"/>
        <pt x="215" y="610" on="0"/>
        <pt x="215" y="570" on="1"/>
        <pt x="215" y="543" on="0"/>
        <pt x="212" y="498" on="0"/>
        <pt x="209" y="456" on="0"/>
        <pt x="206" y="413" on="0"/>
        <pt x="206" y="388" on="1"/>
        <pt x="206" y="374" on="0"/>
        <pt x="214" y="348" on="0"/>
        <pt x="234" y="327" on="0"/>
        <pt x="267" y="313" on="0"/>
        <pt x="292" y="313" on="1"/>
        <pt x="292" y="243" on="1"/>
        <pt x="267" y="243" on="0"/>
        <pt x="234" y="229" on="0"/>
        <pt x="214" y="208" on="0"/>
        <pt x="206" y="181" on="0"/>
        <pt x="206" y="167" on="1"/>
        <pt x="206" y="143" on="0"/>
        <pt x="209" y="100" on="0"/>
        <pt x="212" y="58" on="0"/>
        <pt x="215" y="13" on="0"/>
        <pt x="215" y="-14" on="1"/>
        <pt x="215" y="-54" on="0"/>
        <pt x="200" y="-107" on="0"/>
        <pt x="170" y="-139" on="0"/>
        <pt x="123" y="-152" on="0"/>
        <pt x="92" y="-152" on="1"/>
        <pt x="38" y="-152" on="1"/>
        <pt x="38" y="-89" on="1"/>
      </contour>
    </TTGlyph>
    <TTGlyph name="bracketleft" xMin="90" yMin="-152" xMax="286" yMax="708">
      <contour>
        <pt x="90" y="708" on="1"/>
        <pt x="286" y="708" on="1"/>
        <pt x="286" y="645" on="1"/>
        <pt x="177" y="645" on="1"/>
        <pt x="177" y="-89" on="1"/>
        <pt x="286" y="-89" on="1"/>
        <pt x="286" y="-152" on="1"/>
        <pt x="90" y="-152" on="1"/>
      </contour>
    </TTGlyph>
    <TTGlyph name="bracketright" xMin="38" yMin="-152" xMax="234" yMax="708">
      <contour>
        <pt x="147" y="-89" on="1"/>
        <pt x="147" y="645" on="1"/>
        <pt x="38" y="645" on="1"/>
        <pt x="38" y="708" on="1"/>
        <pt x="234" y="708" on="1"/>
        <pt x="234" y="-152" on="1"/>
        <pt x="38" y="-152" on="1"/>
        <pt x="38" y="-89" on="1"/>
      </contour>
    </TTGlyph>
    <TTGlyph name="breve" xMin="141" yMin="575" xMax="407" yMax="708">
      <component glyphName="uni0306" x="274" y="0" flags="0x4"/>
    </TTGlyph>
    <TTGlyph name="brokenbar" xMin="89" yMin="-250" xMax="166" yMax="750">
      <contour>
        <pt x="89" y="750" on="1"/>
        <pt x="166" y="750" on="1"/>
        <pt x="166" y="302" on="1"/>
        <pt x="89" y="302" on="1"/>
      </contour>
      <contour>
        <pt x="166" y="209" on="1"/>
        <pt x="166" y="-250" on="1"/>
        <pt x="89" y="-250" on="1"/>
        <pt x="89" y="209" on="1"/>
      </contour>
    </TTGlyph>
    <TTGlyph name="bullet" xMin="40" yMin="133" xMax="285" yMax="393">
      <contour>
        <pt x="162" y="133" on="1"/>
        <pt x="137" y="133" on="0"/>
        <pt x="92" y="152" on="0"/>
        <pt x="59" y="187" on="0"/>
        <pt x="40" y="234" on="0"/>
        <pt x="40" y="263" on="1"/>
        <pt x="40" y="291" on="0"/>
        <pt x="59" y="339" on="0"/>
        <pt x="92" y="373" on="0"/>
        <pt x="137" y="393" on="0"/>
        <pt x="162" y="393" on="1"/>
        <pt x="187" y="393" on="0"/>
        <pt x="232" y="373" on="0"/>
        <pt x="266" y="339" on="0"/>
        <pt x="285" y="291" on="0"/>
        <pt x="285" y="263" on="1"/>
        <pt x="285" y="234" on="0"/>
        <pt x="266" y="187" on="0"/>
        <pt x="232" y="152" on="0"/>
        <pt x="187" y="133" on="0"/>
      </contour>
    </TTGlyph>
    <TTGlyph name="c" xMin="41" yMin="-12" xMax="439" yMax="503">
      <contour>
        <pt x="41" y="245" on="1"/>
        <pt x="41" y="306" on="0"/>
        <pt x="81" y="402" on="0"/>
        <pt x="149" y="468" on="0"/>
        <pt x="238" y="503" on="0"/>
        <pt x="287" y="503" on="1"/>
        <pt x="335" y="503" on="0"/>
        <pt x="406" y="470" on="0"/>
        <pt x="431" y="446" on="1"/>
        <pt x="376" y="373" on="1"/>
        <pt x="356" y="390" on="0"/>
        <pt x="316" y="409" on="0"/>
        <pt x="293" y="409" on="1"/>
        <pt x="233" y="409" on="0"/>
        <pt x="159" y="320" on="0"/>
        <pt x="159" y="245" on="1"/>
        <pt x="159" y="171" on="0"/>
        <pt x="232" y="82" on="0"/>
        <pt x="290" y="82" on="1"/>
        <pt x="320" y="82" on="0"/>
        <pt x="371" y="107" on="0"/>
        <pt x="391" y="124" on="1"/>
        <pt x="439" y="51" on="1"/>
        <pt x="404" y="20" on="0"/>
        <pt x="320" y="-12" on="0"/>
        <pt x="278" y="-12" on="1"/>
        <pt x="228" y="-12" on="0"/>
        <pt x="141" y="22" on="0"/>
        <pt x="77" y="88" on="0"/>
        <pt x="41" y="184" on="0"/>
      </contour>
    </TTGlyph>
    <TTGlyph name="c.sups" xMin="27" yMin="256" xMax="295" yMax="598">
      <contour>
        <pt x="186" y="256" on="1"/>
        <pt x="151" y="256" on="0"/>
        <pt x="93" y="279" on="0"/>
        <pt x="51" y="322" on="0"/>
        <pt x="27" y="386" on="0"/>
        <pt x="27" y="427" on="1"/>
        <pt x="27" y="467" on="0"/>
        <pt x="53" y="531" on="0"/>
        <pt x="98" y="575" on="0"/>
        <pt x="157" y="598" on="0"/>
        <pt x="189" y="598" on="1"/>
        <pt x="226" y="598" on="0"/>
        <pt x="276" y="576" on="0"/>
        <pt x="290" y="563" on="1"/>
        <pt x="252" y="509" on="1"/>
        <pt x="239" y="520" on="0"/>
        <pt x="213" y="531" on="0"/>
        <pt x="196" y="531" on="1"/>
        <pt x="160" y="531" on="0"/>
        <pt x="112" y="473" on="0"/>
        <pt x="112" y="427" on="1"/>
        <pt x="112" y="380" on="0"/>
        <pt x="158" y="323" on="0"/>
        <pt x="195" y="323" on="1"/>
        <pt x="218" y="323" on="0"/>
        <pt x="249" y="337" on="0"/>
        <pt x="261" y="348" on="1"/>
        <pt x="295" y="294" on="1"/>
        <pt x="278" y="280" on="0"/>
        <pt x="224" y="256" on="0"/>
      </contour>
    </TTGlyph>
    <TTGlyph name="cacute" xMin="41" yMin="-12" xMax="439" yMax="719">
      <component glyphName="c" x="0" y="0" flags="0x204"/>
      <component glyphName="uni0301" x="285" y="0" flags="0x4"/>
    </TTGlyph>
    <TTGlyph name="caron" xMin="132" yMin="573" xMax="416" yMax="719">
      <component glyphName="uni030C" x="274" y="0" flags="0x4"/>
    </TTGlyph>
    <TTGlyph name="ccaron" xMin="41" yMin="-12" xMax="439" yMax="719">
      <component glyphName="c" x="0" y="0" flags="0x204"/>
      <component glyphName="uni030C" x="285" y="0" flags="0x4"/>
    </TTGlyph>
    <TTGlyph name="ccedilla" xMin="41" yMin="-217" xMax="439" yMax="503">
      <component glyphName="c" x="0" y="0" flags="0x204"/>
      <component glyphName="uni0327" x="278" y="0" flags="0x4"/>
    </TTGlyph>
    <TTGlyph name="ccircumflex" xMin="41" yMin="-12" xMax="439" yMax="719">
      <component glyphName="c" x="0" y="0" flags="0x204"/>
      <component glyphName="uni0302" x="285" y="0" flags="0x4"/>
    </TTGlyph>
    <TTGlyph name="cdotaccent" xMin="41" yMin="-12" xMax="439" yMax="708">
      <component glyphName="c" x="0" y="0" flags="0x204"/>
      <component glyphName="uni0307" x="285" y="0" flags="0x4"/>
    </TTGlyph>
    <TTGlyph name="cedilla" xMin="184" yMin="-217" xMax="355" yMax="3">
      <component glyphName="uni0327" x="278" y="0" flags="0x4"/>
    </TTGlyph>
    <TTGlyph name="cent" xMin="61" yMin="-37" xMax="471" yMax="654">
      <contour>
        <pt x="269" y="455" on="1"/>
        <pt x="223" y="440" on="0"/>
        <pt x="173" y="364" on="0"/>
        <pt x="173" y="308" on="1"/>
        <pt x="173" y="252" on="0"/>
        <pt x="223" y="176" on="0"/>
        <pt x="269" y="162" on="1"/>
      </contour>
      <contour>
        <pt x="471" y="123" on="1"/>
        <pt x="442" y="97" on="0"/>
        <pt x="371" y="66" on="0"/>
        <pt x="335" y="61" on="1"/>
        <pt x="335" y="-37" on="1"/>
        <pt x="269" y="-37" on="1"/>
        <pt x="269" y="62" on="1"/>
        <pt x="175" y="74" on="0"/>
        <pt x="61" y="200" on="0"/>
        <pt x="61" y="308" on="1"/>
        <pt x="61" y="360" on="0"/>
        <pt x="93" y="445" on="0"/>
        <pt x="148" y="507" on="0"/>
        <pt x="224" y="546" on="0"/>
        <pt x="269" y="553" on="1"/>
        <pt x="269" y="654" on="1"/>
        <pt x="335" y="654" on="1"/>
        <pt x="335" y="556" on="1"/>
        <pt x="377" y="554" on="0"/>
        <pt x="440" y="522" on="0"/>
        <pt x="463" y="499" on="1"/>
        <pt x="409" y="428" on="1"/>
        <pt x="374" y="459" on="0"/>
        <pt x="335" y="463" on="1"/>
        <pt x="335" y="155" on="1"/>
        <pt x="361" y="157" on="0"/>
        <pt x="405" y="181" on="0"/>
        <pt x="423" y="196" on="1"/>
      </contour>
    </TTGlyph>
    <TTGlyph name="circumflex" xMin="132" yMin="573" xMax="416" yMax="719">
      <component glyphName="uni0302" x="274" y="0" flags="0x4"/>
    </TTGlyph>
    <TTGlyph name="colon" xMin="63" yMin="-12" xMax="212" yMax="486">
      <component glyphName="period" x="0" y="342" flags="0x204"/>
      <component glyphName="period" x="0" y="0" flags="0x4"/>
    </TTGlyph>
    <TTGlyph name="colon.sups" xMin="42" yMin="432" xMax="151" yMax="760">
      <contour>
        <pt x="42" y="488" on="1"/>
        <pt x="42" y="512" on="0"/>
        <pt x="73" y="544" on="0"/>
        <pt x="96" y="544" on="1"/>
        <pt x="120" y="544" on="0"/>
        <pt x="151" y="512" on="0"/>
        <pt x="151" y="488" on="1"/>
        <pt x="151" y="463" on="0"/>
        <pt x="120" y="432" on="0"/>
        <pt x="96" y="432" on="1"/>
        <pt x="73" y="432" on="0"/>
        <pt x="42" y="463" on="0"/>
      </contour>
      <contour>
        <pt x="42" y="704" on="1"/>
        <pt x="42" y="728" on="0"/>
        <pt x="73" y="760" on="0"/>
        <pt x="96" y="760" on="1"/>
        <pt x="120" y="760" on="0"/>
        <pt x="151" y="728" on="0"/>
        <pt x="151" y="704" on="1"/>
        <pt x="151" y="679" on="0"/>
        <pt x="120" y="648" on="0"/>
        <pt x="96" y="648" on="1"/>
        <pt x="73" y="648" on="0"/>
        <pt x="42" y="679" on="0"/>
      </contour>
    </TTGlyph>
    <TTGlyph name="colonmonetary" xMin="58" yMin="-110" xMax="497" yMax="746">
      <contour>
        <pt x="251" y="100" on="1"/>
        <pt x="273" y="84" on="0"/>
        <pt x="298" y="80" on="1"/>
        <pt x="354" y="555" on="1"/>
        <pt x="342" y="558" on="0"/>
        <pt x="329" y="558" on="1"/>
        <pt x="323" y="558" on="0"/>
        <pt x="311" y="557" on="0"/>
        <pt x="305" y="556" on="1"/>
      </contour>
      <contour>
        <pt x="259" y="540" on="1"/>
        <pt x="217" y="515" on="0"/>
        <pt x="174" y="402" on="0"/>
        <pt x="174" y="320" on="1"/>
        <pt x="174" y="207" on="0"/>
        <pt x="212" y="143" on="1"/>
      </contour>
      <contour>
        <pt x="497" y="81" on="1"/>
        <pt x="463" y="39" on="0"/>
        <pt x="381" y="-8" on="0"/>
        <pt x="330" y="-11" on="1"/>
        <pt x="318" y="-110" on="1"/>
        <pt x="275" y="-110" on="1"/>
        <pt x="287" y="-11" on="1"/>
        <pt x="259" y="-8" on="0"/>
        <pt x="239" y="-1" on="1"/>
        <pt x="226" y="-110" on="1"/>
        <pt x="182" y="-110" on="1"/>
        <pt x="197" y="17" on="1"/>
        <pt x="133" y="52" on="0"/>
        <pt x="58" y="204" on="0"/>
        <pt x="58" y="316" on="1"/>
        <pt x="58" y="384" on="0"/>
        <pt x="88" y="495" on="0"/>
        <pt x="144" y="578" on="0"/>
        <pt x="223" y="632" on="0"/>
        <pt x="272" y="642" on="1"/>
        <pt x="284" y="746" on="1"/>
        <pt x="328" y="746" on="1"/>
        <pt x="316" y="648" on="1"/>
        <pt x="332" y="648" on="1"/>
        <pt x="348" y="648" on="0"/>
        <pt x="365" y="645" on="1"/>
        <pt x="377" y="746" on="1"/>
        <pt x="420" y="746" on="1"/>
        <pt x="406" y="633" on="1"/>
        <pt x="459" y="610" on="0"/>
        <pt x="494" y="564" on="1"/>
        <pt x="429" y="501" on="1"/>
        <pt x="421" y="511" on="0"/>
        <pt x="404" y="528" on="0"/>
        <pt x="395" y="535" on="1"/>
        <pt x="341" y="79" on="1"/>
        <pt x="368" y="84" on="0"/>
        <pt x="412" y="115" on="0"/>
        <pt x="432" y="141" on="1"/>
      </contour>
    </TTGlyph>
    <TTGlyph name="comma" xMin="47" yMin="-182" xMax="228" yMax="144">
      <contour>
        <pt x="47" y="-119" on="1"/>
        <pt x="95" y="-100" on="0"/>
        <pt x="148" y="-36" on="0"/>
        <pt x="148" y="2" on="1"/>
        <pt x="139" y="2" on="1"/>
        <pt x="110" y="2" on="0"/>
        <pt x="65" y="39" on="0"/>
        <pt x="65" y="73" on="1"/>
        <pt x="65" y="105" on="0"/>
        <pt x="110" y="144" on="0"/>
        <pt x="142" y="144" on="1"/>
        <pt x="183" y="144" on="0"/>
        <pt x="228" y="82" on="0"/>
        <pt x="228" y="26" on="1"/>
        <pt x="228" y="-48" on="0"/>
        <pt x="147" y="-156" on="0"/>
        <pt x="72" y="-182" on="1"/>
      </contour>
    </TTGlyph>
    <TTGlyph name="comma.dnom" xMin="32" yMin="-123" xMax="161" yMax="104">
      <contour>
        <pt x="32" y="-77" on="1"/>
        <pt x="65" y="-65" on="0"/>
        <pt x="102" y="-29" on="0"/>
        <pt x="102" y="0" on="1"/>
        <pt x="97" y="0" on="1"/>
        <pt x="76" y="0" on="0"/>
        <pt x="42" y="26" on="0"/>
        <pt x="42" y="51" on="1"/>
        <pt x="42" y="75" on="0"/>
        <pt x="75" y="104" on="0"/>
        <pt x="98" y="104" on="1"/>
        <pt x="128" y="104" on="0"/>
        <pt x="161" y="61" on="0"/>
        <pt x="161" y="19" on="1"/>
        <pt x="161" y="-32" on="0"/>
        <pt x="103" y="-106" on="0"/>
        <pt x="51" y="-123" on="1"/>
      </contour>
    </TTGlyph>
    <TTGlyph name="comma.numr" xMin="32" yMin="141" xMax="161" yMax="368">
      <component glyphName="comma.dnom" x="0" y="264" flags="0x204"/>
    </TTGlyph>
    <TTGlyph name="comma.subs" xMin="32" yMin="-353" xMax="161" yMax="-126">
      <component glyphName="comma.dnom" x="0" y="-230" flags="0x204"/>
    </TTGlyph>
    <TTGlyph name="comma.sups" xMin="32" yMin="317" xMax="161" yMax="544">
      <component glyphName="comma.dnom" x="0" y="440" flags="0x204"/>
    </TTGlyph>
    <TTGlyph name="copyright" xMin="47" yMin="-10" xMax="700" yMax="654">
      <contour>
        <pt x="47" y="324" on="1"/>
        <pt x="47" y="401" on="0"/>
        <pt x="100" y="523" on="0"/>
        <pt x="189" y="609" on="0"/>
        <pt x="308" y="654" on="0"/>
        <pt x="374" y="654" on="1"/>
        <pt x="440" y="654" on="0"/>
        <pt x="558" y="609" on="0"/>
        <pt x="647" y="523" on="0"/>
        <pt x="700" y="401" on="0"/>
        <pt x="700" y="324" on="1"/>
        <pt x="700" y="247" on="0"/>
        <pt x="647" y="124" on="0"/>
        <pt x="558" y="37" on="0"/>
        <pt x="440" y="-10" on="0"/>
        <pt x="374" y="-10" on="1"/>
        <pt x="308" y="-10" on="0"/>
        <pt x="189" y="37" on="0"/>
        <pt x="100" y="124" on="0"/>
        <pt x="47" y="247" on="0"/>
      </contour>
      <contour>
        <pt x="105" y="324" on="1"/>
        <pt x="105" y="261" on="0"/>
        <pt x="147" y="157" on="0"/>
        <pt x="220" y="83" on="0"/>
        <pt x="318" y="42" on="0"/>
        <pt x="374" y="42" on="1"/>
        <pt x="430" y="42" on="0"/>
        <pt x="528" y="83" on="0"/>
        <pt x="600" y="157" on="0"/>
        <pt x="642" y="261" on="0"/>
        <pt x="642" y="324" on="1"/>
        <pt x="642" y="387" on="0"/>
        <pt x="600" y="490" on="0"/>
        <pt x="528" y="563" on="0"/>
        <pt x="430" y="603" on="0"/>
        <pt x="374" y="603" on="1"/>
        <pt x="318" y="603" on="0"/>
        <pt x="220" y="563" on="0"/>
        <pt x="147" y="490" on="0"/>
        <pt x="105" y="387" on="0"/>
      </contour>
      <contour>
        <pt x="196" y="323" on="1"/>
        <pt x="196" y="367" on="0"/>
        <pt x="227" y="438" on="0"/>
        <pt x="280" y="487" on="0"/>
        <pt x="348" y="514" on="0"/>
        <pt x="385" y="514" on="1"/>
        <pt x="430" y="514" on="0"/>
        <pt x="490" y="480" on="0"/>
        <pt x="514" y="456" on="1"/>
        <pt x="469" y="406" on="1"/>
        <pt x="450" y="424" on="0"/>
        <pt x="414" y="443" on="0"/>
        <pt x="391" y="443" on="1"/>
        <pt x="340" y="443" on="0"/>
        <pt x="282" y="375" on="0"/>
        <pt x="282" y="323" on="1"/>
        <pt x="282" y="265" on="0"/>
        <pt x="339" y="197" on="0"/>
        <pt x="387" y="197" on="1"/>
        <pt x="416" y="197" on="0"/>
        <pt x="458" y="219" on="0"/>
        <pt x="478" y="236" on="1"/>
        <pt x="517" y="180" on="1"/>
        <pt x="489" y="157" on="0"/>
        <pt x="426" y="126" on="0"/>
        <pt x="384" y="126" on="1"/>
        <pt x="344" y="126" on="0"/>
        <pt x="275" y="153" on="0"/>
        <pt x="225" y="204" on="0"/>
        <pt x="196" y="277" on="0"/>
      </contour>
    </TTGlyph>
</ttFont>
